{"glyphs":{"0":{"ha":775,"x_min":74,"x_max":743,"o":"m 97 492 q 74 271 74 354 q 131 63 74 135 q 321 -10 188 -10 q 524 53 444 -10 q 648 225 604 117 q 719 492 692 333 q 743 710 743 626 q 686 915 743 843 q 496 988 629 988 q 292 925 371 988 q 169 756 213 863 q 97 492 125 649 m 692 492 q 625 238 665 340 q 513 75 585 135 q 325 15 440 15 q 153 82 204 15 q 101 274 101 149 q 125 492 101 357 q 192 743 151 642 q 304 903 232 844 q 492 963 376 963 q 664 897 613 963 q 715 707 715 831 q 692 492 715 626 z "},"1":{"ha":314,"x_min":82,"x_max":282,"o":"m 103 953 l 107 978 l 282 978 l 110 0 l 82 0 l 250 953 l 103 953 z "},"2":{"ha":774,"x_min":-18,"x_max":731,"o":"m -15 15 q 478 363 288 190 q 696 688 668 536 q 703 760 703 729 q 649 907 703 851 q 476 963 596 963 q 259 883 343 963 q 150 667 175 804 l 122 667 q 247 905 151 822 q 481 988 343 988 q 660 933 589 988 q 731 763 731 879 q 724 688 731 721 q 592 444 703 569 q 333 210 482 318 q 39 25 185 103 l 635 25 l 631 0 l -18 0 l -15 15 z "},"3":{"ha":757,"x_min":35,"x_max":738,"o":"m 494 988 q 674 931 611 988 q 738 782 738 874 q 733 732 738 757 q 650 587 719 649 q 449 514 581 525 l 447 506 q 668 278 668 454 q 663 221 668 249 q 567 55 646 119 q 351 -10 488 -10 q 118 65 201 -10 q 36 274 35 139 l 64 274 q 137 88 65 157 q 356 18 208 18 q 547 75 475 18 q 635 221 619 132 q 640 274 640 257 q 554 439 640 382 q 315 496 468 496 l 292 496 l 296 522 l 321 522 q 593 577 499 522 q 706 732 688 632 q 710 779 710 757 q 653 913 710 864 q 490 963 596 963 q 282 902 376 963 q 160 717 188 842 l 132 717 q 256 914 157 840 q 494 988 354 988 z "},"4":{"ha":769,"x_min":-12,"x_max":742,"o":"m -12 264 l -8 286 l 665 978 l 693 978 l 572 289 l 742 289 l 736 264 l 567 264 l 521 0 l 493 0 l 539 264 l -12 264 m 657 933 l 28 289 l 544 289 l 657 933 z "},"5":{"ha":822,"x_min":57,"x_max":786,"o":"m 782 953 l 224 953 l 144 508 q 280 604 196 568 q 456 640 364 640 q 660 569 593 640 q 726 382 726 497 q 718 300 726 342 q 603 79 694 168 q 357 -10 513 -10 q 137 64 217 -10 q 58 267 57 138 l 86 267 q 162 82 88 146 q 361 18 236 18 q 584 96 500 18 q 690 300 668 174 q 697 378 697 346 q 634 553 697 490 q 451 615 571 615 q 275 574 364 615 q 133 463 186 532 l 108 463 l 200 978 l 786 978 l 782 953 z "},"6":{"ha":825,"x_min":75,"x_max":771,"o":"m 743 725 q 514 964 731 964 q 252 834 354 964 q 111 413 150 704 q 250 585 149 521 q 475 650 351 650 q 676 583 606 650 q 746 397 746 517 q 738 311 746 357 q 621 83 714 176 q 367 -10 528 -10 q 142 70 208 -10 q 75 289 75 150 q 94 471 75 361 q 238 855 138 721 q 518 989 338 989 q 707 917 647 989 q 771 725 767 846 l 743 725 m 107 340 q 100 271 100 301 q 166 88 100 161 q 371 15 232 15 q 594 94 501 15 q 710 311 686 174 q 718 394 718 356 q 653 566 718 507 q 471 625 588 625 q 316 593 393 625 q 181 497 239 561 q 107 340 124 433 z "},"7":{"ha":642,"x_min":68,"x_max":700,"o":"m 696 953 l 139 0 l 107 0 l 669 953 l 68 953 l 72 978 l 700 978 l 696 953 z "},"8":{"ha":844,"x_min":31,"x_max":790,"o":"m 150 753 q 267 924 169 860 q 513 988 364 988 q 717 931 644 988 q 790 775 790 874 q 786 725 790 750 q 709 585 772 643 q 532 503 646 526 q 679 429 626 486 q 732 285 732 372 q 728 232 732 260 q 601 37 706 108 q 332 -35 496 -35 q 109 28 188 -35 q 31 200 31 90 q 36 260 31 232 q 128 420 53 357 q 321 503 204 483 q 188 574 231 522 q 146 700 146 626 q 150 753 146 726 m 178 753 q 174 707 174 728 q 242 565 174 615 q 429 515 310 515 q 652 570 564 515 q 758 725 740 625 q 763 772 763 750 q 694 913 763 864 q 508 963 626 963 q 285 908 375 963 q 178 753 196 854 m 64 260 q 58 206 58 221 q 133 46 58 101 q 336 -10 207 -10 q 581 53 482 -10 q 700 232 679 115 q 704 283 704 260 q 626 440 704 389 q 425 490 549 490 q 185 434 285 490 q 64 260 85 378 z "},"9":{"ha":853,"x_min":75,"x_max":778,"o":"m 110 253 q 158 77 104 140 q 325 14 213 14 q 597 144 492 14 q 742 565 703 274 q 603 392 704 457 q 378 328 501 328 q 177 394 247 328 q 107 581 107 461 q 115 667 107 621 q 232 894 139 801 q 486 988 325 988 q 711 908 644 988 q 778 689 778 828 q 758 507 778 617 q 610 124 715 258 q 321 -11 506 -11 q 135 60 196 -11 q 82 253 75 131 l 110 253 m 746 638 q 753 707 753 676 q 687 890 753 817 q 482 963 621 963 q 259 883 351 963 q 143 667 167 804 q 135 583 135 624 q 200 412 135 471 q 382 353 265 353 q 537 385 460 353 q 672 481 614 417 q 746 638 729 544 z "},"\u0000":{"ha":0,"x_min":0,"x_max":0,"o":""},"\r":{"ha":403,"x_min":0,"x_max":0,"o":""}," ":{"ha":403,"x_min":0,"x_max":0,"o":""},"अ":{"ha":1133,"x_min":83,"x_max":1272,"o":"m 1272 1028 l 1269 1006 l 1044 1006 l 867 0 l 843 0 l 938 535 l 590 536 q 640 469 622 510 q 657 379 657 428 q 653 331 657 356 q 544 139 632 211 q 331 67 456 67 q 151 127 219 67 q 83 288 83 188 q 88 339 83 313 l 111 339 q 107 292 107 314 q 169 144 107 200 q 333 89 231 89 q 529 156 449 89 q 629 331 610 222 q 633 376 633 354 q 581 512 633 457 q 417 567 529 567 l 369 567 l 374 589 l 421 589 q 557 619 499 589 q 649 697 615 650 q 692 794 683 744 q 696 839 696 818 q 639 971 696 924 q 493 1018 582 1018 q 304 959 386 1018 q 206 801 222 900 l 182 801 q 290 976 201 913 q 497 1040 379 1040 q 659 988 597 1040 q 721 844 721 935 q 717 800 721 824 q 643 655 701 714 q 488 579 585 596 l 488 578 q 558 557 528 574 l 942 557 l 1025 1028 l 1272 1028 z "},"आ":{"ha":1510,"x_min":83,"x_max":1649,"o":"m 1272 1028 l 1269 1006 l 1044 1006 l 867 0 l 843 0 l 938 535 l 590 536 q 640 469 622 510 q 657 379 657 428 q 653 331 657 356 q 544 139 632 211 q 331 67 456 67 q 151 127 219 67 q 83 288 83 188 q 88 339 83 313 l 111 339 q 107 292 107 314 q 169 144 107 200 q 333 89 231 89 q 529 156 449 89 q 629 331 610 222 q 633 376 633 354 q 581 512 633 457 q 417 567 529 567 l 369 567 l 374 589 l 421 589 q 557 619 499 589 q 649 697 615 650 q 692 794 683 744 q 696 839 696 818 q 639 971 696 924 q 493 1018 582 1018 q 304 959 386 1018 q 206 801 222 900 l 182 801 q 290 976 201 913 q 497 1040 379 1040 q 659 988 597 1040 q 721 844 721 935 q 717 800 721 824 q 643 655 701 714 q 488 579 585 596 l 488 578 q 558 557 528 574 l 942 557 l 1025 1028 l 1272 1028 m 1396 1006 l 1171 1006 l 1175 1028 l 1649 1028 l 1644 1006 l 1419 1006 l 1243 0 l 1219 0 l 1396 1006 z "},"इ":{"ha":808,"x_min":26,"x_max":976,"o":"m 736 1006 l 696 781 l 692 758 l 457 758 q 280 724 356 758 q 189 596 204 689 q 186 563 186 583 q 238 467 186 497 q 371 436 289 436 l 433 436 q 610 394 540 436 q 681 257 681 351 q 676 208 681 236 q 585 50 660 113 q 382 -12 510 -12 q 233 19 290 -12 q 149 92 175 50 q 119 167 122 133 l 74 -97 l 51 -97 l 113 256 l 133 256 q 191 78 126 147 q 386 10 256 10 q 569 67 499 10 q 653 208 639 124 q 657 253 657 232 q 591 377 657 340 q 428 414 525 414 l 365 414 q 218 451 274 414 q 163 561 163 488 q 165 596 163 583 q 263 738 182 696 q 450 781 344 781 l 672 781 l 713 1006 l 26 1006 l 29 1028 l 976 1028 l 974 1006 l 736 1006 z "},"ई":{"ha":808,"x_min":26,"x_max":1122,"o":"m 969 1381 q 1082 1340 1042 1381 q 1122 1233 1122 1300 q 1118 1192 1122 1213 l 1096 1192 q 1099 1228 1099 1204 q 1063 1322 1099 1286 q 965 1358 1028 1358 q 829 1303 882 1358 q 758 1142 776 1247 l 739 1028 l 976 1028 l 974 1006 l 736 1006 l 696 781 l 692 758 l 457 758 q 280 724 356 758 q 189 596 204 689 q 186 563 186 583 q 238 467 186 497 q 371 436 289 436 l 433 436 q 610 394 540 436 q 681 257 681 351 q 676 208 681 236 q 585 50 660 113 q 382 -12 510 -12 q 233 19 290 -12 q 149 92 175 50 q 119 167 122 133 l 74 -97 l 51 -97 l 113 256 l 133 256 q 191 78 126 147 q 386 10 256 10 q 569 67 499 10 q 653 208 639 124 q 657 253 657 232 q 591 377 657 340 q 428 414 525 414 l 365 414 q 218 451 274 414 q 163 561 163 488 q 165 596 163 583 q 263 738 182 696 q 450 781 344 781 l 672 781 l 713 1006 l 26 1006 l 29 1028 l 715 1028 l 736 1143 q 817 1320 757 1260 q 969 1381 878 1381 z "},"उ":{"ha":811,"x_min":38,"x_max":950,"o":"m 946 1006 l 735 1006 l 700 808 q 624 662 685 722 q 485 590 564 601 l 483 589 q 618 510 571 574 q 665 358 665 447 q 660 300 665 339 q 597 147 644 214 q 476 41 550 79 q 313 3 403 3 q 171 35 232 3 q 76 123 110 67 q 43 250 43 179 q 47 301 43 275 l 71 301 q 67 254 67 276 q 99 137 67 189 q 188 55 131 85 q 317 25 244 25 q 526 102 439 25 q 636 300 614 179 q 642 356 642 336 q 585 513 642 449 q 406 576 528 576 l 358 576 l 363 599 l 410 599 q 592 660 524 599 q 678 813 661 722 l 711 1006 l 38 1006 l 42 1028 l 950 1028 l 946 1006 z "},"ऊ":{"ha":1217,"x_min":38,"x_max":1356,"o":"m 700 808 q 624 662 685 722 q 485 590 564 601 l 483 589 l 807 589 q 1008 537 931 589 q 1085 374 1085 485 q 1079 315 1085 343 q 965 112 1054 175 q 758 49 876 49 q 708 51 742 49 l 713 72 q 763 69 749 69 q 952 128 872 69 q 1056 315 1032 186 q 1061 371 1061 342 q 990 520 1061 474 q 804 567 918 567 l 551 567 q 636 483 607 538 q 665 358 665 428 q 660 300 665 339 q 597 147 644 214 q 476 41 550 79 q 313 3 403 3 q 171 35 232 3 q 76 123 110 67 q 43 250 43 179 q 47 301 43 275 l 71 301 q 67 254 67 276 q 99 137 67 189 q 188 55 131 85 q 317 25 244 25 q 526 102 439 25 q 636 300 614 179 q 642 356 642 336 q 585 513 642 449 q 406 576 528 576 l 358 576 l 363 599 l 410 599 q 592 660 524 599 q 678 813 661 722 l 711 1006 l 38 1006 l 42 1028 l 1356 1028 l 1351 1006 l 735 1006 l 700 808 z "},"ऋ":{"ha":1381,"x_min":38,"x_max":1519,"o":"m 829 1006 l 757 592 l 1047 592 q 1208 699 1178 592 l 1232 831 l 1256 831 l 1172 357 l 1168 335 l 1151 335 q 993 281 1057 335 q 915 144 929 226 q 911 101 911 122 q 958 -6 911 29 q 1079 -42 1004 -42 q 1161 -28 1122 -42 l 1157 -50 q 1120 -60 1144 -56 q 1075 -64 1096 -64 q 940 -24 993 -64 q 888 97 888 17 q 892 144 888 119 q 977 295 908 235 q 1149 357 1046 356 l 1197 632 q 1042 569 1146 569 l 753 569 l 653 0 l 629 0 l 721 524 l 142 0 l 117 0 l 118 6 l 725 554 l 726 579 q 664 742 726 679 q 492 806 601 806 q 328 767 404 806 q 199 657 251 729 q 131 489 147 585 l 107 489 q 181 668 125 592 q 319 786 238 744 q 493 828 400 828 q 661 778 597 828 q 742 644 725 728 l 806 1006 l 38 1006 l 42 1028 l 1519 1028 l 1515 1006 l 829 1006 z "},"ॠ":{"ha":1381,"x_min":38,"x_max":1519,"o":"m 829 1006 l 756 592 l 1046 592 q 1213 722 1190 592 l 1224 789 l 1225 789 l 1232 831 l 1256 831 l 1172 357 l 1168 335 l 1107 335 q 989 303 1040 335 q 925 200 938 271 q 922 172 922 181 q 963 94 922 119 q 1069 68 1003 68 l 1121 68 l 1117 46 l 1056 46 q 938 14 989 46 q 874 -89 886 -18 q 871 -117 871 -108 q 911 -195 871 -169 q 1018 -221 951 -221 q 1092 -214 1054 -221 q 1153 -199 1129 -207 l 1149 -221 q 1089 -237 1126 -231 q 1014 -243 1051 -243 q 894 -212 940 -243 q 847 -121 847 -182 q 850 -89 847 -111 q 900 8 861 -29 q 989 56 939 46 l 990 58 q 923 98 947 69 q 899 169 899 126 q 901 200 899 178 q 975 318 917 279 q 1111 357 1033 357 l 1149 357 l 1197 635 q 1040 569 1146 569 l 751 569 l 651 0 l 628 0 l 721 525 l 140 0 l 115 0 l 117 6 l 725 554 l 726 578 q 663 742 726 679 q 490 806 600 806 q 326 767 403 806 q 198 657 250 729 q 129 489 146 585 l 106 489 q 180 668 124 592 q 317 786 236 744 q 492 828 399 828 q 660 778 596 828 q 742 643 725 728 l 806 1006 l 38 1006 l 42 1028 l 1519 1028 l 1515 1006 l 829 1006 z "},"ऌ":{"ha":1243,"x_min":38,"x_max":1382,"o":"m 969 1006 l 929 778 q 1074 710 1025 772 q 1124 547 1124 647 q 1118 474 1124 507 q 1071 335 1106 394 l 1060 335 q 901 281 965 335 q 824 144 838 226 q 819 101 819 122 q 866 -6 819 29 q 988 -42 913 -42 q 1069 -28 1031 -42 l 1065 -50 q 1028 -60 1053 -56 q 983 -64 1004 -64 q 849 -24 901 -64 q 796 97 796 17 q 800 144 796 119 q 885 295 817 235 q 1057 357 954 356 q 1094 474 1085 418 q 1101 549 1101 518 q 1054 699 1101 642 q 915 756 1007 756 q 717 666 797 756 q 617 421 636 576 l 615 410 l 592 410 l 593 421 q 600 521 600 481 q 558 694 600 633 q 426 756 515 756 q 233 677 310 756 q 135 474 157 599 q 128 399 128 429 q 188 231 128 293 q 365 168 247 168 q 410 171 376 168 l 406 147 q 358 144 372 144 q 169 213 233 144 q 104 394 104 281 q 111 474 104 428 q 217 694 135 610 q 425 778 299 778 q 543 742 499 778 q 606 651 588 706 q 621 538 624 596 l 624 538 q 724 705 656 635 q 906 778 793 775 l 946 1006 l 38 1006 l 42 1028 l 1382 1028 l 1378 1006 l 969 1006 z "},"ॡ":{"ha":1254,"x_min":49,"x_max":1393,"o":"m 971 1006 l 931 778 q 1075 710 1026 772 q 1124 547 1124 647 q 1118 474 1124 507 q 1072 335 1106 397 l 1011 335 q 893 303 944 335 q 829 200 842 271 q 826 172 826 181 q 867 94 826 119 q 974 68 907 68 l 1025 68 l 1021 46 l 960 46 q 842 14 893 46 q 778 -89 790 -18 q 775 -117 775 -108 q 815 -195 775 -169 q 922 -221 856 -221 q 996 -214 958 -221 q 1057 -199 1033 -207 l 1053 -221 q 993 -237 1031 -231 q 918 -243 956 -243 q 798 -212 844 -243 q 751 -119 751 -181 q 794 -2 751 -49 q 893 56 836 44 l 894 58 q 827 98 851 69 q 803 169 803 126 q 806 200 803 178 q 879 318 821 279 q 1015 357 938 357 l 1058 357 q 1094 474 1085 414 q 1101 549 1101 518 q 1054 699 1101 642 q 915 756 1007 756 q 717 666 797 756 q 617 421 636 576 l 615 410 l 592 410 l 593 421 q 600 521 600 481 q 558 694 600 633 q 426 756 515 756 q 233 677 310 756 q 135 474 157 599 q 128 399 128 429 q 188 231 128 293 q 365 168 247 168 q 410 171 376 168 l 406 147 q 358 144 372 144 q 169 213 233 144 q 104 394 104 281 q 111 474 104 428 q 217 694 135 610 q 425 778 299 778 q 543 742 499 778 q 606 651 588 706 q 621 538 624 596 l 624 538 q 724 705 656 635 q 907 778 793 775 l 947 1006 l 49 1006 l 53 1028 l 1393 1028 l 1389 1006 l 971 1006 z "},"ए":{"ha":903,"x_min":36,"x_max":1042,"o":"m 1038 1006 l 851 1006 l 815 800 q 728 593 790 657 q 550 529 665 529 l 518 531 l 522 553 q 553 551 533 551 q 713 610 657 551 q 792 800 768 669 l 828 1006 l 275 1006 l 165 386 q 156 294 156 331 q 222 114 156 179 q 415 49 289 49 q 630 126 549 49 q 735 347 711 204 l 758 347 q 644 110 733 194 q 411 26 556 26 q 203 97 274 26 q 132 292 132 167 q 142 386 132 328 l 251 1006 l 36 1006 l 40 1028 l 1042 1028 l 1038 1006 z "},"ऐ":{"ha":903,"x_min":36,"x_max":1042,"o":"m 1038 1006 l 851 1006 l 815 800 q 728 593 790 657 q 550 529 665 529 l 518 531 l 522 553 q 553 551 533 551 q 713 610 657 551 q 792 800 768 669 l 828 1006 l 275 1006 l 165 386 q 156 294 156 331 q 222 114 156 179 q 415 49 289 49 q 630 126 549 49 q 735 347 711 204 l 758 347 q 644 110 733 194 q 411 26 556 26 q 203 97 274 26 q 132 292 132 167 q 142 386 132 328 l 251 1006 l 36 1006 l 40 1028 l 829 1028 q 722 1224 768 1164 q 629 1301 675 1285 q 500 1317 583 1317 l 456 1317 l 460 1339 l 504 1339 q 641 1322 592 1339 q 740 1239 690 1304 q 854 1028 789 1174 l 1042 1028 l 1038 1006 z "},"ओ":{"ha":1510,"x_min":83,"x_max":1649,"o":"m 1272 1028 l 1269 1006 l 1044 1006 l 867 0 l 843 0 l 938 535 l 590 536 q 640 469 622 510 q 657 379 657 428 q 653 331 657 356 q 544 139 632 211 q 331 67 456 67 q 151 127 219 67 q 83 288 83 188 q 88 339 83 313 l 111 339 q 107 292 107 314 q 169 144 107 200 q 333 89 231 89 q 529 156 449 89 q 629 331 610 222 q 633 376 633 354 q 581 512 633 457 q 417 567 529 567 l 369 567 l 374 589 l 421 589 q 557 619 499 589 q 649 697 615 650 q 692 794 683 744 q 696 839 696 818 q 639 971 696 924 q 493 1018 582 1018 q 304 959 386 1018 q 206 801 222 900 l 182 801 q 290 976 201 913 q 497 1040 379 1040 q 659 988 597 1040 q 721 844 721 935 q 717 800 721 824 q 643 655 701 714 q 488 579 585 596 l 488 578 q 558 557 528 574 l 942 557 l 1025 1028 l 1272 1028 m 1396 1006 l 1171 1006 l 1175 1028 l 1649 1028 l 1644 1006 l 1419 1006 l 1243 0 l 1219 0 l 1396 1006 m 1515 1024 q 1406 1222 1453 1161 q 1314 1300 1360 1283 q 1185 1317 1268 1317 l 1140 1317 l 1144 1339 l 1189 1339 q 1326 1322 1278 1339 q 1424 1238 1375 1304 q 1540 1024 1474 1172 l 1515 1024 z "},"औ":{"ha":1510,"x_min":83,"x_max":1649,"o":"m 1272 1028 l 1269 1006 l 1044 1006 l 867 0 l 843 0 l 938 535 l 590 536 q 640 469 622 510 q 657 379 657 428 q 653 331 657 356 q 544 139 632 211 q 331 67 456 67 q 151 127 219 67 q 83 288 83 188 q 88 339 83 313 l 111 339 q 107 292 107 314 q 169 144 107 200 q 333 89 231 89 q 529 156 449 89 q 629 331 610 222 q 633 376 633 354 q 581 512 633 457 q 417 567 529 567 l 369 567 l 374 589 l 421 589 q 557 619 499 589 q 649 697 615 650 q 692 794 683 744 q 696 839 696 818 q 639 971 696 924 q 493 1018 582 1018 q 304 959 386 1018 q 206 801 222 900 l 182 801 q 290 976 201 913 q 497 1040 379 1040 q 659 988 597 1040 q 721 844 721 935 q 717 800 721 824 q 643 655 701 714 q 488 579 585 596 l 488 578 q 558 557 528 574 l 942 557 l 1025 1028 l 1272 1028 m 1396 1006 l 1171 1006 l 1175 1028 l 1649 1028 l 1644 1006 l 1419 1006 l 1243 0 l 1219 0 l 1396 1006 m 1204 1408 q 1341 1388 1293 1408 q 1436 1286 1389 1367 q 1544 1024 1483 1206 l 1522 1024 q 1399 1138 1450 1103 q 1299 1182 1347 1172 q 1167 1192 1250 1192 l 1122 1192 l 1126 1214 l 1171 1214 q 1301 1206 1254 1214 q 1398 1165 1349 1197 q 1511 1061 1447 1133 q 1414 1282 1457 1214 q 1326 1368 1371 1350 q 1201 1386 1282 1386 l 1157 1386 l 1160 1408 l 1204 1408 z "},"ऍ":{"ha":904,"x_min":4,"x_max":1010,"o":"m 543 1186 q 389 1237 440 1186 q 338 1357 338 1288 q 340 1388 338 1368 l 363 1388 q 360 1361 360 1371 q 406 1253 360 1299 q 547 1208 453 1208 q 671 1235 618 1208 q 755 1303 724 1263 q 793 1388 786 1344 l 815 1388 q 773 1294 807 1340 q 680 1217 739 1247 q 543 1186 621 1186 m 1006 1006 l 819 1006 l 783 800 q 696 593 758 657 q 518 529 633 529 l 486 531 l 490 553 q 521 551 501 551 q 681 610 625 551 q 760 800 736 669 l 796 1006 l 243 1006 l 133 386 q 124 294 124 331 q 190 114 124 179 q 383 49 257 49 q 598 126 517 49 q 703 347 679 204 l 726 347 q 613 110 701 194 q 379 26 524 26 q 171 97 242 26 q 100 292 100 167 q 110 386 100 328 l 219 1006 l 4 1006 l 8 1028 l 1010 1028 l 1006 1006 z "},"ॲ":{"ha":1133,"x_min":83,"x_max":1478,"o":"m 1272 1028 l 1269 1006 l 1044 1006 l 867 0 l 843 0 l 938 535 l 590 536 q 640 469 622 510 q 657 379 657 428 q 653 331 657 356 q 544 139 632 211 q 331 67 456 67 q 151 127 219 67 q 83 288 83 188 q 88 339 83 313 l 111 339 q 107 292 107 314 q 169 144 107 200 q 333 89 231 89 q 529 156 449 89 q 629 331 610 222 q 633 376 633 354 q 581 512 633 457 q 417 567 529 567 l 369 567 l 374 589 l 421 589 q 557 619 499 589 q 649 697 615 650 q 692 794 683 744 q 696 839 696 818 q 639 971 696 924 q 493 1018 582 1018 q 304 959 386 1018 q 206 801 222 900 l 182 801 q 290 976 201 913 q 497 1040 379 1040 q 659 988 597 1040 q 721 844 721 935 q 717 800 721 824 q 643 655 701 714 q 488 579 585 596 l 488 578 q 558 557 528 574 l 942 557 l 1025 1028 l 1272 1028 m 1211 1186 q 1053 1238 1107 1186 q 1000 1358 1000 1289 q 1003 1388 1000 1368 l 1025 1388 q 1022 1360 1022 1371 q 1069 1253 1022 1297 q 1208 1208 1115 1208 q 1333 1235 1279 1208 q 1417 1303 1386 1263 q 1456 1388 1449 1344 l 1478 1388 q 1435 1293 1468 1339 q 1346 1217 1403 1247 q 1211 1186 1289 1186 z "},"ऑ":{"ha":1510,"x_min":83,"x_max":1653,"o":"m 1272 1028 l 1269 1006 l 1044 1006 l 867 0 l 843 0 l 938 535 l 590 536 q 640 469 622 510 q 657 379 657 428 q 653 331 657 356 q 544 139 632 211 q 331 67 456 67 q 151 127 219 67 q 83 288 83 188 q 88 339 83 313 l 111 339 q 107 292 107 314 q 169 144 107 200 q 333 89 231 89 q 529 156 449 89 q 629 331 610 222 q 633 376 633 354 q 581 512 633 457 q 417 567 529 567 l 369 567 l 374 589 l 421 589 q 557 619 499 589 q 649 697 615 650 q 692 794 683 744 q 696 839 696 818 q 639 971 696 924 q 493 1018 582 1018 q 304 959 386 1018 q 206 801 222 900 l 182 801 q 290 976 201 913 q 497 1040 379 1040 q 659 988 597 1040 q 721 844 721 935 q 717 800 721 824 q 643 655 701 714 q 488 579 585 596 l 488 578 q 558 557 528 574 l 942 557 l 1025 1028 l 1272 1028 m 1396 1006 l 1171 1006 l 1175 1028 l 1649 1028 l 1644 1006 l 1419 1006 l 1243 0 l 1219 0 l 1396 1006 m 1386 1186 q 1228 1238 1282 1186 q 1175 1358 1175 1289 q 1178 1388 1175 1368 l 1200 1388 q 1197 1360 1197 1371 q 1244 1253 1197 1297 q 1383 1208 1290 1208 q 1508 1235 1454 1208 q 1592 1303 1561 1263 q 1631 1388 1624 1344 l 1653 1388 q 1610 1293 1643 1339 q 1521 1217 1578 1247 q 1386 1186 1464 1186 z "},"ा":{"ha":376,"x_min":38,"x_max":515,"o":"m 263 1006 l 38 1006 l 42 1028 l 515 1028 l 511 1006 l 286 1006 l 110 0 l 86 0 l 263 1006 z "},"ि":{"ha":376,"x_min":38,"x_max":1257,"o":"m 814 1340 q 1126 1283 994 1340 q 1257 1090 1257 1226 q 1253 1042 1257 1067 l 1249 1018 l 1225 1018 l 1229 1042 q 1233 1085 1233 1065 q 1106 1265 1233 1213 q 810 1318 978 1318 q 465 1260 613 1318 q 290 1035 317 1203 l 289 1028 l 515 1028 l 511 1006 l 286 1006 l 108 0 l 85 0 l 263 1006 l 38 1006 l 42 1028 l 265 1028 l 267 1035 q 449 1277 294 1214 q 814 1340 604 1340 z "},"ी":{"ha":375,"x_min":-112,"x_max":514,"o":"m 514 1028 l 511 1006 l 286 1006 l 108 0 l 85 0 l 263 1006 l 38 1006 l 40 1028 l 265 1028 l 278 1092 q 285 1164 285 1133 q 251 1276 285 1235 q 142 1318 217 1318 q -3 1256 49 1318 q -75 1092 -56 1193 l -89 1019 l -112 1019 l -99 1092 q -17 1271 -78 1201 q 146 1340 43 1340 q 269 1294 231 1340 q 308 1168 308 1249 q 301 1092 308 1125 l 289 1028 l 514 1028 z "},"ु":{"ha":0,"x_min":-656,"x_max":-124,"o":"m -412 -367 q -588 -317 -521 -367 q -656 -171 -656 -267 q -647 -104 -656 -140 l -625 -104 q -633 -169 -633 -140 q -572 -301 -633 -257 q -408 -344 -510 -344 q -235 -296 -306 -344 q -150 -158 -165 -247 q -147 -128 -147 -139 q -180 -37 -147 -74 q -271 0 -212 0 l -290 0 l -286 22 l -267 22 q -162 -21 -200 22 q -124 -126 -124 -64 q -126 -161 -124 -150 q -220 -312 -144 -258 q -412 -367 -296 -367 z "},"ू":{"ha":0,"x_min":-539,"x_max":-11,"o":"m -362 -364 q -488 -322 -437 -364 q -539 -210 -539 -279 q -536 -176 -539 -187 q -451 -32 -521 -86 q -275 22 -381 22 q -85 -47 -158 22 q -11 -240 -11 -115 q -21 -335 -11 -287 l -25 -353 l -47 -353 l -42 -324 q -33 -243 -33 -281 q -100 -65 -33 -129 q -274 0 -167 0 q -399 -27 -344 0 q -485 -101 -454 -54 q -515 -208 -515 -149 q -473 -304 -515 -268 q -362 -340 -431 -340 q -314 -336 -339 -340 l -318 -360 q -362 -364 -339 -364 z "},"ृ":{"ha":0,"x_min":-546,"x_max":-256,"o":"m -353 -399 q -489 -349 -432 -399 q -546 -218 -546 -300 q -512 -95 -546 -150 q -419 -9 -479 -40 q -279 22 -358 22 l -264 22 l -267 0 l -283 0 q -409 -28 -354 0 q -493 -105 -464 -56 q -522 -215 -522 -154 q -472 -333 -522 -290 q -349 -376 -421 -376 q -256 -362 -300 -376 l -260 -385 q -302 -394 -275 -390 q -353 -399 -329 -399 z "},"ॄ":{"ha":0,"x_min":-587,"x_max":-264,"o":"m -419 -578 q -540 -544 -493 -578 q -587 -447 -587 -510 q -585 -417 -587 -439 q -535 -324 -574 -360 q -444 -279 -496 -289 l -444 -276 q -512 -237 -487 -265 q -536 -165 -536 -208 q -533 -135 -536 -157 q -460 -17 -518 -56 q -324 22 -401 22 l -264 22 l -267 0 l -328 0 q -446 -32 -394 0 q -510 -135 -497 -64 q -512 -162 -512 -154 q -472 -241 -512 -215 q -365 -267 -432 -267 l -314 -267 l -317 -289 l -378 -289 q -498 -319 -446 -289 q -561 -417 -550 -350 q -564 -443 -564 -436 q -522 -526 -564 -497 q -415 -556 -481 -556 q -343 -549 -381 -556 q -281 -533 -306 -543 l -285 -556 q -345 -572 -308 -565 q -419 -578 -382 -578 z "},"ॢ":{"ha":0,"x_min":-682,"x_max":43,"o":"m -101 -28 q 6 -72 -31 -28 q 43 -189 43 -115 q 38 -246 43 -207 q 6 -343 28 -301 l -3 -343 q -126 -390 -78 -343 q -174 -503 -174 -437 q -139 -580 -174 -554 q -53 -606 -104 -606 q 6 -596 -18 -606 l 1 -618 q -57 -626 -24 -626 q -156 -597 -117 -626 q -196 -510 -196 -567 q -144 -378 -196 -432 q -7 -322 -92 -325 q 15 -246 10 -282 q 21 -190 21 -207 q -11 -87 21 -125 q -108 -49 -43 -49 q -240 -110 -187 -49 q -314 -282 -292 -172 l -315 -289 l -337 -289 l -336 -282 q -328 -203 -328 -239 q -360 -89 -328 -129 q -454 -49 -393 -49 q -587 -103 -535 -49 q -656 -246 -640 -158 q -660 -296 -660 -271 q -618 -413 -660 -369 q -494 -457 -576 -457 q -464 -454 -478 -457 l -468 -475 q -501 -478 -482 -478 q -636 -429 -590 -478 q -682 -300 -682 -381 q -678 -246 -682 -274 q -600 -88 -661 -149 q -450 -28 -539 -28 q -341 -79 -374 -28 q -312 -199 -308 -131 l -310 -199 q -236 -78 -287 -129 q -101 -28 -185 -28 z "},"ॣ":{"ha":0,"x_min":-682,"x_max":43,"o":"m -101 -28 q 6 -72 -31 -28 q 43 -189 43 -115 q 38 -246 43 -207 q 6 -343 28 -301 l -39 -343 q -126 -370 -89 -343 q -164 -456 -164 -397 q -137 -512 -164 -494 q -64 -531 -110 -531 l -29 -531 l -32 -551 l -69 -551 q -155 -573 -118 -551 q -200 -644 -192 -594 q -201 -662 -201 -650 q -174 -717 -201 -699 q -100 -735 -146 -735 q -6 -718 -47 -735 l -8 -739 q -103 -754 -51 -754 q -189 -732 -156 -754 q -222 -665 -222 -710 q -219 -643 -222 -660 q -183 -575 -211 -601 q -121 -542 -156 -549 l -121 -540 q -185 -458 -185 -522 q -183 -436 -185 -444 q -131 -351 -174 -379 q -35 -322 -89 -322 l -7 -322 q 15 -246 10 -282 q 21 -190 21 -207 q -11 -87 21 -125 q -108 -49 -43 -49 q -240 -110 -187 -49 q -314 -282 -292 -172 l -315 -289 l -337 -289 l -336 -282 q -328 -203 -328 -239 q -360 -89 -328 -129 q -454 -49 -393 -49 q -587 -103 -535 -49 q -656 -246 -640 -158 q -660 -296 -660 -271 q -618 -413 -660 -369 q -494 -457 -576 -457 q -464 -454 -478 -457 l -468 -475 q -501 -478 -482 -478 q -636 -429 -590 -478 q -682 -300 -682 -381 q -678 -246 -682 -274 q -600 -88 -661 -149 q -450 -28 -539 -28 q -341 -79 -374 -28 q -312 -199 -308 -131 l -310 -199 q -236 -78 -287 -129 q -101 -28 -185 -28 z "},"े":{"ha":0,"x_min":-485,"x_max":-85,"o":"m -110 1024 q -219 1222 -172 1161 q -311 1300 -265 1283 q -440 1317 -357 1317 l -485 1317 l -481 1339 l -436 1339 q -299 1322 -347 1339 q -201 1238 -250 1304 q -85 1024 -151 1172 l -110 1024 z "},"ै":{"ha":0,"x_min":-508,"x_max":-86,"o":"m -426 1408 q -290 1388 -337 1408 q -194 1286 -242 1367 q -86 1024 -147 1206 l -108 1024 q -232 1138 -181 1103 q -332 1182 -283 1172 q -464 1192 -381 1192 l -508 1192 l -504 1214 l -460 1214 q -329 1206 -376 1214 q -233 1165 -282 1197 q -119 1061 -183 1133 q -217 1282 -174 1214 q -304 1368 -260 1350 q -429 1386 -349 1386 l -474 1386 l -471 1408 l -426 1408 z "},"ो":{"ha":376,"x_min":-110,"x_max":515,"o":"m 515 1028 l 511 1006 l 286 1006 l 108 0 l 85 0 l 263 1006 l 38 1006 l 42 1028 l 264 1028 q 156 1224 201 1164 q 64 1301 110 1285 q -65 1317 18 1317 l -110 1317 l -106 1339 l -61 1339 q 76 1322 26 1339 q 174 1239 125 1304 q 289 1028 224 1174 l 515 1028 z "},"ौ":{"ha":376,"x_min":-164,"x_max":482,"o":"m 482 1028 l 478 1006 l 253 1006 l 76 0 l 53 0 l 229 1006 l 4 1006 l 8 1028 l 232 1028 q 110 1139 161 1104 q 12 1183 60 1174 q -119 1192 -36 1192 l -164 1192 l -160 1214 l -115 1214 q 15 1206 -32 1214 q 112 1165 63 1197 q 225 1061 161 1133 q 128 1282 171 1214 q 40 1368 85 1350 q -85 1386 -4 1386 l -129 1386 l -126 1408 l -82 1408 q 55 1388 7 1408 q 150 1287 103 1367 q 257 1028 197 1207 l 482 1028 z "},"ॅ":{"ha":0,"x_min":-283,"x_max":194,"o":"m -72 1144 q -230 1196 -176 1144 q -283 1317 -283 1247 q -281 1346 -283 1326 l -258 1346 q -261 1318 -261 1329 q -215 1211 -261 1256 q -75 1167 -168 1167 q 49 1194 -4 1167 q 134 1262 103 1221 q 172 1346 165 1303 l 194 1346 q 152 1251 185 1297 q 63 1175 119 1206 q -72 1144 6 1144 z "},"ॉ":{"ha":376,"x_min":38,"x_max":572,"o":"m 306 1144 q 148 1196 201 1144 q 94 1317 94 1247 q 97 1346 94 1326 l 119 1346 q 117 1318 117 1329 q 163 1211 117 1256 q 303 1167 210 1167 q 427 1194 374 1167 q 512 1262 481 1221 q 550 1346 543 1303 l 572 1346 q 530 1251 563 1297 q 440 1175 497 1206 q 306 1144 383 1144 m 263 1006 l 38 1006 l 42 1028 l 515 1028 l 511 1006 l 286 1006 l 110 0 l 86 0 l 263 1006 z "},"क":{"ha":1418,"x_min":38,"x_max":1557,"o":"m 813 1006 l 743 614 q 865 756 788 700 q 1053 811 943 811 q 1233 744 1163 811 q 1303 564 1303 678 q 1297 499 1303 531 q 1228 326 1279 399 q 1105 215 1178 253 q 947 176 1032 176 q 869 185 906 176 l 874 207 q 951 199 907 199 q 1094 234 1026 199 q 1210 338 1163 269 q 1274 499 1257 406 q 1279 561 1279 528 q 1215 728 1279 667 q 1051 789 1151 789 q 890 747 960 789 q 780 639 821 704 q 724 501 739 574 l 636 0 l 614 0 l 679 369 q 555 231 636 285 q 365 176 474 176 q 179 243 250 176 q 108 426 108 310 q 115 499 108 457 q 185 664 132 593 q 313 773 238 735 q 472 811 389 811 q 646 756 583 811 q 722 615 708 701 l 790 1006 l 38 1006 l 42 1028 l 1557 1028 l 1553 1006 l 813 1006 m 367 199 q 529 241 460 199 q 640 347 599 283 q 697 478 682 411 l 701 501 q 706 556 706 529 q 649 722 706 654 q 471 789 592 789 q 324 753 394 789 q 204 652 254 718 q 139 499 154 586 q 133 431 133 467 q 197 260 133 321 q 367 199 261 199 z "},"ख":{"ha":1263,"x_min":38,"x_max":1401,"o":"m 1401 1028 l 1397 1006 l 1172 1006 l 996 0 l 972 0 l 1042 394 q 931 270 1003 319 q 761 221 858 221 q 697 228 729 221 q 557 65 646 129 q 354 0 468 0 q 164 62 233 0 q 94 233 94 124 q 100 297 94 268 l 144 547 l 206 547 q 361 597 292 547 q 454 782 431 647 l 493 1006 l 38 1006 l 42 1028 l 1401 1028 m 1149 1006 l 517 1006 l 478 782 q 376 581 451 636 q 193 525 301 525 l 164 525 l 124 297 q 118 239 118 269 q 182 81 118 139 q 360 22 246 22 q 544 83 460 22 q 675 235 629 144 q 567 313 607 257 q 526 451 526 369 q 531 508 526 479 q 591 655 544 592 q 706 751 638 718 q 851 785 774 785 q 1010 736 953 785 q 1079 613 1067 688 l 1149 1006 m 765 243 q 913 282 850 243 q 1012 381 975 321 q 1060 501 1049 440 q 1065 556 1065 538 q 1012 703 1065 643 q 849 763 958 763 q 717 732 779 763 q 611 644 654 701 q 554 508 568 586 q 549 451 549 469 q 609 299 549 354 q 765 243 669 243 z "},"ग":{"ha":949,"x_min":38,"x_max":1088,"o":"m 1088 1028 l 1083 1006 l 858 1006 l 682 0 l 658 0 l 835 1006 l 524 1006 l 447 575 q 381 435 432 490 q 239 379 329 379 q 125 422 163 379 q 88 531 88 465 q 92 572 88 551 l 100 614 l 124 614 l 115 571 q 111 531 111 550 q 142 438 111 475 q 239 401 172 401 q 366 451 322 401 q 424 575 410 501 l 500 1006 l 38 1006 l 42 1028 l 1088 1028 z "},"घ":{"ha":1001,"x_min":38,"x_max":1140,"o":"m 1136 1006 l 913 1006 l 735 0 l 711 0 l 779 383 q 622 222 725 282 q 394 161 518 161 q 190 214 265 161 q 114 367 114 267 q 118 415 114 390 q 208 569 135 511 q 375 636 282 628 l 375 639 q 263 688 306 647 q 221 807 221 728 q 226 864 221 836 l 253 1006 l 38 1006 l 42 1028 l 1140 1028 l 1136 1006 m 889 1006 l 276 1006 l 250 864 q 244 808 244 825 q 297 689 244 729 q 460 649 349 649 l 535 649 l 531 626 l 456 626 q 237 567 315 626 q 142 415 158 508 q 138 371 138 393 q 209 231 138 278 q 399 183 281 183 q 578 224 493 183 q 723 337 664 264 q 800 501 782 410 l 889 1006 z "},"ङ":{"ha":865,"x_min":39,"x_max":1004,"o":"m 1004 1028 l 1000 1006 l 729 1006 l 689 781 l 685 758 l 450 758 q 185 596 214 758 q 182 564 182 574 q 233 467 182 497 q 364 436 283 436 l 426 436 q 602 392 531 436 q 674 254 674 349 q 669 208 674 233 q 570 49 651 111 q 356 -12 489 -12 q 146 49 218 -12 q 74 208 74 111 q 78 256 74 231 l 101 256 q 97 210 97 233 q 163 65 97 119 q 360 10 228 10 q 555 66 479 10 q 646 208 631 122 q 650 253 650 232 q 584 377 650 340 q 421 414 518 414 l 358 414 q 215 452 272 414 q 158 563 158 490 q 161 597 158 585 q 258 739 179 697 q 440 781 336 781 l 665 781 l 706 1006 l 39 1006 l 43 1028 l 1004 1028 m 808 610 q 831 601 822 610 q 836 576 839 592 q 822 552 833 561 q 796 543 810 543 q 773 552 781 543 q 768 576 765 561 q 782 601 771 592 q 808 610 793 610 z "},"च":{"ha":997,"x_min":38,"x_max":1136,"o":"m 1132 1006 l 908 1006 l 731 0 l 707 0 l 769 353 q 634 214 722 268 q 446 160 546 160 q 260 223 333 160 q 188 394 188 286 q 193 450 188 411 q 277 625 211 551 q 442 729 343 699 l 106 729 l 110 751 l 606 751 l 601 729 l 561 729 q 398 692 471 729 q 278 592 325 656 q 217 450 231 528 q 211 396 211 411 q 278 239 211 296 q 449 182 346 182 q 602 220 529 182 q 724 321 675 258 q 788 456 772 383 l 885 1006 l 38 1006 l 42 1028 l 1136 1028 l 1132 1006 z "},"छ":{"ha":1122,"x_min":35,"x_max":1261,"o":"m 917 1006 l 876 779 q 1006 722 954 776 q 1057 568 1057 668 q 1050 494 1057 539 q 941 254 1025 356 q 732 99 857 153 q 461 46 607 46 q 185 113 290 46 q 79 300 79 179 q 83 349 79 324 q 179 519 103 456 q 356 590 256 582 l 356 593 q 244 642 286 601 q 203 760 203 682 q 208 818 203 790 l 242 1006 l 35 1006 l 38 1028 l 1261 1028 l 1258 1006 l 917 1006 m 893 1006 l 265 1006 l 232 818 q 226 761 226 790 q 278 642 226 682 q 440 603 329 603 l 474 603 l 471 581 l 438 581 q 210 515 294 581 q 107 349 125 450 q 103 303 103 326 q 203 128 103 189 q 464 68 304 68 q 720 120 600 68 q 922 269 840 172 q 1025 493 1003 365 q 1032 563 1032 535 q 982 708 1032 658 q 860 757 932 757 q 713 708 782 757 q 625 551 644 658 q 619 488 619 524 q 626 403 619 451 l 603 403 q 596 483 596 438 q 601 551 596 524 q 694 719 622 664 q 853 779 765 775 l 893 1006 z "},"ज":{"ha":1143,"x_min":38,"x_max":1282,"o":"m 1278 1006 l 1054 1006 l 876 0 l 853 0 l 974 685 l 617 685 l 579 472 q 486 290 558 360 q 306 221 414 221 q 171 275 221 221 q 121 417 121 329 q 126 472 121 433 l 168 707 l 192 707 l 150 471 q 144 415 144 432 q 188 290 144 338 q 308 243 232 243 q 470 306 403 243 q 556 471 538 369 l 597 707 l 978 707 l 1031 1006 l 38 1006 l 42 1028 l 1282 1028 l 1278 1006 z "},"झ":{"ha":1164,"x_min":47,"x_max":1303,"o":"m 1299 1006 l 1074 1006 l 896 0 l 872 0 l 946 415 l 551 417 q 645 359 610 400 q 681 253 681 318 q 676 208 681 232 q 588 59 660 118 q 392 0 515 0 q 247 30 304 0 q 163 97 190 60 q 132 163 136 135 l 85 -99 l 61 -99 l 122 240 l 143 240 q 205 85 142 147 q 397 22 268 22 q 574 76 508 22 q 653 208 639 129 q 657 250 657 232 q 598 371 657 328 q 429 414 539 414 l 367 414 q 219 451 275 414 q 163 561 163 489 q 165 596 163 583 q 263 738 182 696 q 450 781 344 781 l 672 781 l 713 1006 l 47 1006 l 51 1028 l 1303 1028 l 1299 1006 m 1050 1006 l 736 1006 l 696 781 l 692 758 l 457 758 q 281 723 358 758 q 189 596 204 688 q 186 563 186 583 q 238 467 186 497 q 371 436 289 436 l 433 436 l 950 436 l 1050 1006 z "},"ञ":{"ha":1093,"x_min":38,"x_max":1232,"o":"m 1228 1006 l 1003 1006 l 826 0 l 803 0 l 888 482 l 707 482 q 644 327 690 399 q 523 212 597 256 q 350 168 449 168 q 163 233 225 168 q 94 383 101 297 l 118 383 q 181 249 125 306 q 351 192 238 192 q 513 233 442 192 q 627 342 583 274 q 685 492 671 410 q 690 557 690 521 q 631 723 690 658 q 457 788 572 788 q 264 729 342 788 q 156 594 186 671 l 132 594 q 249 746 167 682 q 461 810 332 810 q 651 739 589 810 q 714 560 714 668 q 710 504 714 532 l 892 504 l 979 1006 l 38 1006 l 42 1028 l 1232 1028 l 1228 1006 z "},"ट":{"ha":901,"x_min":31,"x_max":1040,"o":"m 556 774 q 269 687 389 774 q 119 433 150 600 q 114 371 114 406 q 150 235 114 294 q 251 142 186 175 q 401 110 317 110 q 579 152 499 110 q 713 271 660 194 q 782 444 765 347 l 806 444 q 732 258 788 339 q 590 133 676 178 q 397 88 504 88 q 238 123 308 88 q 129 222 168 158 q 90 369 90 286 q 96 435 90 406 q 255 705 128 614 q 560 796 382 796 l 632 796 l 668 1006 l 31 1006 l 35 1028 l 1040 1028 l 1036 1006 l 692 1006 l 650 774 l 556 774 z "},"ठ":{"ha":938,"x_min":31,"x_max":1076,"o":"m 563 1006 l 522 776 q 672 737 607 774 q 772 636 736 700 q 808 492 808 572 q 803 426 808 456 q 725 251 785 328 q 577 131 665 174 q 389 88 489 88 q 234 124 301 88 q 129 224 167 160 q 92 371 92 289 q 97 438 92 408 q 172 610 114 535 q 315 730 229 686 q 499 776 400 774 l 539 1006 l 31 1006 l 35 1028 l 1076 1028 l 1072 1006 l 563 1006 m 779 426 q 785 490 785 456 q 750 628 785 568 q 653 721 715 688 q 507 754 590 754 q 334 714 417 754 q 194 601 251 674 q 121 438 138 529 q 115 375 115 410 q 150 238 115 297 q 248 144 185 178 q 393 110 311 110 q 566 150 483 110 q 706 263 649 190 q 779 426 763 335 z "},"ड":{"ha":810,"x_min":39,"x_max":949,"o":"m 450 758 q 185 596 214 758 q 182 564 182 574 q 233 467 182 497 q 364 436 283 436 l 426 436 q 602 392 531 436 q 674 254 674 349 q 669 208 674 233 q 570 49 651 111 q 356 -12 489 -12 q 146 49 218 -12 q 74 208 74 111 q 78 256 74 231 l 101 256 q 97 210 97 233 q 163 65 97 119 q 360 10 228 10 q 555 66 479 10 q 646 208 631 122 q 650 253 650 232 q 584 377 650 340 q 421 414 518 414 l 358 414 q 215 452 272 414 q 158 563 158 490 q 161 597 158 585 q 258 739 179 697 q 440 781 336 781 l 654 781 l 694 1006 l 39 1006 l 43 1028 l 949 1028 l 944 1006 l 718 1006 l 674 758 l 450 758 z "},"ढ":{"ha":869,"x_min":35,"x_max":1008,"o":"m 575 774 q 369 733 464 774 q 208 610 274 692 q 121 410 142 529 q 114 340 114 371 q 153 190 114 256 q 263 90 192 125 q 426 54 335 54 q 576 85 507 54 q 691 171 646 117 q 749 293 736 225 q 753 333 753 314 q 708 449 753 404 q 589 493 664 493 q 453 447 511 493 q 383 322 394 400 q 381 292 381 303 l 357 292 q 360 324 357 304 q 440 463 375 411 q 593 515 506 515 q 725 465 674 515 q 776 336 776 415 q 772 293 776 317 q 710 158 760 218 q 586 65 661 99 q 422 32 511 32 q 250 70 325 32 q 133 178 175 108 q 90 338 90 247 q 97 408 90 367 q 190 624 119 538 q 360 753 260 711 q 579 796 461 796 l 661 796 l 697 1006 l 35 1006 l 39 1028 l 1008 1028 l 1004 1006 l 721 1006 l 681 774 l 575 774 z "},"ण":{"ha":1139,"x_min":38,"x_max":1278,"o":"m 1274 1006 l 1049 1006 l 872 0 l 849 0 l 1025 1006 l 678 1006 l 599 554 q 508 372 578 442 q 333 303 438 303 q 192 355 243 303 q 140 494 140 407 q 146 554 140 526 l 225 1006 l 38 1006 l 42 1028 l 1278 1028 l 1274 1006 m 654 1006 l 249 1006 l 169 553 q 164 499 164 514 q 208 372 164 419 q 332 325 253 325 q 492 388 426 325 q 575 553 557 451 l 654 1006 z "},"त":{"ha":946,"x_min":38,"x_max":1085,"o":"m 1081 1006 l 857 1006 l 679 0 l 656 0 l 775 676 l 544 676 q 256 595 369 676 q 113 351 142 514 q 106 274 106 306 q 180 90 106 154 q 393 25 254 25 l 426 25 l 422 3 l 389 3 q 163 73 243 3 q 82 272 82 143 q 89 351 82 317 q 241 613 121 526 q 547 699 361 699 l 779 699 l 833 1006 l 38 1006 l 42 1028 l 1085 1028 l 1081 1006 z "},"थ":{"ha":1028,"x_min":132,"x_max":1167,"o":"m 1167 1028 l 1164 1006 l 939 1006 l 761 0 l 738 0 l 803 367 q 731 269 781 317 q 608 190 681 221 q 451 158 536 158 q 217 236 303 158 q 132 444 132 314 q 139 522 132 489 q 150 571 142 538 l 300 571 q 531 622 431 571 q 654 807 631 674 q 658 851 658 831 q 613 972 658 926 q 483 1018 567 1018 q 294 938 364 1018 q 224 729 224 857 l 200 729 q 235 890 200 819 q 334 1001 269 961 q 483 1040 399 1040 q 629 988 576 1040 q 682 854 682 936 q 678 807 682 831 q 548 608 653 667 q 297 549 443 549 l 168 549 q 156 447 156 494 q 235 251 156 321 q 454 181 314 181 q 619 219 540 181 q 751 324 697 257 q 821 476 806 392 l 918 1028 l 1167 1028 z "},"द":{"ha":843,"x_min":38,"x_max":982,"o":"m 978 1006 l 742 1006 l 704 794 l 536 794 q 356 762 440 794 q 214 663 272 729 q 139 497 156 596 q 133 435 133 468 q 199 265 133 328 q 379 201 265 201 q 505 227 440 201 q 619 308 569 253 q 683 446 669 363 l 704 446 l 626 0 l 603 0 l 661 335 q 548 223 626 267 q 376 179 469 179 q 182 249 254 179 q 110 432 110 318 q 115 497 110 468 q 262 737 144 657 q 539 817 379 817 l 683 817 l 718 1006 l 38 1006 l 42 1028 l 982 1028 l 978 1006 z "},"ध":{"ha":963,"x_min":117,"x_max":1101,"o":"m 1099 1006 l 874 1006 l 696 0 l 672 0 l 739 382 q 586 221 685 281 q 369 161 488 161 q 188 214 260 161 q 117 357 117 267 q 121 399 117 376 q 199 539 138 488 q 335 597 260 590 l 335 600 q 228 656 271 611 q 186 775 186 701 q 190 825 186 799 q 276 979 207 918 q 444 1040 346 1040 q 576 996 529 1040 q 624 875 624 951 q 613 796 624 833 l 589 796 q 600 872 600 833 q 558 980 600 942 q 440 1018 517 1018 q 292 962 356 1018 q 214 824 228 906 q 210 779 210 801 q 263 656 210 701 q 421 611 317 611 l 496 611 l 492 589 l 417 589 q 266 558 328 589 q 173 475 204 526 q 142 361 142 424 q 207 230 142 276 q 374 183 272 183 q 546 224 464 183 q 685 336 628 264 q 760 499 743 408 l 851 1017 l 853 1028 l 1101 1028 l 1099 1006 z "},"न":{"ha":1056,"x_min":38,"x_max":1194,"o":"m 1190 1006 l 967 1006 l 789 0 l 765 0 l 888 689 l 489 689 q 573 626 540 672 q 606 514 606 579 q 601 467 606 492 q 500 291 582 360 q 308 222 418 222 q 151 276 210 222 q 92 418 92 331 q 96 464 92 439 q 198 642 115 575 q 401 710 281 710 l 890 710 l 943 1006 l 38 1006 l 42 1028 l 1194 1028 l 1190 1006 m 578 467 q 582 513 582 490 q 529 639 582 590 q 390 688 476 688 q 213 626 288 688 q 119 464 138 564 q 115 419 115 442 q 168 292 115 340 q 313 244 221 244 q 433 274 376 244 q 528 355 490 304 q 578 467 567 406 z "},"प":{"ha":882,"x_min":38,"x_max":1021,"o":"m 1017 1006 l 792 1006 l 615 0 l 592 0 l 678 488 q 563 365 636 410 q 394 321 489 321 q 216 384 278 321 q 154 563 154 447 q 163 651 154 604 l 225 1006 l 38 1006 l 42 1028 l 1021 1028 l 1017 1006 m 768 1006 l 249 1006 l 186 651 q 178 565 178 606 q 233 401 178 458 q 396 343 289 343 q 538 377 475 343 q 642 469 601 411 q 697 597 683 528 l 768 1006 z "},"फ":{"ha":1369,"x_min":38,"x_max":1508,"o":"m 764 1006 l 694 608 q 817 754 738 697 q 1007 811 896 811 q 1185 745 1115 811 q 1254 565 1254 679 q 1249 499 1254 531 q 1180 326 1231 399 q 1056 215 1129 253 q 899 176 982 176 q 821 185 857 176 l 825 207 q 903 199 858 199 q 1047 234 979 199 q 1161 338 1114 269 q 1225 499 1208 406 q 1231 561 1231 528 q 1167 728 1231 667 q 1003 789 1103 789 q 842 746 911 789 q 731 637 772 703 q 675 499 689 571 l 588 0 l 564 0 l 650 490 q 538 366 610 411 q 376 321 467 321 q 209 381 265 321 q 153 553 153 440 q 163 651 153 589 l 225 1006 l 38 1006 l 42 1028 l 1508 1028 l 1504 1006 l 764 1006 m 740 1006 l 249 1006 l 186 651 q 176 554 176 590 q 227 397 176 451 q 382 343 278 343 q 574 419 496 343 q 671 608 651 494 l 740 1006 z "},"ब":{"ha":958,"x_min":38,"x_max":1097,"o":"m 1097 1028 l 1093 1006 l 868 1006 l 692 0 l 668 0 l 735 372 q 601 225 689 283 q 396 167 514 167 q 249 198 315 167 q 146 288 183 229 q 108 428 108 347 q 114 490 108 461 q 188 667 132 592 q 326 783 244 743 q 500 824 408 824 q 690 763 619 824 q 775 613 760 703 l 844 1006 l 38 1006 l 42 1028 l 1097 1028 m 642 286 q 717 385 688 331 q 754 493 746 440 q 760 551 760 519 q 732 675 760 618 q 646 767 704 732 q 500 801 588 801 q 378 781 438 801 q 269 719 318 760 l 642 286 m 138 490 q 132 429 132 463 q 206 253 132 317 q 397 189 281 189 q 626 272 529 189 l 254 706 q 138 490 163 625 z "},"भ":{"ha":1031,"x_min":107,"x_max":1169,"o":"m 1169 1028 l 1167 1006 l 942 1006 l 764 0 l 740 0 l 844 596 l 567 596 l 542 451 q 454 255 519 321 q 292 189 389 189 q 158 236 208 189 q 107 361 107 283 q 111 403 107 381 q 202 559 129 500 q 378 618 275 618 l 547 618 l 575 772 q 583 857 583 818 q 549 975 583 933 q 443 1017 514 1017 q 310 965 367 1017 q 236 822 253 913 q 232 761 232 793 l 208 761 q 213 822 208 793 q 294 982 231 924 q 443 1040 357 1040 q 566 993 525 1040 q 607 857 607 946 q 599 774 607 819 l 571 618 l 849 618 l 921 1028 l 1169 1028 m 544 596 l 375 596 q 217 543 283 596 q 135 403 150 490 q 131 363 131 382 q 175 252 131 293 q 292 211 219 211 q 438 274 378 211 q 518 450 499 336 l 544 596 z "},"म":{"ha":1021,"x_min":38,"x_max":1160,"o":"m 1156 1006 l 931 1006 l 754 0 l 731 0 l 835 596 l 513 596 l 488 451 q 400 255 465 321 q 238 189 335 189 q 103 236 154 189 q 53 361 53 283 q 57 403 53 381 q 147 559 74 500 q 324 618 221 618 l 493 618 l 561 1006 l 38 1006 l 42 1028 l 1160 1028 l 1156 1006 m 907 1006 l 585 1006 l 517 618 l 839 618 l 907 1006 m 489 596 l 319 596 q 162 543 228 596 q 81 403 96 490 q 76 363 76 382 q 121 252 76 293 q 238 211 165 211 q 383 274 324 211 q 464 450 443 336 l 489 596 z "},"य":{"ha":1000,"x_min":38,"x_max":1139,"o":"m 1135 1006 l 910 1006 l 733 0 l 710 0 l 779 393 q 644 251 736 311 q 425 192 551 192 q 199 272 281 192 q 117 492 117 353 q 125 583 117 536 q 136 632 131 613 l 161 632 q 380 685 293 632 q 493 882 467 739 l 514 1006 l 38 1006 l 42 1028 l 1139 1028 l 1135 1006 m 886 1006 l 538 1006 l 517 882 q 397 670 489 731 q 157 610 304 610 l 153 610 l 147 583 q 139 492 139 533 q 216 287 139 360 q 431 214 293 214 q 593 249 515 214 q 725 350 671 285 q 797 500 779 415 l 886 1006 z "},"र":{"ha":750,"x_min":39,"x_max":889,"o":"m 885 1006 l 676 1006 l 644 821 q 525 594 617 668 q 293 519 433 519 l 164 519 l 124 283 q 117 210 117 253 q 167 64 117 118 q 311 10 217 10 q 481 78 414 10 q 569 261 549 146 l 572 276 l 596 276 q 593 261 593 265 q 498 61 572 135 q 311 -12 424 -12 q 149 47 207 -12 q 92 207 92 106 q 100 285 92 243 l 144 542 l 297 542 q 511 611 426 542 q 621 821 596 681 l 653 1006 l 39 1006 l 43 1028 l 889 1028 l 885 1006 z "},"ल":{"ha":1231,"x_min":25,"x_max":1369,"o":"m 957 1006 l 917 778 q 1063 711 1013 774 q 1113 550 1113 649 q 1106 474 1113 518 q 988 236 1081 328 q 747 144 894 144 q 696 147 729 144 l 700 171 q 743 168 731 168 q 970 253 882 168 q 1082 474 1058 338 q 1089 547 1089 515 q 1042 699 1089 642 q 903 756 996 756 q 710 667 788 756 q 604 421 632 578 l 603 410 l 579 410 l 581 421 q 592 533 592 485 q 545 697 592 639 q 408 756 499 756 q 218 678 292 756 q 122 474 144 600 q 115 399 115 429 q 175 231 115 293 q 353 168 235 168 q 396 171 365 168 l 392 147 q 351 144 364 144 q 158 213 225 144 q 90 396 90 282 q 99 474 90 432 q 203 694 122 611 q 410 778 283 778 q 569 706 521 778 q 613 538 617 633 l 615 538 q 715 703 646 632 q 893 778 783 774 l 933 1006 l 25 1006 l 29 1028 l 1369 1028 l 1365 1006 l 957 1006 z "},"व":{"ha":946,"x_min":38,"x_max":1085,"o":"m 1085 1028 l 1081 1006 l 856 1006 l 679 0 l 656 0 l 721 372 q 590 230 676 286 q 386 174 504 174 q 186 242 263 174 q 110 431 110 310 q 115 499 110 467 q 188 667 132 594 q 322 778 243 739 q 490 817 401 817 q 681 759 613 817 q 763 611 749 701 l 832 1006 l 38 1006 l 42 1028 l 1085 1028 m 386 196 q 565 241 489 196 q 685 354 640 286 q 742 492 729 422 q 747 553 747 518 q 685 725 747 656 q 492 794 622 794 q 335 759 410 794 q 208 656 260 724 q 139 499 156 589 q 133 433 133 469 q 203 258 133 321 q 386 196 272 196 z "},"श":{"ha":1079,"x_min":106,"x_max":1218,"o":"m 506 1040 q 668 981 607 1040 q 729 821 729 921 q 724 758 729 788 q 601 556 700 626 q 360 485 501 485 l 171 485 l 136 283 q 129 210 129 239 q 179 63 129 117 q 326 10 229 10 q 506 82 432 10 q 599 276 581 154 l 622 276 q 526 68 603 149 q 328 -12 450 -12 q 163 46 219 -12 q 106 207 106 104 q 113 285 106 250 l 151 507 l 364 507 q 586 575 492 507 q 701 764 681 643 q 707 821 707 790 q 652 965 707 913 q 506 1018 597 1018 q 356 976 421 1018 q 254 860 290 933 q 218 694 218 786 l 194 694 q 234 872 194 793 q 344 996 274 951 q 506 1040 415 1040 m 1218 1028 l 1214 1006 l 989 1006 l 813 0 l 789 0 l 969 1028 l 1218 1028 z "},"ष":{"ha":882,"x_min":38,"x_max":1021,"o":"m 1017 1006 l 792 1006 l 615 0 l 592 0 l 678 486 q 563 365 636 410 q 397 321 490 321 q 220 387 286 321 q 154 569 154 453 q 163 651 154 608 l 225 1006 l 38 1006 l 42 1028 l 1021 1028 l 1017 1006 m 768 1006 l 250 1006 l 679 539 q 699 608 693 575 l 768 1006 m 403 343 q 563 391 493 343 q 669 518 633 439 l 244 978 l 186 651 q 179 572 179 617 q 238 403 179 464 q 403 343 297 343 z "},"स":{"ha":1126,"x_min":38,"x_max":1265,"o":"m 1261 1006 l 1036 1006 l 860 0 l 836 0 l 932 547 l 168 547 l 122 283 q 115 213 115 242 q 165 64 115 118 q 313 10 215 10 q 485 84 418 10 q 571 276 553 158 l 594 276 q 502 68 575 149 q 311 -12 429 -12 q 149 48 207 -12 q 92 213 92 108 q 99 285 92 243 l 149 569 l 301 569 q 513 644 426 569 q 624 849 600 719 l 653 1006 l 38 1006 l 42 1028 l 1265 1028 l 1261 1006 m 1013 1006 l 675 1006 l 646 849 q 559 660 624 729 q 414 568 494 590 l 936 568 l 1013 1006 z "},"ह":{"ha":828,"x_min":50,"x_max":967,"o":"m 967 1028 l 963 1006 l 750 1006 l 711 785 l 707 763 l 440 763 q 288 726 353 763 q 210 611 224 690 q 207 582 207 592 q 243 494 207 529 q 340 446 279 460 q 429 456 389 456 q 569 425 513 456 q 652 349 625 394 q 683 254 679 303 l 660 254 q 631 338 656 297 q 554 406 606 379 q 425 433 503 433 q 267 395 338 433 q 153 294 197 357 q 97 160 110 232 q 92 103 92 133 q 151 -51 92 8 q 329 -111 211 -111 q 515 -58 438 -111 q 626 67 593 -4 l 650 67 q 533 -73 617 -11 q 329 -135 450 -135 q 135 -67 201 -135 q 68 103 68 0 q 74 160 68 121 q 150 326 90 251 q 301 435 210 401 q 220 486 256 450 q 185 581 185 522 q 188 613 185 590 q 273 743 203 701 q 444 785 343 785 l 688 785 l 726 1006 l 50 1006 l 54 1028 l 967 1028 z "},"ळ":{"ha":1415,"x_min":22,"x_max":1554,"o":"m 1097 1006 l 1061 800 q 1233 726 1168 793 q 1297 553 1297 660 q 1292 488 1297 517 q 1226 332 1276 401 q 1099 224 1175 263 q 935 185 1022 185 q 800 215 857 185 q 713 297 743 246 q 682 408 683 349 l 679 408 q 556 250 644 315 q 351 185 468 185 q 163 253 235 185 q 92 429 92 321 q 97 488 92 461 q 165 651 114 581 q 292 761 217 722 q 454 800 368 800 q 640 735 576 800 q 710 579 703 671 l 713 579 q 833 735 750 671 q 1038 800 917 799 l 1074 1006 l 22 1006 l 26 1028 l 1554 1028 l 1550 1006 l 1097 1006 m 681 488 q 686 551 686 517 q 624 716 686 654 q 453 778 563 778 q 302 742 372 778 q 184 640 232 706 q 121 488 136 574 q 115 432 115 449 q 181 269 115 331 q 353 207 246 207 q 504 243 435 207 q 620 343 574 279 q 681 488 667 407 m 1268 488 q 1274 549 1274 517 q 1210 716 1274 654 q 1039 778 1146 778 q 822 697 913 778 q 708 488 732 617 q 703 429 703 460 q 765 268 703 329 q 936 207 828 207 q 1087 242 1017 207 q 1206 342 1157 278 q 1268 488 1254 406 z "},"क़":{"ha":1418,"x_min":38,"x_max":1557,"o":"m 813 1006 l 743 614 q 865 756 788 700 q 1053 811 943 811 q 1233 744 1163 811 q 1303 564 1303 678 q 1297 499 1303 531 q 1228 326 1279 399 q 1105 215 1178 253 q 947 176 1032 176 q 869 185 906 176 l 874 207 q 951 199 907 199 q 1094 234 1026 199 q 1210 338 1163 269 q 1274 499 1257 406 q 1279 561 1279 528 q 1215 728 1279 667 q 1051 789 1151 789 q 890 747 960 789 q 780 639 821 704 q 724 501 739 574 l 636 0 l 614 0 l 679 369 q 555 231 636 285 q 365 176 474 176 q 179 243 250 176 q 108 426 108 310 q 115 499 108 457 q 185 664 132 593 q 313 773 238 735 q 472 811 389 811 q 646 756 583 811 q 722 615 708 701 l 790 1006 l 38 1006 l 42 1028 l 1557 1028 l 1553 1006 l 813 1006 m 367 199 q 529 241 460 199 q 640 347 599 283 q 697 478 682 411 l 701 501 q 706 556 706 529 q 649 722 706 654 q 471 789 592 789 q 324 753 394 789 q 204 652 254 718 q 139 499 154 586 q 133 431 133 467 q 197 260 133 321 q 367 199 261 199 m 318 -29 q 297 -22 304 -29 q 289 -1 289 -14 q 301 26 289 15 q 329 38 313 38 q 349 30 342 38 q 357 10 357 22 q 345 -18 357 -7 q 318 -29 333 -29 z "},"ख़":{"ha":1263,"x_min":38,"x_max":1401,"o":"m 1401 1028 l 1397 1006 l 1172 1006 l 996 0 l 972 0 l 1042 394 q 931 270 1003 319 q 761 221 858 221 q 697 228 729 221 q 557 65 646 129 q 354 0 468 0 q 164 62 233 0 q 94 233 94 124 q 100 297 94 268 l 144 547 l 206 547 q 361 597 292 547 q 454 782 431 647 l 493 1006 l 38 1006 l 42 1028 l 1401 1028 m 1149 1006 l 517 1006 l 478 782 q 376 581 451 636 q 193 525 301 525 l 164 525 l 124 297 q 118 239 118 269 q 182 81 118 139 q 360 22 246 22 q 544 83 460 22 q 675 235 629 144 q 567 313 607 257 q 526 451 526 369 q 531 508 526 479 q 591 655 544 592 q 706 751 638 718 q 851 785 774 785 q 1010 736 953 785 q 1079 613 1067 688 l 1149 1006 m 765 243 q 913 282 850 243 q 1012 381 975 321 q 1060 501 1049 440 q 1065 556 1065 538 q 1012 703 1065 643 q 849 763 958 763 q 717 732 779 763 q 611 644 654 701 q 554 508 568 586 q 549 451 549 469 q 609 299 549 354 q 765 243 669 243 m 301 -206 q 280 -198 288 -206 q 272 -178 272 -190 q 284 -150 272 -161 q 313 -139 296 -139 q 333 -147 325 -139 q 340 -167 340 -154 q 328 -194 340 -183 q 301 -206 317 -206 z "},"ग़":{"ha":949,"x_min":38,"x_max":1088,"o":"m 1088 1028 l 1083 1006 l 858 1006 l 682 0 l 658 0 l 835 1006 l 524 1006 l 447 575 q 381 435 432 490 q 239 379 329 379 q 125 422 163 379 q 88 531 88 465 q 92 572 88 551 l 100 614 l 124 614 l 115 571 q 111 531 111 550 q 142 438 111 475 q 239 401 172 401 q 366 451 322 401 q 424 575 410 501 l 500 1006 l 38 1006 l 42 1028 l 1088 1028 m 208 164 q 187 172 194 164 q 179 192 179 179 q 191 219 179 208 q 219 231 203 231 q 240 223 232 231 q 247 203 247 215 q 235 175 247 186 q 208 164 224 164 z "},"ज़":{"ha":1143,"x_min":38,"x_max":1282,"o":"m 1278 1006 l 1054 1006 l 876 0 l 853 0 l 974 685 l 617 685 l 579 472 q 486 290 558 360 q 306 221 414 221 q 171 275 221 221 q 121 417 121 329 q 126 472 121 433 l 168 707 l 192 707 l 150 471 q 144 415 144 432 q 188 290 144 338 q 308 243 232 243 q 470 306 403 243 q 556 471 538 369 l 597 707 l 978 707 l 1031 1006 l 38 1006 l 42 1028 l 1282 1028 l 1278 1006 m 276 15 q 255 23 263 15 q 247 43 247 31 q 259 71 247 60 q 288 82 271 82 q 308 74 300 82 q 315 54 315 67 q 303 26 315 38 q 276 15 292 15 z "},"ड़":{"ha":810,"x_min":39,"x_max":949,"o":"m 450 758 q 185 596 214 758 q 182 564 182 574 q 233 467 182 497 q 364 436 283 436 l 426 436 q 602 392 531 436 q 674 254 674 349 q 669 208 674 233 q 570 49 651 111 q 356 -12 489 -12 q 146 49 218 -12 q 74 208 74 111 q 78 256 74 231 l 101 256 q 97 210 97 233 q 163 65 97 119 q 360 10 228 10 q 555 66 479 10 q 646 208 631 122 q 650 253 650 232 q 584 377 650 340 q 421 414 518 414 l 358 414 q 215 452 272 414 q 158 563 158 490 q 161 597 158 585 q 258 739 179 697 q 440 781 336 781 l 654 781 l 694 1006 l 39 1006 l 43 1028 l 949 1028 l 944 1006 l 718 1006 l 674 758 l 450 758 m 310 -218 q 288 -210 296 -218 q 281 -190 281 -203 q 292 -162 281 -174 q 321 -151 304 -151 q 341 -159 333 -151 q 349 -179 349 -167 q 337 -207 349 -196 q 310 -218 325 -218 z "},"ढ़":{"ha":869,"x_min":35,"x_max":1008,"o":"m 575 774 q 369 733 464 774 q 208 610 274 692 q 121 410 142 529 q 114 340 114 371 q 153 190 114 256 q 263 90 192 125 q 426 54 335 54 q 576 85 507 54 q 691 171 646 117 q 749 293 736 225 q 753 333 753 314 q 708 449 753 404 q 589 493 664 493 q 453 447 511 493 q 383 322 394 400 q 381 292 381 303 l 357 292 q 360 324 357 304 q 440 463 375 411 q 593 515 506 515 q 725 465 674 515 q 776 336 776 415 q 772 293 776 317 q 710 158 760 218 q 586 65 661 99 q 422 32 511 32 q 250 70 325 32 q 133 178 175 108 q 90 338 90 247 q 97 408 90 367 q 190 624 119 538 q 360 753 260 711 q 579 796 461 796 l 661 796 l 697 1006 l 35 1006 l 39 1028 l 1008 1028 l 1004 1006 l 721 1006 l 681 774 l 575 774 m 347 -174 q 326 -166 333 -174 q 318 -146 318 -158 q 330 -118 318 -129 q 358 -107 342 -107 q 378 -115 371 -107 q 386 -135 386 -122 q 374 -162 386 -151 q 347 -174 363 -174 z "},"फ़":{"ha":1369,"x_min":38,"x_max":1508,"o":"m 764 1006 l 694 608 q 817 754 738 697 q 1007 811 896 811 q 1185 745 1115 811 q 1254 565 1254 679 q 1249 499 1254 531 q 1180 326 1231 399 q 1056 215 1129 253 q 899 176 982 176 q 821 185 857 176 l 825 207 q 903 199 858 199 q 1047 234 979 199 q 1161 338 1114 269 q 1225 499 1208 406 q 1231 561 1231 528 q 1167 728 1231 667 q 1003 789 1103 789 q 842 746 911 789 q 731 637 772 703 q 675 499 689 571 l 588 0 l 564 0 l 650 490 q 538 366 610 411 q 376 321 467 321 q 209 381 265 321 q 153 553 153 440 q 163 651 153 589 l 225 1006 l 38 1006 l 42 1028 l 1508 1028 l 1504 1006 l 764 1006 m 740 1006 l 249 1006 l 186 651 q 176 554 176 590 q 227 397 176 451 q 382 343 278 343 q 574 419 496 343 q 671 608 651 494 l 740 1006 m 332 115 q 310 123 318 115 q 303 143 303 131 q 315 171 303 160 q 343 182 326 182 q 363 174 356 182 q 371 154 371 167 q 359 126 371 138 q 332 115 347 115 z "},"ऱ":{"ha":750,"x_min":36,"x_max":889,"o":"m 885 1006 l 676 1006 l 644 821 q 525 594 617 668 q 293 519 433 519 l 164 519 l 124 283 q 117 210 117 253 q 167 64 117 118 q 311 10 217 10 q 481 78 414 10 q 569 261 549 146 l 572 276 l 596 276 q 593 261 593 265 q 498 61 572 135 q 311 -12 424 -12 q 149 47 207 -12 q 92 207 92 106 q 100 285 92 243 l 144 542 l 297 542 q 511 611 426 542 q 621 821 596 681 l 653 1006 l 39 1006 l 43 1028 l 889 1028 l 885 1006 m 65 -156 q 44 -148 51 -156 q 36 -128 36 -140 q 48 -100 36 -111 q 76 -89 60 -89 q 97 -97 89 -89 q 104 -117 104 -104 q 92 -144 104 -133 q 65 -156 81 -156 z "},"ं":{"ha":0,"x_min":-96,"x_max":-28,"o":"m -67 1188 q -88 1195 -81 1188 q -96 1215 -96 1203 q -84 1243 -96 1232 q -57 1254 -72 1254 q -35 1247 -43 1254 q -28 1226 -28 1239 q -40 1199 -28 1210 q -67 1188 -51 1188 z "},"ँ":{"ha":0,"x_min":-283,"x_max":194,"o":"m -40 1358 q -61 1366 -54 1358 q -68 1385 -68 1374 q -57 1414 -68 1403 q -28 1425 -46 1425 q -7 1417 -15 1425 q 1 1399 1 1410 q -11 1370 1 1382 q -40 1358 -24 1358 m -72 1144 q -230 1196 -176 1144 q -283 1317 -283 1247 q -281 1346 -283 1326 l -258 1346 q -261 1318 -261 1329 q -215 1211 -261 1256 q -75 1167 -168 1167 q 49 1194 -4 1167 q 134 1262 103 1221 q 172 1346 165 1303 l 194 1346 q 152 1251 185 1297 q 63 1175 119 1206 q -72 1144 6 1144 z "},"ः":{"ha":263,"x_min":56,"x_max":207,"o":"m 165 679 q 142 689 150 679 q 136 713 133 699 q 150 737 139 728 q 176 746 161 746 q 199 737 190 746 q 204 713 207 728 q 190 688 201 697 q 165 679 179 679 m 88 240 q 64 249 72 240 q 58 274 56 258 q 72 298 61 289 q 99 307 83 307 q 122 297 114 307 q 126 274 129 288 q 114 250 125 260 q 88 240 103 240 z "},"ऽ":{"ha":775,"x_min":56,"x_max":717,"o":"m 60 126 l 394 126 q 514 169 471 126 q 557 271 557 211 q 520 377 557 325 q 410 504 483 429 q 290 642 331 585 q 250 763 250 699 q 253 794 250 772 q 324 902 267 871 q 464 933 382 933 l 717 933 l 713 911 l 465 911 q 330 879 386 911 q 274 767 274 847 q 312 656 274 710 q 425 525 350 601 q 541 391 501 447 q 581 274 581 335 q 535 156 581 207 q 390 104 490 104 l 56 104 l 60 126 z "},"्":{"ha":0,"x_min":-301,"x_max":-160,"o":"m -301 -92 l -276 -92 l -160 -339 l -186 -339 l -301 -92 z "},"़":{"ha":0,"x_min":-628,"x_max":-560,"o":"m -599 -62 q -620 -55 -612 -62 q -628 -35 -628 -47 q -616 -7 -628 -18 q -587 4 -604 4 q -567 -3 -575 4 q -560 -24 -560 -11 q -572 -51 -560 -40 q -599 -62 -583 -62 z "},"०":{"ha":775,"x_min":74,"x_max":743,"o":"m 97 492 q 74 271 74 354 q 131 63 74 135 q 321 -10 188 -10 q 524 53 444 -10 q 648 225 604 117 q 719 492 692 333 q 743 710 743 626 q 686 915 743 843 q 496 988 629 988 q 292 925 371 988 q 169 756 213 863 q 97 492 125 649 m 692 492 q 625 238 665 340 q 513 75 585 135 q 325 15 440 15 q 153 82 204 15 q 101 274 101 149 q 125 492 101 357 q 192 743 151 642 q 304 903 232 844 q 492 963 376 963 q 664 897 613 963 q 715 707 715 831 q 692 492 715 626 z "},"१":{"ha":314,"x_min":82,"x_max":282,"o":"m 103 953 l 107 978 l 282 978 l 110 0 l 82 0 l 250 953 l 103 953 z "},"२":{"ha":774,"x_min":-18,"x_max":731,"o":"m -15 15 q 478 363 288 190 q 696 688 668 536 q 703 760 703 729 q 649 907 703 851 q 476 963 596 963 q 259 883 343 963 q 150 667 175 804 l 122 667 q 247 905 151 822 q 481 988 343 988 q 660 933 589 988 q 731 763 731 879 q 724 688 731 721 q 592 444 703 569 q 333 210 482 318 q 39 25 185 103 l 635 25 l 631 0 l -18 0 l -15 15 z "},"३":{"ha":757,"x_min":35,"x_max":738,"o":"m 494 988 q 674 931 611 988 q 738 782 738 874 q 733 732 738 757 q 650 587 719 649 q 449 514 581 525 l 447 506 q 668 278 668 454 q 663 221 668 249 q 567 55 646 119 q 351 -10 488 -10 q 118 65 201 -10 q 36 274 35 139 l 64 274 q 137 88 65 157 q 356 18 208 18 q 547 75 475 18 q 635 221 619 132 q 640 274 640 257 q 554 439 640 382 q 315 496 468 496 l 292 496 l 296 522 l 321 522 q 593 577 499 522 q 706 732 688 632 q 710 779 710 757 q 653 913 710 864 q 490 963 596 963 q 282 902 376 963 q 160 717 188 842 l 132 717 q 256 914 157 840 q 494 988 354 988 z "},"४":{"ha":769,"x_min":-12,"x_max":742,"o":"m -12 264 l -8 286 l 665 978 l 693 978 l 572 289 l 742 289 l 736 264 l 567 264 l 521 0 l 493 0 l 539 264 l -12 264 m 657 933 l 28 289 l 544 289 l 657 933 z "},"५":{"ha":822,"x_min":57,"x_max":786,"o":"m 782 953 l 224 953 l 144 508 q 280 604 196 568 q 456 640 364 640 q 660 569 593 640 q 726 382 726 497 q 718 300 726 342 q 603 79 694 168 q 357 -10 513 -10 q 137 64 217 -10 q 58 267 57 138 l 86 267 q 162 82 88 146 q 361 18 236 18 q 584 96 500 18 q 690 300 668 174 q 697 378 697 346 q 634 553 697 490 q 451 615 571 615 q 275 574 364 615 q 133 463 186 532 l 108 463 l 200 978 l 786 978 l 782 953 z "},"६":{"ha":825,"x_min":75,"x_max":771,"o":"m 743 725 q 514 964 731 964 q 252 834 354 964 q 111 413 150 704 q 250 585 149 521 q 475 650 351 650 q 676 583 606 650 q 746 397 746 517 q 738 311 746 357 q 621 83 714 176 q 367 -10 528 -10 q 142 70 208 -10 q 75 289 75 150 q 94 471 75 361 q 238 855 138 721 q 518 989 338 989 q 707 917 647 989 q 771 725 767 846 l 743 725 m 107 340 q 100 271 100 301 q 166 88 100 161 q 371 15 232 15 q 594 94 501 15 q 710 311 686 174 q 718 394 718 356 q 653 566 718 507 q 471 625 588 625 q 316 593 393 625 q 181 497 239 561 q 107 340 124 433 z "},"७":{"ha":642,"x_min":68,"x_max":700,"o":"m 696 953 l 139 0 l 107 0 l 669 953 l 68 953 l 72 978 l 700 978 l 696 953 z "},"८":{"ha":844,"x_min":31,"x_max":790,"o":"m 150 753 q 267 924 169 860 q 513 988 364 988 q 717 931 644 988 q 790 775 790 874 q 786 725 790 750 q 709 585 772 643 q 532 503 646 526 q 679 429 626 486 q 732 285 732 372 q 728 232 732 260 q 601 37 706 108 q 332 -35 496 -35 q 109 28 188 -35 q 31 200 31 90 q 36 260 31 232 q 128 420 53 357 q 321 503 204 483 q 188 574 231 522 q 146 700 146 626 q 150 753 146 726 m 178 753 q 174 707 174 728 q 242 565 174 615 q 429 515 310 515 q 652 570 564 515 q 758 725 740 625 q 763 772 763 750 q 694 913 763 864 q 508 963 626 963 q 285 908 375 963 q 178 753 196 854 m 64 260 q 58 206 58 221 q 133 46 58 101 q 336 -10 207 -10 q 581 53 482 -10 q 700 232 679 115 q 704 283 704 260 q 626 440 704 389 q 425 490 549 490 q 185 434 285 490 q 64 260 85 378 z "},"९":{"ha":853,"x_min":75,"x_max":778,"o":"m 110 253 q 158 77 104 140 q 325 14 213 14 q 597 144 492 14 q 742 565 703 274 q 603 392 704 457 q 378 328 501 328 q 177 394 247 328 q 107 581 107 461 q 115 667 107 621 q 232 894 139 801 q 486 988 325 988 q 711 908 644 988 q 778 689 778 828 q 758 507 778 617 q 610 124 715 258 q 321 -11 506 -11 q 135 60 196 -11 q 82 253 75 131 l 110 253 m 746 638 q 753 707 753 676 q 687 890 753 817 q 482 963 621 963 q 259 883 351 963 q 143 667 167 804 q 135 583 135 624 q 200 412 135 471 q 382 353 265 353 q 537 385 460 353 q 672 481 614 417 q 746 638 729 544 z "},"ॐ":{"ha":1447,"x_min":53,"x_max":1310,"o":"m 922 1271 q 901 1278 908 1271 q 893 1299 893 1286 q 905 1326 893 1315 q 933 1338 917 1338 q 953 1330 946 1338 q 961 1310 961 1322 q 949 1282 961 1293 q 922 1271 938 1271 m 897 1057 q 734 1107 789 1057 q 679 1226 679 1157 q 682 1258 679 1249 l 704 1258 q 701 1231 701 1239 q 750 1124 701 1168 q 896 1079 799 1079 q 1062 1133 1003 1079 q 1135 1258 1121 1186 l 1157 1258 q 1078 1118 1143 1179 q 897 1057 1014 1057 m 1117 958 q 1264 902 1218 958 q 1310 742 1310 846 q 1297 614 1310 683 l 1260 406 q 1138 134 1228 222 q 864 46 1047 46 q 733 60 813 46 l 738 82 q 868 68 818 68 q 1122 153 1038 68 q 1236 406 1206 238 l 1274 614 q 1286 740 1286 683 q 1245 885 1286 835 q 1113 936 1204 936 q 942 874 1003 936 q 864 708 882 811 q 624 500 826 500 l 571 500 q 629 349 629 444 q 625 297 629 325 q 513 96 601 172 q 300 19 425 19 q 121 80 189 19 q 53 240 53 140 q 57 292 53 265 l 81 292 q 76 244 76 267 q 138 97 76 153 q 303 42 200 42 q 498 113 415 42 q 601 297 581 183 q 606 344 606 321 q 553 483 606 426 q 389 539 501 539 l 342 539 l 346 561 l 393 561 q 530 594 471 561 q 623 676 589 626 q 667 781 657 726 q 671 829 671 806 q 613 968 671 918 q 465 1018 556 1018 q 281 959 361 1018 q 183 801 201 900 l 160 801 q 266 976 179 913 q 469 1040 353 1040 q 633 985 571 1040 q 696 835 696 929 q 692 786 696 811 q 616 631 675 694 q 461 551 557 568 l 461 550 q 542 522 504 544 l 628 522 q 766 565 710 522 q 840 708 822 608 q 928 891 861 824 q 1117 958 994 958 z "},"॰":{"ha":707,"x_min":126,"x_max":581,"o":"m 576 497 q 489 343 560 403 q 322 283 418 283 q 181 332 235 283 q 126 460 126 381 q 131 500 126 479 q 220 656 147 594 q 392 717 293 717 q 528 668 476 717 q 581 540 581 619 q 576 497 581 521 m 151 463 q 198 349 151 392 q 322 306 244 306 q 473 359 408 306 q 553 497 538 413 q 556 536 556 511 q 511 651 556 607 q 392 694 467 694 q 272 664 326 694 q 184 581 217 633 q 151 463 151 528 z "},"।":{"ha":315,"x_min":139,"x_max":343,"o":"m 163 0 l 139 0 l 319 1031 l 343 1031 l 163 0 z "},"॥":{"ha":531,"x_min":139,"x_max":558,"o":"m 163 0 l 139 0 l 319 1031 l 343 1031 l 163 0 m 378 0 l 354 0 l 535 1031 l 558 1031 l 378 0 z "},"₨":{"ha":1375,"x_min":33,"x_max":1301,"o":"m 453 978 q 657 922 592 978 q 722 765 722 865 q 717 701 722 731 q 607 502 694 572 q 376 426 519 432 l 603 0 l 568 0 l 343 426 l 136 426 l 61 0 l 33 0 l 206 978 l 453 978 m 689 701 q 694 765 694 731 q 635 902 694 854 q 447 950 576 950 l 228 950 l 140 456 l 360 456 q 689 701 644 456 m 1072 760 q 1242 698 1183 760 q 1294 531 1301 636 l 1267 531 q 1223 676 1272 617 q 1068 735 1174 735 q 913 688 975 735 q 838 565 851 642 q 835 535 835 543 q 861 463 835 490 q 925 422 888 436 q 1028 393 963 408 q 1142 359 1100 375 q 1213 310 1183 343 q 1243 224 1243 278 q 1209 105 1243 158 q 1117 21 1175 51 q 986 -10 1058 -10 q 801 52 868 -10 q 740 219 735 114 l 768 219 q 819 74 763 132 q 992 15 875 15 q 1140 63 1081 15 q 1211 185 1199 111 q 1214 217 1214 207 q 1187 292 1214 264 q 1121 335 1160 321 q 1015 367 1082 350 q 906 399 947 383 q 835 447 864 415 q 807 529 807 478 q 810 565 807 553 q 897 707 825 654 q 1072 760 969 760 z "},"₹":{"ha":936,"x_min":121,"x_max":933,"o":"m 661 761 l 654 724 l 889 724 l 885 699 l 649 699 q 575 540 624 593 q 438 468 526 488 q 188 449 349 449 l 156 269 q 149 194 149 224 q 339 11 149 11 q 513 74 446 11 q 600 256 579 138 l 628 256 q 528 55 606 124 q 335 -14 450 -14 q 174 40 228 -14 q 121 188 121 93 q 128 261 121 217 l 165 474 q 426 492 338 474 q 557 556 514 510 q 622 699 600 603 l 129 699 l 133 724 l 628 724 l 636 764 l 669 953 l 174 953 l 178 978 l 933 978 l 929 953 l 696 953 l 661 761 z "},"‌":{"ha":0,"x_min":-32,"x_max":33,"o":"m -32 1126 l 33 1126 l 33 -319 l -32 -319 l -32 1126 z "},"‍":{"ha":0,"x_min":-178,"x_max":178,"o":"m 32 882 l 32 -319 l -33 -319 l -33 882 l -129 781 l -175 826 l -46 956 l -178 1088 l -132 1133 l 0 1001 l 133 1133 l 178 1089 l 44 956 l 178 824 l 132 778 l 32 882 z "},"◌":{"ha":904,"x_min":69,"x_max":835,"o":"m 418 633 q 375 649 392 633 q 358 692 358 665 q 375 734 358 718 q 418 750 392 750 q 461 734 444 750 q 478 692 478 718 q 461 649 478 665 q 418 633 444 633 m 586 613 q 543 628 560 613 q 526 671 526 644 q 543 713 526 697 q 586 729 560 729 q 629 713 613 729 q 646 671 646 697 q 629 628 646 644 q 586 613 613 613 m 256 575 q 213 591 229 575 q 196 633 196 607 q 213 676 196 660 q 256 692 229 692 q 299 676 282 692 q 315 633 315 660 q 299 591 315 607 q 256 575 282 575 m 714 510 q 671 526 688 510 q 654 568 654 542 q 671 610 654 594 q 714 626 688 626 q 757 610 740 626 q 774 568 774 594 q 757 526 774 542 q 714 510 740 510 m 150 438 q 107 453 124 438 q 90 496 90 469 q 107 538 90 522 q 150 554 124 554 q 193 538 176 554 q 210 496 210 522 q 193 453 210 469 q 150 438 176 438 m 775 351 q 732 367 749 351 q 715 410 715 383 q 732 452 715 436 q 775 468 749 468 q 818 452 801 468 q 835 410 835 436 q 818 367 835 383 q 775 351 801 351 m 129 269 q 86 285 103 269 q 69 328 69 301 q 86 370 69 354 q 129 386 103 386 q 172 370 156 386 q 189 328 189 354 q 172 285 189 301 q 129 269 156 269 m 761 185 q 718 201 735 185 q 701 243 701 217 q 718 285 701 269 q 761 301 735 301 q 804 285 788 301 q 821 243 821 269 q 804 201 821 217 q 761 185 788 185 m 192 113 q 149 128 165 113 q 132 171 132 144 q 149 213 132 197 q 192 229 165 229 q 235 213 218 229 q 251 171 251 197 q 235 128 251 144 q 192 113 218 113 m 660 51 q 617 67 633 51 q 600 110 600 83 q 617 152 600 136 q 660 168 633 168 q 703 152 686 168 q 719 110 719 136 q 703 67 719 83 q 660 51 686 51 m 328 7 q 285 23 301 7 q 268 65 268 39 q 285 108 268 92 q 328 124 301 124 q 371 108 354 124 q 388 65 388 92 q 371 23 388 39 q 328 7 354 7 m 500 -12 q 457 3 474 -12 q 440 46 440 19 q 457 88 440 72 q 500 104 474 104 q 543 88 526 104 q 560 46 560 72 q 543 3 560 19 q 500 -12 526 -12 z "},"!":{"ha":311,"x_min":35,"x_max":256,"o":"m 256 978 l 115 232 l 99 232 l 222 978 l 256 978 m 117 68 l 104 0 l 35 0 l 47 68 l 117 68 z "},"\"":{"ha":272,"x_min":44,"x_max":239,"o":"m 121 1101 l 67 853 l 44 853 l 78 1101 l 121 1101 m 239 1101 l 185 853 l 163 853 l 196 1101 l 239 1101 z "},"#":{"ha":1032,"x_min":25,"x_max":1004,"o":"m 774 646 l 667 369 l 882 369 l 876 344 l 657 344 l 522 0 l 494 0 l 629 344 l 281 344 l 146 0 l 118 0 l 253 344 l 25 344 l 31 369 l 263 369 l 369 646 l 149 646 l 153 671 l 379 671 l 518 1028 l 546 1028 l 407 671 l 756 671 l 894 1028 l 922 1028 l 783 671 l 1004 671 l 1000 646 l 774 646 m 746 646 l 397 646 l 290 369 l 639 369 l 746 646 z "},"$":{"ha":744,"x_min":38,"x_max":688,"o":"m 660 776 q 610 894 656 838 q 468 960 564 950 l 389 510 q 511 464 464 486 q 590 400 558 442 q 621 292 621 358 q 615 235 621 263 q 567 118 604 174 q 465 26 531 63 q 307 -10 399 -10 l 297 -10 l 278 -121 l 250 -121 l 269 -8 q 141 34 194 -1 q 63 123 88 69 q 42 235 38 176 l 69 235 q 87 144 68 192 q 152 61 106 97 q 274 17 199 25 l 357 490 q 234 535 281 514 q 156 597 188 557 q 124 701 124 638 q 129 754 124 715 q 228 922 147 856 q 435 988 308 988 l 444 988 l 467 1111 l 494 1111 l 472 986 q 631 914 579 975 q 688 776 683 853 l 660 776 m 440 963 l 429 963 q 249 908 322 963 q 157 754 175 853 q 153 708 153 729 q 181 617 153 653 q 251 560 208 581 q 363 518 294 539 l 440 963 m 588 235 q 592 283 592 263 q 564 379 592 342 q 493 439 536 417 q 383 482 450 461 l 301 15 l 311 15 q 499 78 426 15 q 588 235 571 140 z "},"%":{"ha":735,"x_min":-29,"x_max":763,"o":"m 319 988 q 427 947 386 988 q 468 843 468 907 q 439 735 468 785 q 361 658 410 686 q 257 629 313 629 q 150 669 190 629 q 110 774 110 710 q 138 881 110 832 q 215 959 167 931 q 319 988 264 988 m 763 978 l 3 0 l -29 0 l 731 978 l 763 978 m 138 775 q 171 688 138 721 q 261 654 204 654 q 376 698 326 654 q 438 808 425 742 q 440 839 440 831 q 406 928 440 894 q 315 963 372 963 q 226 938 267 963 q 161 869 185 913 q 138 775 138 826 m 478 347 q 585 307 544 347 q 625 203 625 267 q 597 95 625 144 q 519 17 568 46 q 415 -11 471 -11 q 308 29 349 -11 q 267 133 267 69 q 296 241 267 192 q 374 319 325 290 q 478 347 422 347 m 297 168 q 294 138 294 146 q 328 48 294 82 q 419 14 363 14 q 509 39 468 14 q 574 107 550 64 q 597 201 597 150 q 564 289 597 256 q 474 322 531 322 q 359 278 408 322 q 297 168 310 235 z "},"&":{"ha":933,"x_min":11,"x_max":833,"o":"m 800 0 l 532 354 q 550 288 550 315 q 546 250 550 274 q 488 116 532 175 q 380 24 444 57 q 242 -10 315 -10 q 76 49 142 -10 q 11 211 11 107 q 17 269 11 242 q 75 415 32 356 q 178 506 118 475 q 303 536 238 536 q 373 526 342 536 q 424 500 404 517 q 375 561 378 557 q 319 647 338 610 q 300 736 300 685 q 304 786 300 760 q 386 928 319 868 q 556 988 453 988 q 703 937 656 988 q 750 808 750 886 q 746 761 750 785 l 738 724 l 710 724 q 717 758 715 750 q 721 807 721 783 q 676 922 721 881 q 551 963 632 963 q 403 911 463 963 q 332 786 344 860 q 328 740 328 761 q 342 666 328 699 q 386 594 357 633 l 833 0 l 800 0 m 518 250 q 522 292 522 271 q 492 403 522 353 q 410 481 461 453 q 304 508 360 508 q 137 447 208 508 q 44 269 65 386 q 40 217 40 243 q 99 71 40 124 q 246 18 157 18 q 424 83 347 18 q 518 250 500 149 z "},"'":{"ha":165,"x_min":50,"x_max":132,"o":"m 132 1101 l 72 853 l 50 853 l 78 1101 l 132 1101 z "},"(":{"ha":496,"x_min":64,"x_max":611,"o":"m 83 560 q 265 1038 131 831 q 583 1371 400 1246 l 611 1371 l 610 1367 q 280 1017 404 1224 q 111 560 156 811 q 90 335 90 443 q 326 -247 90 -29 l 325 -251 l 297 -251 q 126 -3 189 -153 q 64 340 64 147 q 83 560 64 451 z "},")":{"ha":496,"x_min":-115,"x_max":432,"o":"m 413 560 q 231 81 365 289 q -87 -251 96 -126 l -115 -251 l -114 -247 q 216 102 92 -104 q 385 560 340 308 q 406 785 406 676 q 169 1367 406 1149 l 171 1371 l 199 1371 q 369 1122 307 1272 q 432 779 432 972 q 413 560 432 668 z "},"*":{"ha":596,"x_min":40,"x_max":556,"o":"m 532 907 l 556 844 l 317 756 l 525 667 l 482 607 l 315 738 l 296 500 l 225 500 l 283 738 l 64 603 l 40 665 l 276 754 l 71 846 l 121 911 l 289 776 l 314 1011 l 383 1011 l 322 776 l 532 907 z "},"+":{"ha":818,"x_min":53,"x_max":765,"o":"m 760 515 l 419 515 l 360 174 l 332 174 l 392 515 l 53 515 l 58 540 l 397 540 l 457 882 l 485 882 l 425 540 l 765 540 l 760 515 z "},",":{"ha":167,"x_min":-21,"x_max":94,"o":"m 94 43 q -21 -119 86 -119 l -17 -94 q 56 -19 44 -94 l 58 -10 l 15 -10 l 24 43 l 94 43 z "},"-":{"ha":617,"x_min":78,"x_max":589,"o":"m 589 540 l 583 515 l 78 515 l 83 540 l 589 540 z "},".":{"ha":157,"x_min":38,"x_max":118,"o":"m 118 68 l 107 0 l 38 0 l 49 68 l 118 68 z "},"/":{"ha":499,"x_min":-92,"x_max":590,"o":"m 590 1299 l -64 -217 l -92 -217 l 560 1299 l 590 1299 z "},":":{"ha":157,"x_min":-18,"x_max":174,"o":"m 174 699 l 163 631 l 93 631 l 104 699 l 174 699 m 63 68 l 51 0 l -18 0 l -7 68 l 63 68 z "},";":{"ha":194,"x_min":-44,"x_max":213,"o":"m 213 700 l 201 632 l 132 632 l 143 700 l 213 700 m 71 43 q -44 -119 63 -119 l -40 -94 q 32 -19 21 -94 l 35 -10 l -8 -10 l 0 43 l 71 43 z "},"<":{"ha":529,"x_min":56,"x_max":532,"o":"m 381 199 l 56 528 l 497 858 l 532 858 l 90 528 l 415 199 l 381 199 z "},"=":{"ha":783,"x_min":32,"x_max":751,"o":"m 751 664 l 747 639 l 75 639 l 79 664 l 751 664 m 708 418 l 704 393 l 32 393 l 36 418 l 708 418 z "},">":{"ha":529,"x_min":-3,"x_max":474,"o":"m 114 858 l 149 858 l 474 528 l 32 199 l -3 199 l 439 528 l 114 858 z "},"?":{"ha":669,"x_min":82,"x_max":658,"o":"m 413 988 q 593 925 528 988 q 658 756 658 863 q 653 693 658 722 q 517 477 628 540 q 238 413 407 414 l 201 211 l 174 211 l 214 438 l 236 438 q 625 693 582 438 q 631 757 631 722 q 572 908 631 854 q 408 963 513 963 q 214 900 288 963 q 110 725 140 838 l 82 725 q 199 919 114 851 q 413 988 285 988 m 199 68 l 186 0 l 117 0 l 129 68 l 199 68 z "},"@":{"ha":1422,"x_min":47,"x_max":1381,"o":"m 803 768 q 999 699 933 768 q 1065 518 1065 629 q 1038 364 1065 444 l 957 129 q 944 68 944 92 q 1025 8 944 8 q 1154 63 1090 8 q 1267 216 1218 117 q 1340 446 1317 315 q 1354 590 1354 532 q 1234 912 1354 796 q 874 1028 1114 1028 q 507 935 672 1028 q 235 683 342 843 q 93 324 128 522 q 78 164 78 235 q 217 -185 78 -69 q 604 -306 357 -300 l 596 -332 q 192 -205 338 -328 q 47 160 47 -82 q 63 324 47 232 q 205 683 97 517 q 485 952 313 850 q 878 1054 658 1054 q 1255 928 1129 1054 q 1381 589 1381 803 q 1368 446 1381 521 q 1290 208 1344 314 q 1165 43 1236 103 q 1021 -17 1094 -17 q 947 2 974 -17 q 921 65 921 21 q 954 190 921 114 l 951 192 q 792 38 883 93 q 592 -17 701 -17 q 410 54 476 -17 q 343 246 343 125 q 350 326 343 292 q 440 553 372 451 q 603 711 507 654 q 803 768 700 768 m 797 740 q 606 686 694 740 q 458 538 518 632 q 378 326 397 443 q 371 250 371 282 q 428 76 371 143 q 596 8 486 8 q 787 63 696 8 q 942 215 878 117 q 1029 438 1007 313 q 1038 522 1038 482 q 981 682 1038 624 q 797 740 925 740 z "},"A":{"ha":835,"x_min":-42,"x_max":710,"o":"m 624 269 l 140 269 l -10 0 l -42 0 l 488 949 l 515 949 l 710 0 l 678 0 l 624 269 m 618 294 l 494 904 l 154 294 l 618 294 z "},"B":{"ha":778,"x_min":32,"x_max":735,"o":"m 731 739 q 649 583 713 640 q 500 508 586 525 q 625 440 578 493 q 672 308 672 386 q 668 261 672 286 q 556 73 649 146 q 313 0 464 0 l 32 0 l 204 978 l 485 978 q 674 926 613 978 q 735 789 735 875 q 731 739 735 764 m 413 522 q 610 580 535 522 q 703 739 685 638 q 707 783 707 763 q 651 906 707 861 q 481 950 596 950 l 228 950 l 151 522 l 413 522 m 640 261 q 644 306 644 285 q 580 444 644 394 q 397 494 515 494 l 147 494 l 64 28 l 317 28 q 535 90 450 28 q 640 261 621 153 z "},"C":{"ha":1068,"x_min":74,"x_max":1019,"o":"m 626 988 q 894 908 797 988 q 1019 689 992 829 l 992 689 q 875 888 968 813 q 622 963 782 963 q 396 905 503 963 q 213 740 289 847 q 113 488 138 632 q 103 381 103 435 q 148 185 103 268 q 273 59 193 103 q 456 15 353 15 q 735 90 615 15 q 921 288 856 164 l 949 288 q 747 69 872 147 q 451 -10 622 -10 q 252 39 338 -10 q 120 176 167 88 q 74 379 74 264 q 83 488 74 435 q 187 747 108 633 q 380 924 265 860 q 626 988 494 988 z "},"D":{"ha":975,"x_min":32,"x_max":903,"o":"m 892 489 q 696 128 850 256 q 289 0 542 0 l 32 0 l 204 978 l 461 978 q 791 882 679 978 q 903 608 903 786 q 892 489 903 556 m 293 25 q 680 147 535 25 q 864 489 825 269 q 874 601 874 546 q 769 861 874 769 q 457 953 664 953 l 228 953 l 64 25 l 293 25 z "},"E":{"ha":665,"x_min":32,"x_max":682,"o":"m 228 953 l 149 501 l 557 501 l 551 476 l 143 476 l 64 25 l 514 25 l 510 0 l 32 0 l 204 978 l 682 978 l 678 953 l 228 953 z "},"F":{"ha":651,"x_min":32,"x_max":682,"o":"m 682 978 l 678 953 l 228 953 l 149 501 l 557 501 l 551 476 l 143 476 l 60 0 l 32 0 l 204 978 l 682 978 z "},"G":{"ha":1100,"x_min":74,"x_max":1019,"o":"m 638 986 q 894 906 796 986 q 1019 688 993 825 l 992 688 q 875 885 969 810 q 633 961 781 961 q 401 903 511 961 q 215 738 292 846 q 113 488 138 631 q 103 382 103 438 q 149 186 103 269 q 278 58 196 103 q 467 14 360 14 q 695 69 586 14 q 882 230 804 125 q 988 474 960 335 l 526 474 l 531 499 l 1018 499 l 1017 488 q 912 229 992 343 q 715 52 832 115 q 463 -11 597 -11 q 258 38 346 -11 q 122 175 169 86 q 74 381 74 264 q 83 488 74 435 q 188 746 108 632 q 385 923 268 860 q 638 986 503 986 z "},"H":{"ha":901,"x_min":32,"x_max":869,"o":"m 869 978 l 697 0 l 669 0 l 756 490 l 146 490 l 60 0 l 32 0 l 204 978 l 232 978 l 150 515 l 760 515 l 842 978 l 869 978 z "},"I":{"ha":264,"x_min":32,"x_max":232,"o":"m 232 978 l 60 0 l 32 0 l 204 978 l 232 978 z "},"J":{"ha":592,"x_min":-7,"x_max":568,"o":"m 568 978 l 431 199 q 347 49 414 108 q 181 -10 281 -10 q 41 40 89 -10 q -7 176 -7 89 q -1 240 -7 211 l 26 240 q 21 178 21 213 q 60 60 21 104 q 185 15 99 15 q 337 70 283 15 q 403 199 390 125 l 540 978 l 568 978 z "},"K":{"ha":686,"x_min":32,"x_max":744,"o":"m 163 489 l 572 0 l 535 0 l 142 467 l 60 0 l 32 0 l 204 978 l 232 978 l 149 508 l 707 978 l 744 978 l 163 489 z "},"L":{"ha":549,"x_min":32,"x_max":439,"o":"m 64 25 l 439 25 l 435 0 l 32 0 l 204 978 l 232 978 l 64 25 z "},"M":{"ha":1107,"x_min":35,"x_max":1072,"o":"m 1072 950 l 906 0 l 878 0 l 1032 882 l 485 0 l 457 0 l 217 879 l 63 0 l 35 0 l 201 950 l 229 950 l 478 38 l 1044 950 l 1072 950 z "},"N":{"ha":899,"x_min":32,"x_max":867,"o":"m 694 0 l 667 0 l 224 926 l 60 0 l 32 0 l 204 976 l 232 976 l 676 51 l 839 976 l 867 976 l 694 0 z "},"O":{"ha":1100,"x_min":74,"x_max":1026,"o":"m 638 986 q 842 938 754 986 q 978 800 931 889 q 1026 594 1026 711 q 1017 488 1026 540 q 912 229 992 343 q 715 52 832 115 q 463 -11 597 -11 q 258 38 346 -11 q 122 175 169 86 q 74 381 74 264 q 83 488 74 435 q 188 746 108 632 q 385 923 268 860 q 638 986 503 986 m 633 961 q 401 903 511 961 q 215 738 292 846 q 113 488 138 631 q 103 382 103 438 q 149 186 103 269 q 278 58 196 103 q 467 14 360 14 q 699 72 589 14 q 885 237 808 129 q 988 488 963 344 q 997 593 997 540 q 951 789 997 706 q 822 917 904 872 q 633 961 740 961 z "},"P":{"ha":733,"x_min":32,"x_max":722,"o":"m 138 440 l 60 0 l 32 0 l 204 978 l 451 978 q 722 771 722 978 q 717 708 722 738 q 602 507 693 574 q 357 440 511 440 l 138 440 m 363 469 q 591 532 513 469 q 689 708 669 594 q 694 771 694 738 q 636 905 694 860 q 447 950 578 950 l 228 950 l 143 469 l 363 469 z "},"Q":{"ha":1100,"x_min":75,"x_max":1028,"o":"m 1018 488 q 897 206 990 328 q 668 29 803 85 l 926 -207 l 878 -207 l 632 17 q 464 -11 551 -11 q 259 38 347 -11 q 123 175 171 86 q 75 381 75 264 q 85 488 75 435 q 190 746 110 632 q 387 923 269 860 q 639 986 504 986 q 844 938 756 986 q 980 800 932 889 q 1028 594 1028 711 q 1018 488 1028 540 m 468 14 q 700 72 590 14 q 887 237 810 129 q 989 488 964 344 q 999 593 999 540 q 952 789 999 706 q 824 917 906 872 q 635 961 742 961 q 403 903 513 961 q 216 738 293 846 q 114 488 139 631 q 104 382 104 438 q 151 186 104 269 q 279 58 197 103 q 468 14 361 14 z "},"R":{"ha":743,"x_min":32,"x_max":721,"o":"m 451 978 q 655 922 589 978 q 721 767 721 865 q 715 701 721 731 q 606 502 693 572 q 375 426 518 432 l 601 0 l 567 0 l 342 426 l 135 426 l 60 0 l 32 0 l 204 978 l 451 978 m 688 701 q 693 765 693 731 q 447 950 693 950 l 228 950 l 140 456 l 360 456 q 688 701 644 456 z "},"S":{"ha":744,"x_min":40,"x_max":689,"o":"m 617 221 q 572 110 607 163 q 473 24 536 58 q 322 -10 410 -10 q 167 26 231 -10 q 72 119 103 63 q 43 235 40 175 l 71 235 q 93 137 69 188 q 174 51 117 86 q 326 15 232 15 q 505 74 436 15 q 589 221 574 132 q 594 276 594 260 q 563 386 594 344 q 485 450 531 428 q 361 499 439 472 q 236 546 283 524 q 157 611 189 568 q 125 722 125 654 q 131 782 125 753 q 223 929 146 871 q 421 988 300 988 q 567 956 507 988 q 656 876 626 924 q 689 776 686 828 l 661 776 q 634 860 658 818 q 556 933 610 903 q 417 963 501 963 q 244 915 314 963 q 158 782 174 868 q 154 731 154 753 q 185 628 154 668 q 259 568 215 589 q 379 521 303 547 q 508 471 460 494 q 589 403 556 447 q 622 285 622 358 q 617 221 622 253 z "},"T":{"ha":653,"x_min":110,"x_max":711,"o":"m 711 978 l 707 953 l 422 953 l 254 0 l 226 0 l 394 953 l 110 953 l 114 978 l 711 978 z "},"U":{"ha":874,"x_min":81,"x_max":850,"o":"m 226 978 l 119 371 q 108 261 108 307 q 174 74 108 133 q 357 15 240 15 q 588 100 493 15 q 715 371 682 185 l 822 978 l 850 978 l 743 371 q 606 83 708 176 q 353 -10 504 -10 q 153 56 225 -10 q 81 258 81 122 q 92 371 81 304 l 199 978 l 226 978 z "},"V":{"ha":860,"x_min":128,"x_max":904,"o":"m 161 978 l 350 49 l 871 978 l 904 978 l 357 0 l 329 0 l 128 978 l 161 978 z "},"W":{"ha":1256,"x_min":135,"x_max":1293,"o":"m 1293 978 l 858 0 l 831 0 l 706 928 l 253 0 l 225 0 l 135 978 l 168 978 l 251 60 l 697 978 l 731 978 l 854 60 l 1260 978 l 1293 978 z "},"X":{"ha":694,"x_min":-44,"x_max":739,"o":"m 363 490 l 567 0 l 535 0 l 339 469 l -12 0 l -44 0 l 328 496 l 128 978 l 160 978 l 353 515 l 707 978 l 739 978 l 363 490 z "},"Y":{"ha":719,"x_min":128,"x_max":764,"o":"m 764 978 l 361 410 l 289 0 l 261 0 l 333 410 l 128 978 l 161 978 l 351 440 l 731 978 l 764 978 z "},"Z":{"ha":676,"x_min":-37,"x_max":700,"o":"m -3 26 l 546 26 l 542 0 l -37 0 l -33 26 l 667 950 l 149 950 l 153 978 l 700 978 l 696 950 l -3 26 z "},"[":{"ha":304,"x_min":-15,"x_max":382,"o":"m 382 1299 l 378 1274 l 275 1274 l 17 -190 l 119 -190 l 115 -215 l -15 -215 l 251 1299 l 382 1299 z "},"\\":{"ha":658,"x_min":175,"x_max":429,"o":"m 400 -217 l 175 1299 l 207 1299 l 429 -217 l 400 -217 z "},"]":{"ha":304,"x_min":-78,"x_max":319,"o":"m -78 -215 l -74 -190 l 29 -190 l 288 1274 l 185 1274 l 189 1299 l 319 1299 l 53 -215 l -78 -215 z "},"^":{"ha":767,"x_min":-7,"x_max":649,"o":"m 21 242 l -7 242 l 438 949 l 454 949 l 649 242 l 621 242 l 440 907 l 21 242 z "},"_":{"ha":740,"x_min":53,"x_max":688,"o":"m 688 -42 l 682 -67 l 53 -67 l 58 -42 l 688 -42 z "},"`":{"ha":371,"x_min":151,"x_max":385,"o":"m 385 842 l 379 814 l 151 994 l 158 1028 l 385 842 z "},"a":{"ha":932,"x_min":75,"x_max":881,"o":"m 517 760 q 723 690 646 760 q 811 508 800 621 l 854 750 l 881 750 l 747 0 l 721 0 l 764 242 q 613 60 714 129 q 381 -10 511 -10 q 157 69 239 -10 q 75 286 75 149 q 83 375 75 329 q 165 580 104 493 q 318 713 226 667 q 517 760 410 760 m 513 735 q 249 638 357 735 q 111 375 140 542 q 103 289 103 329 q 177 88 103 160 q 385 15 251 15 q 567 60 482 15 q 710 187 653 106 q 788 375 768 268 q 794 454 794 410 q 718 659 794 583 q 513 735 642 735 z "},"b":{"ha":932,"x_min":28,"x_max":833,"o":"m 28 0 l 210 1028 l 236 1028 l 144 508 q 296 690 194 621 q 528 760 397 760 q 751 681 669 760 q 833 464 833 601 q 825 375 833 421 q 743 170 804 257 q 590 37 682 83 q 392 -10 499 -10 q 185 60 263 -10 q 97 242 108 129 l 54 0 l 28 0 m 396 15 q 660 112 551 15 q 797 375 768 208 q 806 461 806 421 q 731 663 806 590 q 524 735 657 735 q 341 690 426 735 q 197 563 256 644 q 121 375 139 482 q 114 296 114 340 q 190 91 114 167 q 396 15 267 15 z "},"c":{"ha":872,"x_min":75,"x_max":813,"o":"m 513 760 q 734 687 656 760 q 810 496 813 614 l 782 496 q 709 671 783 607 q 508 735 635 735 q 335 695 418 735 q 192 575 253 656 q 111 375 132 494 q 103 288 103 328 q 181 85 103 154 q 381 15 260 15 q 605 80 507 15 q 740 254 703 144 l 768 254 q 624 63 728 136 q 376 -10 519 -10 q 157 69 239 -10 q 75 286 75 147 q 83 375 75 328 q 166 581 104 493 q 318 714 228 668 q 513 760 408 760 z "},"d":{"ha":932,"x_min":51,"x_max":906,"o":"m 906 1028 l 724 0 l 697 0 l 740 242 q 589 60 690 129 q 357 -10 488 -10 q 133 69 215 -10 q 51 286 51 149 q 60 375 51 329 q 142 580 81 493 q 294 713 203 667 q 493 760 386 760 q 699 690 622 760 q 788 508 776 621 l 879 1028 l 906 1028 m 489 735 q 225 638 333 735 q 88 375 117 542 q 79 289 79 329 q 153 88 79 160 q 361 15 228 15 q 544 60 458 15 q 687 187 629 106 q 764 375 744 268 q 771 453 771 421 q 694 658 771 582 q 489 735 617 735 z "},"e":{"ha":872,"x_min":75,"x_max":806,"o":"m 513 760 q 674 723 608 760 q 773 626 740 686 q 806 494 806 567 q 800 438 806 476 q 781 363 790 388 l 108 363 q 101 286 101 317 q 181 84 101 153 q 381 15 260 15 q 605 80 507 15 q 740 254 703 144 l 768 254 q 624 63 728 136 q 376 -10 519 -10 q 157 69 239 -10 q 75 286 75 147 q 83 375 75 328 q 166 581 104 493 q 318 714 228 668 q 513 760 408 760 m 767 388 q 779 485 779 442 q 701 672 779 608 q 508 735 624 735 q 338 697 419 735 q 195 581 256 658 q 114 388 135 503 l 767 388 z "},"f":{"ha":442,"x_min":60,"x_max":483,"o":"m 479 1000 q 303 953 358 1000 q 229 803 247 907 l 219 750 l 435 750 l 429 721 l 215 721 l 88 0 l 60 0 l 188 721 l 64 721 l 69 750 l 192 750 l 201 803 q 286 972 221 917 q 483 1028 351 1028 l 479 1000 z "},"g":{"ha":932,"x_min":49,"x_max":883,"o":"m 386 -11 q 162 68 244 -11 q 79 285 79 147 q 88 375 79 328 q 169 580 108 493 q 322 714 231 667 q 522 761 414 761 q 729 692 653 761 q 815 508 806 622 l 858 750 l 883 750 l 746 -28 q 669 -209 728 -132 q 526 -326 610 -286 q 356 -367 443 -367 q 142 -301 221 -367 q 49 -122 64 -235 l 76 -122 q 163 -283 92 -225 q 361 -342 235 -342 q 522 -303 446 -342 q 651 -194 599 -265 q 721 -28 704 -122 l 769 242 q 617 59 718 129 q 386 -11 515 -11 m 517 736 q 253 640 361 736 q 115 375 144 543 q 107 289 107 329 q 182 89 107 161 q 390 17 257 17 q 572 61 488 17 q 715 187 657 106 q 793 375 774 268 q 800 451 800 419 q 723 659 800 582 q 517 736 646 736 z "},"h":{"ha":853,"x_min":56,"x_max":764,"o":"m 513 767 q 694 706 625 767 q 764 524 764 646 q 756 438 764 486 l 679 0 l 653 0 l 731 440 q 738 519 738 475 q 677 685 738 628 q 508 742 617 742 q 287 662 381 742 q 158 425 193 582 l 83 0 l 56 0 l 236 1028 l 264 1028 l 178 540 q 316 710 225 653 q 513 767 407 767 z "},"i":{"ha":264,"x_min":49,"x_max":274,"o":"m 199 971 q 212 1004 199 992 q 243 1017 225 1017 q 265 1008 256 1017 q 274 988 274 1000 q 260 954 274 967 q 229 942 247 942 q 208 950 217 942 q 199 971 199 958 m 210 750 l 76 0 l 49 0 l 182 750 l 210 750 z "},"j":{"ha":278,"x_min":-169,"x_max":283,"o":"m 239 942 q 217 950 226 942 q 208 971 208 958 q 222 1004 208 992 q 253 1017 235 1017 q 274 1008 265 1017 q 283 988 283 1000 q 270 954 283 967 q 239 942 257 942 m -164 -325 l -114 -325 q -21 -298 -53 -325 q 24 -203 11 -271 l 192 750 l 219 750 l 50 -211 q -2 -316 38 -279 q -119 -353 -42 -353 l -169 -353 l -164 -325 z "},"k":{"ha":549,"x_min":28,"x_max":567,"o":"m 135 381 l 444 0 l 401 0 l 117 351 l 56 0 l 28 0 l 208 1028 l 236 1028 l 128 407 l 525 750 l 567 750 l 135 381 z "},"l":{"ha":264,"x_min":56,"x_max":264,"o":"m 264 1028 l 83 0 l 56 0 l 236 1028 l 264 1028 z "},"m":{"ha":1393,"x_min":50,"x_max":1300,"o":"m 1065 767 q 1235 707 1171 767 q 1300 526 1300 647 q 1292 438 1300 486 l 1214 0 l 1188 0 l 1265 440 q 1274 525 1274 486 q 1217 687 1274 632 q 1060 742 1161 742 q 841 657 933 742 q 718 406 749 572 l 646 0 l 619 0 l 697 440 q 706 525 706 486 q 649 687 706 632 q 492 742 593 742 q 273 657 365 742 q 150 406 181 572 l 78 0 l 50 0 l 183 750 l 211 750 l 174 540 q 308 710 221 653 q 497 767 396 767 q 669 706 604 767 q 732 521 733 644 q 867 705 775 643 q 1065 767 958 767 z "},"n":{"ha":853,"x_min":50,"x_max":760,"o":"m 508 767 q 690 706 621 767 q 760 522 760 644 q 751 438 760 483 l 674 0 l 647 0 l 725 440 q 733 521 733 485 q 672 685 733 629 q 503 742 611 742 q 276 657 371 742 q 150 406 181 572 l 78 0 l 50 0 l 183 750 l 211 750 l 174 539 q 311 710 219 653 q 508 767 403 767 z "},"o":{"ha":899,"x_min":75,"x_max":824,"o":"m 518 760 q 740 681 657 760 q 824 463 824 601 q 815 375 824 421 q 732 170 794 257 q 578 37 669 83 q 382 -10 486 -10 q 159 69 243 -10 q 75 288 75 149 q 83 375 75 329 q 167 580 104 493 q 322 713 231 667 q 518 760 414 760 m 514 735 q 340 695 424 735 q 194 574 256 656 q 111 375 132 493 q 103 290 103 329 q 183 85 103 156 q 386 15 264 15 q 560 55 476 15 q 705 175 643 94 q 788 375 767 256 q 796 461 796 421 q 716 665 796 596 q 514 735 636 735 z "},"p":{"ha":932,"x_min":-8,"x_max":860,"o":"m 554 760 q 778 681 696 760 q 860 464 860 601 q 851 375 860 421 q 769 170 831 257 q 616 37 707 83 q 418 -10 525 -10 q 210 60 288 -10 q 124 242 133 129 l 18 -353 l -8 -353 l 186 750 l 213 750 l 171 508 q 322 690 221 621 q 554 760 424 760 m 422 15 q 685 112 576 15 q 824 375 793 208 q 832 461 832 421 q 757 663 832 590 q 549 735 682 735 q 367 690 451 735 q 224 563 282 644 q 147 375 165 482 q 140 296 140 340 q 217 91 140 167 q 422 15 293 15 z "},"q":{"ha":932,"x_min":64,"x_max":868,"o":"m 868 750 l 674 -353 l 647 -353 l 753 242 q 601 60 703 129 q 369 -10 499 -10 q 146 69 228 -10 q 64 285 64 147 q 72 375 64 328 q 154 580 93 493 q 307 713 215 667 q 506 760 399 760 q 712 690 635 760 q 800 508 789 621 l 842 750 l 868 750 m 500 735 q 237 638 344 735 q 100 375 129 542 q 92 288 92 329 q 167 88 92 160 q 374 15 242 15 q 556 60 471 15 q 699 187 642 106 q 776 375 757 268 q 783 453 783 419 q 706 658 783 582 q 500 735 629 735 z "},"r":{"ha":469,"x_min":50,"x_max":510,"o":"m 179 569 q 510 767 263 767 l 504 736 l 492 736 q 282 670 376 736 q 158 457 188 604 l 78 0 l 50 0 l 183 750 l 211 750 l 179 569 z "},"s":{"ha":643,"x_min":35,"x_max":603,"o":"m 346 760 q 537 699 471 760 q 596 531 603 638 l 568 531 q 518 676 574 618 q 342 735 463 735 q 192 684 249 735 q 135 556 135 633 q 160 477 135 507 q 224 431 186 447 q 328 396 263 415 q 443 356 400 375 q 516 301 486 338 q 546 203 546 264 q 540 151 546 190 q 467 35 528 79 q 315 -10 407 -10 q 109 52 183 -10 q 42 219 35 114 l 69 219 q 126 74 63 132 q 321 15 190 15 q 450 53 399 15 q 513 151 501 92 q 517 193 517 175 q 489 283 517 249 q 420 334 461 317 q 311 371 379 351 q 202 409 242 392 q 135 460 163 426 q 107 549 107 493 q 111 593 107 568 q 188 715 125 671 q 346 760 250 760 z "},"t":{"ha":469,"x_min":72,"x_max":463,"o":"m 129 197 q 122 131 122 156 q 153 50 122 72 q 257 28 185 28 l 336 28 l 331 0 l 249 0 q 131 30 168 0 q 94 128 94 60 q 101 197 94 153 l 194 722 l 72 722 l 76 750 l 200 750 l 233 942 l 261 942 l 228 750 l 463 750 l 458 722 l 222 722 l 129 197 z "},"u":{"ha":832,"x_min":72,"x_max":782,"o":"m 782 750 l 649 0 l 621 0 l 658 211 q 521 40 613 97 q 324 -17 429 -17 q 142 44 211 -17 q 72 228 72 106 q 81 313 72 267 l 158 750 l 185 750 l 107 310 q 99 229 99 267 q 160 65 99 121 q 329 8 221 8 q 556 93 461 8 q 682 344 651 178 l 754 750 l 782 750 z "},"v":{"ha":715,"x_min":94,"x_max":754,"o":"m 301 49 l 724 750 l 754 750 l 301 0 l 281 0 l 94 750 l 125 750 l 301 49 z "},"w":{"ha":1115,"x_min":94,"x_max":1154,"o":"m 1154 750 l 785 0 l 764 0 l 615 700 l 218 0 l 197 0 l 94 750 l 125 750 l 221 57 l 613 750 l 636 750 l 783 57 l 1124 750 l 1154 750 z "},"x":{"ha":578,"x_min":-39,"x_max":610,"o":"m 307 378 l 483 0 l 450 0 l 283 356 l -8 0 l -39 0 l 271 383 l 100 750 l 133 750 l 294 404 l 579 750 l 610 750 l 307 378 z "},"y":{"ha":699,"x_min":69,"x_max":726,"o":"m 114 750 l 292 40 l 696 750 l 726 750 l 104 -353 l 69 -353 l 269 -1 l 83 750 l 114 750 z "},"z":{"ha":565,"x_min":-25,"x_max":576,"o":"m 10 25 l 463 25 l 457 0 l -25 0 l -19 25 l 540 725 l 117 725 l 122 750 l 576 750 l 571 725 l 10 25 z "},"{":{"ha":407,"x_min":53,"x_max":510,"o":"m 72 515 q 172 453 139 500 q 204 340 204 406 q 200 289 204 314 q 185 230 196 260 q 164 172 175 200 q 132 85 143 121 q 113 1 121 50 q 107 -58 107 -26 q 142 -200 107 -139 q 222 -296 176 -261 l 221 -301 l 193 -301 q 117 -213 154 -275 q 79 -61 79 -151 q 86 10 79 -32 q 104 86 93 51 q 135 172 115 121 q 172 289 164 243 q 178 346 178 322 q 53 500 178 458 l 58 533 q 201 619 163 564 q 253 744 240 675 q 258 813 258 774 q 257 863 258 844 l 256 919 q 264 1024 256 979 q 354 1222 286 1143 q 482 1335 422 1301 l 510 1335 l 508 1329 q 375 1210 439 1288 q 293 1032 311 1133 q 283 918 283 979 l 285 861 q 286 815 286 846 q 281 744 286 778 q 213 599 265 663 q 72 518 160 536 l 72 515 z "},"|":{"ha":264,"x_min":13,"x_max":251,"o":"m 40 -119 l 13 -119 l 224 1081 l 251 1081 l 40 -119 z "},"}":{"ha":421,"x_min":-89,"x_max":368,"o":"m 349 518 q 249 581 282 533 q 217 693 217 628 q 221 744 217 719 q 235 803 225 774 q 257 861 246 833 q 288 948 276 913 q 308 1032 300 983 q 314 1092 314 1060 q 279 1233 314 1172 q 199 1329 244 1294 l 200 1335 l 228 1335 q 304 1247 267 1308 q 342 1094 342 1185 q 335 1024 342 1065 q 317 947 328 982 q 286 861 306 913 q 249 744 257 790 q 243 688 243 711 q 368 533 243 575 l 363 500 q 219 414 258 469 q 168 289 181 358 q 163 221 163 260 q 164 171 163 189 l 165 114 q 157 10 165 54 q 67 -189 135 -110 q -61 -301 -1 -268 l -89 -301 l -87 -296 q 46 -177 -18 -254 q 128 1 110 -100 q 138 115 138 56 l 136 172 q 135 218 135 188 q 140 289 135 256 q 208 434 156 371 q 349 515 261 497 l 349 518 z "},"~":{"ha":572,"x_min":44,"x_max":528,"o":"m 190 510 q 244 498 222 510 q 299 461 267 486 q 347 428 328 439 q 392 417 365 417 q 456 444 426 417 q 500 510 486 471 l 528 510 q 469 420 507 453 q 382 388 432 388 q 327 400 350 388 q 275 436 304 413 q 226 469 246 458 q 181 481 207 481 q 116 453 146 481 q 72 388 86 426 l 44 388 q 103 477 65 444 q 190 510 140 510 z "}," ":{"ha":403,"x_min":0,"x_max":0,"o":""},"¡":{"ha":311,"x_min":33,"x_max":267,"o":"m 33 -211 l 182 535 l 200 535 l 69 -211 l 33 -211 m 181 699 l 194 767 l 267 767 l 254 699 l 181 699 z "},"¢":{"ha":817,"x_min":78,"x_max":751,"o":"m 481 718 q 681 644 611 717 q 749 454 751 572 l 721 454 q 655 629 722 565 q 474 693 588 693 q 316 658 392 693 q 185 552 240 624 q 113 375 131 481 q 106 300 106 331 q 178 119 106 181 q 363 57 251 57 q 566 121 476 57 q 693 296 656 185 l 721 296 q 585 106 681 178 q 360 32 489 33 l 332 -129 l 304 -129 l 333 33 q 147 110 217 40 q 78 299 78 181 q 85 375 78 331 q 155 551 103 475 q 285 669 207 626 q 453 717 363 711 l 479 865 l 507 865 l 481 718 z "},"£":{"ha":750,"x_min":63,"x_max":756,"o":"m 510 988 q 694 913 632 988 q 749 724 756 838 l 721 724 q 669 895 728 828 q 506 963 611 963 q 330 903 408 963 q 231 728 251 843 q 224 656 224 686 q 228 588 224 621 q 240 524 233 554 q 249 479 246 493 l 515 479 l 511 456 l 253 456 q 264 351 264 386 q 258 288 264 317 q 207 153 246 213 q 96 28 168 94 l 618 28 l 613 0 l 67 0 l 67 26 q 149 114 121 82 q 199 188 176 146 q 232 281 222 229 q 238 342 238 308 q 224 456 238 381 l 63 456 l 67 479 l 219 479 q 201 576 207 542 q 196 650 196 610 q 203 728 196 682 q 303 915 222 842 q 510 988 385 988 z "},"¤":{"ha":696,"x_min":57,"x_max":636,"o":"m 533 683 q 561 575 561 636 q 557 524 561 551 q 479 365 542 435 l 550 282 l 528 264 l 460 347 q 385 301 425 317 q 304 285 344 285 q 227 301 261 285 q 169 346 193 317 l 74 264 l 57 282 l 158 365 q 133 467 133 407 q 139 524 133 485 q 215 682 156 618 l 143 768 l 165 786 l 235 701 q 389 763 304 763 q 463 747 428 763 q 521 701 497 731 l 619 786 l 636 768 l 533 683 m 529 524 q 533 572 533 549 q 491 692 533 647 q 385 738 449 738 q 245 679 306 738 q 167 524 185 621 q 161 471 161 485 q 201 352 161 394 q 310 310 242 310 q 404 335 358 310 q 484 410 450 361 q 529 524 518 458 z "},"¥":{"ha":782,"x_min":69,"x_max":799,"o":"m 446 481 l 686 481 l 682 456 l 428 456 l 396 410 l 379 318 l 657 318 l 653 290 l 375 290 l 324 0 l 296 0 l 347 290 l 69 290 l 74 318 l 351 318 l 368 410 l 351 456 l 99 456 l 103 481 l 343 481 l 163 978 l 196 978 l 386 440 l 765 978 l 799 978 l 446 481 z "},"¦":{"ha":264,"x_min":13,"x_max":251,"o":"m 224 1081 l 251 1081 l 165 594 l 138 594 l 224 1081 m 40 -119 l 13 -119 l 99 368 l 126 368 l 40 -119 z "},"§":{"ha":786,"x_min":60,"x_max":726,"o":"m 456 1038 q 655 977 583 1038 q 724 807 726 917 l 696 807 q 678 903 700 857 q 599 981 656 950 q 451 1013 543 1013 q 296 976 358 1013 q 221 869 233 940 q 218 840 218 850 q 267 741 218 781 q 426 675 315 701 q 635 597 563 643 q 707 458 707 550 q 703 417 707 440 q 650 307 692 358 q 540 224 608 256 q 385 192 471 192 q 342 193 356 192 l 340 188 q 526 124 456 164 q 596 -3 596 83 q 527 -148 596 -92 q 332 -204 458 -204 q 132 -144 204 -204 q 63 26 60 -83 l 90 26 q 144 -119 88 -60 q 336 -179 201 -179 q 504 -135 440 -179 q 568 -3 568 -90 q 520 94 568 58 q 360 158 472 131 q 151 237 224 190 q 79 375 79 283 q 83 417 79 394 q 136 526 94 475 q 247 610 178 578 q 401 642 315 642 q 444 640 431 642 l 446 646 q 263 713 336 669 q 190 838 190 756 q 260 981 190 925 q 456 1038 329 1038 m 425 621 q 256 588 328 621 q 146 499 183 554 q 108 383 108 444 q 174 258 108 304 q 361 213 240 213 q 531 246 458 213 q 640 334 603 279 q 678 450 678 389 q 612 575 678 529 q 425 621 546 621 z "},"¨":{"ha":443,"x_min":171,"x_max":439,"o":"m 171 906 q 185 940 171 925 q 219 954 200 954 q 244 944 235 954 q 254 919 254 935 q 240 886 254 901 q 206 871 225 871 q 181 881 190 871 q 171 906 171 890 m 357 906 q 372 940 357 925 q 406 954 386 954 q 429 944 419 954 q 439 919 439 935 q 424 885 439 900 q 392 871 410 871 q 367 881 376 871 q 357 906 357 890 z "},"©":{"ha":1115,"x_min":74,"x_max":1042,"o":"m 644 975 q 385 913 504 975 q 187 741 265 851 q 83 489 108 631 q 74 388 74 428 q 122 185 74 272 q 260 51 169 99 q 472 3 350 3 q 733 65 614 3 q 929 237 851 126 q 1032 489 1007 347 q 1042 592 1042 553 q 994 792 1042 706 q 856 927 946 879 q 644 975 767 975 m 640 950 q 841 904 757 950 q 969 776 925 858 q 1014 588 1014 694 q 1004 489 1014 550 q 907 252 981 357 q 722 88 833 147 q 476 28 610 28 q 275 74 360 28 q 146 201 190 119 q 101 390 101 283 q 111 489 101 428 q 208 726 135 621 q 394 890 282 831 q 640 950 506 950 m 621 819 q 788 763 719 819 q 865 604 856 707 l 836 604 q 763 743 824 694 q 615 792 701 792 q 476 757 543 792 q 359 653 408 722 q 293 488 310 585 q 286 417 286 446 q 350 247 286 307 q 510 186 414 186 q 673 235 596 186 q 794 374 750 283 l 824 374 q 690 215 778 271 q 504 158 603 158 q 327 224 396 158 q 258 411 258 290 q 265 490 258 456 q 338 669 283 594 q 466 781 392 743 q 621 819 540 819 z "},"ª":{"ha":601,"x_min":50,"x_max":558,"o":"m 325 985 q 452 944 406 985 q 506 833 499 904 l 531 976 l 558 976 l 472 492 l 444 492 l 469 633 q 378 522 439 563 q 236 482 317 482 q 100 534 150 482 q 50 674 50 586 q 56 733 50 706 q 149 915 75 846 q 325 985 224 985 m 321 960 q 168 898 235 960 q 83 733 101 836 q 78 678 78 707 q 122 553 78 599 q 240 507 167 507 q 401 569 333 507 q 488 733 469 631 q 492 785 492 761 q 446 913 492 865 q 321 960 400 960 z "},"«":{"ha":519,"x_min":63,"x_max":493,"o":"m 168 167 l 63 410 l 254 653 l 292 653 l 97 410 l 206 167 l 168 167 m 369 167 l 264 410 l 456 653 l 493 653 l 299 410 l 407 167 l 369 167 z "},"¬":{"ha":983,"x_min":97,"x_max":942,"o":"m 942 589 l 900 354 l 875 354 l 911 561 l 97 561 l 103 589 l 942 589 z "},"­":{"ha":617,"x_min":78,"x_max":589,"o":"m 589 540 l 583 515 l 78 515 l 83 540 l 589 540 z "},"®":{"ha":1093,"x_min":74,"x_max":1019,"o":"m 633 976 q 839 931 751 976 q 973 801 926 886 q 1019 601 1019 717 q 1010 490 1019 544 q 907 238 985 349 q 713 64 829 126 q 461 1 597 1 q 256 49 343 1 q 121 185 168 97 q 74 386 74 272 q 83 490 74 440 q 188 747 110 636 q 381 917 265 857 q 633 976 497 976 m 982 490 q 992 597 992 543 q 896 856 992 761 q 629 951 800 951 q 388 894 497 951 q 207 733 279 838 q 111 490 135 628 q 101 389 101 429 q 198 133 101 228 q 468 39 294 39 q 708 95 600 39 q 888 254 817 151 q 982 490 958 357 m 629 831 q 768 795 722 831 q 814 696 814 760 q 811 660 814 672 q 734 531 796 575 q 574 486 672 488 l 726 194 l 693 194 l 543 486 l 401 486 l 350 194 l 322 194 l 433 831 l 629 831 m 783 660 q 788 696 788 679 q 749 778 788 750 q 625 806 710 806 l 457 806 l 406 513 l 574 513 q 720 551 671 513 q 783 660 769 589 z "},"¯":{"ha":540,"x_min":136,"x_max":571,"o":"m 571 940 l 565 915 l 136 915 l 142 940 l 571 940 z "},"°":{"ha":494,"x_min":36,"x_max":458,"o":"m 289 960 q 413 911 368 960 q 458 779 458 863 q 453 721 458 749 q 366 548 433 614 q 206 482 299 482 q 81 531 126 482 q 36 663 36 579 q 42 721 36 693 q 128 894 61 828 q 289 960 196 960 m 285 935 q 145 878 203 935 q 69 721 88 821 q 64 663 64 693 q 102 548 64 589 q 210 507 140 507 q 349 564 292 507 q 425 721 407 621 q 431 779 431 749 q 392 894 431 853 q 285 935 354 935 z "},"±":{"ha":818,"x_min":-11,"x_max":774,"o":"m 774 568 l 769 543 l 429 543 l 374 229 l 346 229 l 401 543 l 63 543 l 67 568 l 406 568 l 461 882 l 489 882 l 433 568 l 774 568 m -7 151 l 700 151 l 696 126 l -11 126 l -7 151 z "},"²":{"ha":418,"x_min":13,"x_max":368,"o":"m 365 847 q 316 738 354 786 q 204 631 278 690 l 61 514 l 324 514 l 319 489 l 13 489 l 14 503 l 200 660 q 294 751 260 710 q 338 847 328 792 q 340 874 340 867 q 315 936 340 915 q 249 957 290 957 q 155 924 193 957 q 100 831 117 892 l 72 831 q 135 939 89 896 q 253 982 181 982 q 337 954 306 982 q 368 876 368 926 q 365 847 368 869 z "},"³":{"ha":419,"x_min":29,"x_max":386,"o":"m 260 982 q 351 953 317 982 q 386 874 386 924 q 356 784 386 822 q 269 732 325 746 l 269 729 q 324 695 304 719 q 344 636 344 671 q 342 610 344 629 q 287 520 333 558 q 167 482 240 482 q 35 617 29 482 l 63 617 q 88 532 58 557 q 171 507 117 507 q 276 541 238 507 q 315 631 315 575 q 285 694 315 671 q 204 717 254 717 l 119 717 l 124 742 l 213 742 q 307 770 268 742 q 356 849 346 799 q 357 868 357 856 q 329 931 357 907 q 254 954 301 954 q 161 929 199 954 q 107 860 124 904 l 79 860 q 145 948 99 914 q 260 982 192 982 z "},"´":{"ha":371,"x_min":119,"x_max":418,"o":"m 411 994 l 119 814 l 125 842 l 418 1028 l 411 994 z "},"µ":{"ha":860,"x_min":21,"x_max":839,"o":"m 839 750 l 707 0 l 679 0 l 717 210 q 583 40 669 97 q 399 -17 497 -17 q 226 35 297 -17 q 146 206 156 88 l 47 -353 l 21 -353 l 215 750 l 242 750 l 174 365 q 164 261 164 313 q 228 72 164 136 q 403 8 292 8 q 620 95 529 8 q 740 351 711 182 l 740 349 l 811 750 l 839 750 z "},"¶":{"ha":679,"x_min":58,"x_max":644,"o":"m 478 0 l 450 0 l 613 925 l 463 925 l 300 0 l 272 0 l 344 413 l 343 413 q 130 469 201 413 q 58 625 58 525 q 64 681 58 642 q 183 878 86 806 q 438 950 279 950 l 644 950 l 478 0 z "},"·":{"ha":157,"x_min":92,"x_max":172,"o":"m 172 533 l 161 465 l 92 465 l 103 533 l 172 533 z "},"¸":{"ha":346,"x_min":24,"x_max":282,"o":"m 124 -124 q 241 -145 200 -119 q 282 -222 282 -171 q 238 -318 282 -283 q 114 -353 194 -353 l 24 -353 l 29 -325 l 113 -325 q 253 -225 253 -325 q 226 -169 253 -190 q 143 -149 200 -149 l 92 -149 l 119 10 l 147 10 l 124 -124 z "},"¹":{"ha":214,"x_min":88,"x_max":201,"o":"m 94 953 l 99 978 l 201 978 l 115 489 l 88 489 l 169 953 l 94 953 z "},"º":{"ha":572,"x_min":50,"x_max":525,"o":"m 332 985 q 472 931 419 985 q 525 786 525 876 q 519 731 525 769 q 467 598 507 656 q 368 508 426 540 q 243 476 310 476 q 103 531 156 476 q 50 675 50 585 q 56 731 50 692 q 108 863 68 806 q 207 953 149 921 q 332 985 265 985 m 328 957 q 171 897 239 957 q 83 731 103 836 q 78 675 78 704 q 124 549 78 593 q 247 504 171 504 q 404 565 336 504 q 492 731 472 625 q 497 786 497 757 q 451 913 497 868 q 328 957 404 957 z "},"»":{"ha":519,"x_min":26,"x_max":457,"o":"m 222 410 l 113 653 l 151 653 l 256 410 l 65 167 l 26 167 l 222 410 m 424 410 l 314 653 l 353 653 l 457 410 l 267 167 l 228 167 l 424 410 z "},"¼":{"ha":739,"x_min":21,"x_max":704,"o":"m 704 978 l 49 0 l 21 0 l 676 978 l 704 978 m 153 953 l 157 978 l 260 978 l 174 489 l 146 489 l 228 953 l 153 953 m 615 106 l 539 106 l 521 0 l 493 0 l 511 106 l 272 106 l 278 131 l 588 493 l 608 493 l 544 133 l 621 133 l 615 106 m 568 429 l 311 133 l 517 133 l 568 429 z "},"½":{"ha":824,"x_min":11,"x_max":732,"o":"m 694 978 l 39 0 l 11 0 l 667 978 l 694 978 m 164 489 l 246 953 l 171 953 l 175 978 l 278 978 l 192 489 l 164 489 m 729 357 q 680 248 718 296 q 568 140 642 200 l 425 24 l 688 24 l 683 -1 l 376 -1 l 378 13 l 564 169 q 658 260 624 219 q 701 357 692 301 q 704 383 704 376 q 679 446 704 425 q 613 467 654 467 q 519 434 557 467 q 464 340 481 401 l 436 340 q 499 449 453 406 q 617 492 544 492 q 701 464 669 492 q 732 386 732 436 q 729 357 732 379 z "},"¾":{"ha":739,"x_min":56,"x_max":760,"o":"m 286 982 q 378 953 343 982 q 413 874 413 924 q 382 784 413 822 q 296 732 351 746 l 296 729 q 351 695 331 719 q 371 636 371 671 q 368 610 371 629 q 313 520 360 558 q 193 482 267 482 q 61 617 56 482 l 89 617 q 114 532 85 557 q 197 507 143 507 q 303 541 264 507 q 342 631 342 575 q 311 694 342 671 q 231 717 281 717 l 146 717 l 150 742 l 239 742 q 333 770 294 742 q 382 849 372 799 q 383 868 383 856 q 356 931 383 907 q 281 954 328 954 q 188 929 225 954 q 133 860 150 904 l 106 860 q 172 948 125 914 q 286 982 218 982 m 760 978 l 104 0 l 76 0 l 732 978 l 760 978 m 643 106 l 567 106 l 549 0 l 521 0 l 539 106 l 300 106 l 304 131 l 614 493 l 635 493 l 572 133 l 649 133 l 643 106 m 596 429 l 339 133 l 544 133 l 596 429 z "},"¿":{"ha":642,"x_min":-1,"x_max":575,"o":"m 244 -242 q 64 -179 129 -242 q -1 -10 -1 -117 q 4 53 -1 24 q 140 269 29 206 q 419 333 250 332 l 456 535 l 483 535 l 443 308 l 421 308 q 32 53 75 308 q 26 -11 26 24 q 85 -162 26 -108 q 249 -217 144 -217 q 443 -154 369 -217 q 547 21 517 -92 l 575 21 q 458 -174 543 -106 q 244 -242 372 -242 m 458 678 l 471 746 l 540 746 l 528 678 l 458 678 z "},"À":{"ha":835,"x_min":-42,"x_max":710,"o":"m 624 269 l 140 269 l -10 0 l -42 0 l 488 949 l 515 949 l 710 0 l 678 0 l 624 269 m 618 294 l 494 904 l 154 294 l 618 294 m 518 1069 l 513 1042 l 285 1222 l 292 1256 l 518 1069 z "},"Á":{"ha":835,"x_min":-42,"x_max":815,"o":"m 624 269 l 140 269 l -10 0 l -42 0 l 488 949 l 515 949 l 710 0 l 678 0 l 624 269 m 618 294 l 494 904 l 154 294 l 618 294 m 808 1222 l 517 1042 l 522 1069 l 815 1256 l 808 1222 z "},"Â":{"ha":835,"x_min":-39,"x_max":713,"o":"m 626 269 l 143 269 l -7 0 l -39 0 l 490 949 l 518 949 l 713 0 l 681 0 l 626 269 m 621 294 l 497 904 l 157 294 l 621 294 m 551 1201 l 360 1089 l 365 1117 l 557 1229 l 708 1117 l 703 1089 l 551 1201 z "},"Ã":{"ha":835,"x_min":-33,"x_max":718,"o":"m 632 269 l 149 269 l -1 0 l -33 0 l 496 949 l 524 949 l 718 0 l 686 0 l 632 269 m 626 294 l 503 904 l 163 294 l 626 294 m 481 1158 q 519 1149 504 1158 q 551 1122 533 1140 q 583 1097 569 1106 q 618 1089 597 1089 q 662 1106 642 1089 q 690 1154 682 1124 l 715 1154 q 678 1090 707 1117 q 614 1064 649 1064 q 572 1074 589 1064 q 538 1101 556 1083 q 507 1126 519 1118 q 476 1133 494 1133 q 406 1067 426 1133 l 381 1067 q 419 1134 393 1110 q 481 1158 446 1158 z "},"Ä":{"ha":835,"x_min":-35,"x_max":717,"o":"m 631 269 l 147 269 l -3 0 l -35 0 l 494 949 l 522 949 l 717 0 l 685 0 l 631 269 m 625 294 l 501 904 l 161 294 l 625 294 m 414 1133 q 428 1167 414 1153 q 463 1182 443 1182 q 488 1172 478 1182 q 497 1147 497 1163 q 483 1114 497 1129 q 449 1099 468 1099 q 424 1108 433 1099 q 414 1133 414 1118 m 600 1133 q 615 1167 600 1153 q 649 1182 629 1182 q 672 1172 663 1182 q 682 1147 682 1163 q 667 1113 682 1128 q 635 1099 653 1099 q 610 1108 619 1099 q 600 1133 600 1118 z "},"Å":{"ha":835,"x_min":-49,"x_max":703,"o":"m 617 269 l 133 269 l -17 0 l -49 0 l 481 949 l 508 949 l 703 0 l 671 0 l 617 269 m 611 294 l 488 904 l 147 294 l 611 294 m 556 1332 q 631 1305 601 1332 q 661 1233 661 1278 q 616 1124 661 1167 q 511 1082 571 1082 q 435 1109 465 1082 q 406 1181 406 1136 q 451 1290 406 1247 q 556 1332 496 1332 m 551 1307 q 469 1274 503 1307 q 435 1185 435 1240 q 457 1128 435 1149 q 515 1107 479 1107 q 598 1140 564 1107 q 632 1229 632 1174 q 610 1286 632 1265 q 551 1307 588 1307 z "},"Æ":{"ha":1163,"x_min":-72,"x_max":1179,"o":"m 725 953 l 646 501 l 1054 501 l 1049 476 l 640 476 l 561 25 l 1011 25 l 1007 0 l 529 0 l 576 269 l 174 269 l -40 0 l -72 0 l 701 978 l 1179 978 l 1175 953 l 725 953 m 693 926 l 193 294 l 582 294 l 693 926 z "},"Ç":{"ha":1068,"x_min":88,"x_max":1033,"o":"m 640 988 q 908 908 811 988 q 1033 689 1006 829 l 1006 689 q 889 888 982 813 q 636 963 796 963 q 410 905 517 963 q 227 740 303 847 q 126 488 151 632 q 117 381 117 435 q 162 185 117 268 q 287 59 207 103 q 469 15 367 15 q 749 90 629 15 q 935 288 869 164 l 963 288 q 761 69 886 147 q 465 -10 636 -10 q 266 39 351 -10 q 134 176 181 88 q 88 379 88 264 q 97 488 88 435 q 201 747 122 633 q 394 924 279 860 q 640 988 508 988 m 499 -124 q 616 -145 575 -119 q 657 -222 657 -171 q 613 -318 657 -283 q 489 -353 569 -353 l 399 -353 l 404 -325 l 488 -325 q 628 -225 628 -325 q 601 -169 628 -190 q 518 -149 575 -149 l 467 -149 l 494 10 l 522 10 l 499 -124 z "},"È":{"ha":665,"x_min":32,"x_max":682,"o":"m 228 953 l 149 501 l 557 501 l 551 476 l 143 476 l 64 25 l 514 25 l 510 0 l 32 0 l 204 978 l 682 978 l 678 953 l 228 953 m 458 1069 l 453 1042 l 225 1222 l 232 1256 l 458 1069 z "},"É":{"ha":665,"x_min":32,"x_max":756,"o":"m 228 953 l 149 501 l 557 501 l 551 476 l 143 476 l 64 25 l 514 25 l 510 0 l 32 0 l 204 978 l 682 978 l 678 953 l 228 953 m 749 1222 l 457 1042 l 463 1069 l 756 1256 l 749 1222 z "},"Ê":{"ha":665,"x_min":35,"x_max":685,"o":"m 231 953 l 151 501 l 560 501 l 554 476 l 146 476 l 67 25 l 517 25 l 513 0 l 35 0 l 207 978 l 685 978 l 681 953 l 231 953 m 492 1201 l 300 1089 l 306 1117 l 497 1229 l 649 1117 l 643 1089 l 492 1201 z "},"Ë":{"ha":665,"x_min":39,"x_max":689,"o":"m 235 953 l 156 501 l 564 501 l 558 476 l 150 476 l 71 25 l 521 25 l 517 0 l 39 0 l 211 978 l 689 978 l 685 953 l 235 953 m 354 1133 q 369 1167 354 1153 q 403 1182 383 1182 q 428 1172 418 1182 q 438 1147 438 1163 q 423 1114 438 1129 q 389 1099 408 1099 q 364 1108 374 1099 q 354 1133 354 1118 m 540 1133 q 555 1167 540 1153 q 589 1182 569 1182 q 613 1172 603 1182 q 622 1147 622 1163 q 608 1113 622 1128 q 575 1099 593 1099 q 550 1108 560 1099 q 540 1133 540 1118 z "},"Ì":{"ha":264,"x_min":0,"x_max":233,"o":"m 232 978 l 60 0 l 32 0 l 204 978 l 232 978 m 233 1069 l 228 1042 l 0 1222 l 7 1256 l 233 1069 z "},"Í":{"ha":264,"x_min":32,"x_max":531,"o":"m 232 978 l 60 0 l 32 0 l 204 978 l 232 978 m 524 1222 l 232 1042 l 238 1069 l 531 1256 l 524 1222 z "},"Î":{"ha":264,"x_min":35,"x_max":424,"o":"m 235 978 l 63 0 l 35 0 l 207 978 l 235 978 m 267 1201 l 75 1089 l 81 1117 l 272 1229 l 424 1117 l 418 1089 l 267 1201 z "},"Ï":{"ha":264,"x_min":39,"x_max":397,"o":"m 239 978 l 67 0 l 39 0 l 211 978 l 239 978 m 129 1133 q 144 1167 129 1153 q 178 1182 158 1182 q 203 1172 193 1182 q 213 1147 213 1163 q 198 1114 213 1129 q 164 1099 183 1099 q 139 1108 149 1099 q 129 1133 129 1118 m 315 1133 q 330 1167 315 1153 q 364 1182 344 1182 q 388 1172 378 1182 q 397 1147 397 1163 q 383 1113 397 1128 q 350 1099 368 1099 q 325 1108 335 1099 q 315 1133 315 1118 z "},"Ð":{"ha":1031,"x_min":11,"x_max":958,"o":"m 517 978 q 847 882 735 978 q 958 608 958 786 q 947 489 958 556 q 751 128 906 256 q 344 0 597 0 l 88 0 l 171 476 l 11 476 l 17 501 l 176 501 l 260 978 l 517 978 m 919 489 q 929 601 929 546 q 824 861 929 769 q 513 953 719 953 l 283 953 l 204 501 l 528 501 l 522 476 l 199 476 l 119 25 l 349 25 q 735 147 590 25 q 919 489 881 269 z "},"Ñ":{"ha":899,"x_min":40,"x_max":875,"o":"m 703 0 l 675 0 l 232 926 l 68 0 l 40 0 l 213 976 l 240 976 l 685 51 l 847 976 l 875 976 l 703 0 m 513 1158 q 551 1149 536 1158 q 583 1122 565 1140 q 615 1097 601 1106 q 650 1089 629 1089 q 694 1106 674 1089 q 722 1154 714 1124 l 747 1154 q 710 1090 739 1117 q 646 1064 681 1064 q 604 1074 621 1064 q 569 1101 588 1083 q 539 1126 551 1118 q 508 1133 526 1133 q 438 1067 458 1133 l 413 1067 q 451 1134 425 1110 q 513 1158 478 1158 z "},"Ò":{"ha":1100,"x_min":75,"x_max":1028,"o":"m 639 986 q 844 938 756 986 q 980 800 932 889 q 1028 594 1028 711 q 1018 488 1028 540 q 913 229 993 343 q 716 52 833 115 q 464 -11 599 -11 q 259 38 347 -11 q 123 175 171 86 q 75 381 75 264 q 85 488 75 435 q 190 746 110 632 q 387 923 269 860 q 639 986 504 986 m 635 961 q 403 903 513 961 q 216 738 293 846 q 114 488 139 631 q 104 382 104 438 q 151 186 104 269 q 279 58 197 103 q 468 14 361 14 q 700 72 590 14 q 887 237 810 129 q 989 488 964 344 q 999 593 999 540 q 952 789 999 706 q 824 917 906 872 q 635 961 742 961 m 653 1069 l 647 1042 l 419 1222 l 426 1256 l 653 1069 z "},"Ó":{"ha":1100,"x_min":75,"x_max":1028,"o":"m 639 986 q 844 938 756 986 q 980 800 932 889 q 1028 594 1028 711 q 1018 488 1028 540 q 913 229 993 343 q 716 52 833 115 q 464 -11 599 -11 q 259 38 347 -11 q 123 175 171 86 q 75 381 75 264 q 85 488 75 435 q 190 746 110 632 q 387 923 269 860 q 639 986 504 986 m 635 961 q 403 903 513 961 q 216 738 293 846 q 114 488 139 631 q 104 382 104 438 q 151 186 104 269 q 279 58 197 103 q 468 14 361 14 q 700 72 590 14 q 887 237 810 129 q 989 488 964 344 q 999 593 999 540 q 952 789 999 706 q 824 917 906 872 q 635 961 742 961 m 943 1222 l 651 1042 l 657 1069 l 950 1256 l 943 1222 z "},"Ô":{"ha":1100,"x_min":78,"x_max":1031,"o":"m 642 986 q 847 938 758 986 q 983 800 935 889 q 1031 594 1031 711 q 1021 488 1031 540 q 916 229 996 343 q 719 52 836 115 q 467 -11 601 -11 q 262 38 350 -11 q 126 175 174 86 q 78 381 78 264 q 88 488 78 435 q 192 746 113 632 q 390 923 272 860 q 642 986 507 986 m 638 961 q 406 903 515 961 q 219 738 296 846 q 117 488 142 631 q 107 382 107 438 q 153 186 107 269 q 282 58 200 103 q 471 14 364 14 q 703 72 593 14 q 890 237 813 129 q 992 488 967 344 q 1001 593 1001 540 q 955 789 1001 706 q 826 917 908 872 q 638 961 744 961 m 686 1201 l 494 1089 l 500 1117 l 692 1229 l 843 1117 l 838 1089 l 686 1201 z "},"Õ":{"ha":1100,"x_min":83,"x_max":1036,"o":"m 647 986 q 852 938 764 986 q 988 800 940 889 q 1036 594 1036 711 q 1026 488 1036 540 q 922 229 1001 343 q 724 52 842 115 q 472 -11 607 -11 q 267 38 356 -11 q 131 175 179 86 q 83 381 83 264 q 93 488 83 435 q 198 746 118 632 q 395 923 278 860 q 647 986 513 986 m 643 961 q 411 903 521 961 q 224 738 301 846 q 122 488 147 631 q 113 382 113 438 q 159 186 113 269 q 288 58 206 103 q 476 14 369 14 q 708 72 599 14 q 895 237 818 129 q 997 488 972 344 q 1007 593 1007 540 q 960 789 1007 706 q 832 917 914 872 q 643 961 750 961 m 615 1158 q 653 1149 639 1158 q 686 1122 668 1140 q 718 1097 704 1106 q 753 1089 732 1089 q 797 1106 776 1089 q 825 1154 817 1124 l 850 1154 q 813 1090 842 1117 q 749 1064 783 1064 q 707 1074 724 1064 q 672 1101 690 1083 q 642 1126 654 1118 q 611 1133 629 1133 q 540 1067 561 1133 l 515 1067 q 554 1134 528 1110 q 615 1158 581 1158 z "},"Ö":{"ha":1100,"x_min":82,"x_max":1035,"o":"m 646 986 q 851 938 763 986 q 987 800 939 889 q 1035 594 1035 711 q 1025 488 1035 540 q 920 229 1000 343 q 723 52 840 115 q 471 -11 606 -11 q 266 38 354 -11 q 130 175 178 86 q 82 381 82 264 q 92 488 82 435 q 197 746 117 632 q 394 923 276 860 q 646 986 511 986 m 642 961 q 410 903 519 961 q 223 738 300 846 q 121 488 146 631 q 111 382 111 438 q 158 186 111 269 q 286 58 204 103 q 475 14 368 14 q 707 72 597 14 q 894 237 817 129 q 996 488 971 344 q 1006 593 1006 540 q 959 789 1006 706 q 831 917 913 872 q 642 961 749 961 m 549 1133 q 563 1167 549 1153 q 597 1182 578 1182 q 622 1172 613 1182 q 632 1147 632 1163 q 617 1114 632 1129 q 583 1099 603 1099 q 558 1108 568 1099 q 549 1133 549 1118 m 735 1133 q 749 1167 735 1153 q 783 1182 764 1182 q 807 1172 797 1182 q 817 1147 817 1163 q 802 1113 817 1128 q 769 1099 788 1099 q 744 1108 754 1099 q 735 1133 735 1118 z "},"×":{"ha":651,"x_min":13,"x_max":639,"o":"m 344 528 l 551 276 l 529 257 l 322 508 l 28 258 l 13 276 l 307 526 l 100 778 l 122 797 l 329 546 l 624 796 l 639 778 l 344 528 z "},"Ø":{"ha":1100,"x_min":-1,"x_max":1101,"o":"m 953 842 q 1026 594 1026 740 q 1017 488 1026 540 q 912 229 992 343 q 715 52 832 115 q 463 -11 597 -11 q 289 22 365 -11 q 161 117 213 56 l 33 0 l -1 0 l 146 135 q 74 381 74 238 q 83 488 74 435 q 188 746 108 632 q 385 923 268 860 q 638 986 503 986 q 810 953 733 986 q 939 860 888 919 l 1068 978 l 1101 978 l 953 842 m 113 488 q 103 382 103 435 q 168 156 103 249 l 917 840 q 795 930 868 899 q 633 961 722 961 q 401 903 511 961 q 215 738 292 846 q 113 488 138 631 m 988 488 q 997 592 997 538 q 931 822 997 725 l 182 136 q 304 45 231 76 q 467 14 378 14 q 699 72 589 14 q 885 237 808 129 q 988 488 963 344 z "},"Ù":{"ha":874,"x_min":82,"x_max":851,"o":"m 228 978 l 121 371 q 110 261 110 307 q 176 74 110 133 q 358 15 242 15 q 589 100 494 15 q 717 371 683 185 l 824 978 l 851 978 l 744 371 q 608 83 710 176 q 354 -10 506 -10 q 154 56 226 -10 q 82 258 82 122 q 93 371 82 304 l 200 978 l 228 978 m 539 1069 l 533 1042 l 306 1222 l 313 1256 l 539 1069 z "},"Ú":{"ha":874,"x_min":82,"x_max":851,"o":"m 228 978 l 121 371 q 110 261 110 307 q 176 74 110 133 q 358 15 242 15 q 589 100 494 15 q 717 371 683 185 l 824 978 l 851 978 l 744 371 q 608 83 710 176 q 354 -10 506 -10 q 154 56 226 -10 q 82 258 82 122 q 93 371 82 304 l 200 978 l 228 978 m 829 1222 l 538 1042 l 543 1069 l 836 1256 l 829 1222 z "},"Û":{"ha":874,"x_min":85,"x_max":854,"o":"m 231 978 l 124 371 q 113 261 113 307 q 178 74 113 133 q 361 15 244 15 q 592 100 497 15 q 719 371 686 185 l 826 978 l 854 978 l 747 371 q 610 83 713 176 q 357 -10 508 -10 q 157 56 229 -10 q 85 258 85 122 q 96 371 85 304 l 203 978 l 231 978 m 572 1201 l 381 1089 l 386 1117 l 578 1229 l 729 1117 l 724 1089 l 572 1201 z "},"Ü":{"ha":874,"x_min":89,"x_max":858,"o":"m 235 978 l 128 371 q 117 261 117 307 q 183 74 117 133 q 365 15 249 15 q 596 100 501 15 q 724 371 690 185 l 831 978 l 858 978 l 751 371 q 615 83 717 176 q 361 -10 513 -10 q 161 56 233 -10 q 89 258 89 122 q 100 371 89 304 l 207 978 l 235 978 m 435 1133 q 449 1167 435 1153 q 483 1182 464 1182 q 508 1172 499 1182 q 518 1147 518 1163 q 503 1114 518 1129 q 469 1099 489 1099 q 444 1108 454 1099 q 435 1133 435 1118 m 621 1133 q 635 1167 621 1153 q 669 1182 650 1182 q 693 1172 683 1182 q 703 1147 703 1163 q 688 1113 703 1128 q 656 1099 674 1099 q 631 1108 640 1099 q 621 1133 621 1118 z "},"Ý":{"ha":719,"x_min":128,"x_max":764,"o":"m 764 978 l 361 410 l 289 0 l 261 0 l 333 410 l 128 978 l 161 978 l 351 440 l 731 978 l 764 978 m 751 1222 l 460 1042 l 465 1069 l 758 1256 l 751 1222 z "},"Þ":{"ha":733,"x_min":32,"x_max":683,"o":"m 99 221 l 60 0 l 32 0 l 204 978 l 232 978 l 193 758 l 413 758 q 617 705 551 758 q 683 553 683 651 q 678 489 683 518 q 563 288 654 354 q 318 221 472 221 l 99 221 m 324 250 q 552 313 474 250 q 650 489 631 375 q 656 551 656 518 q 597 685 656 640 q 408 731 539 731 l 189 731 l 104 250 l 324 250 z "},"ß":{"ha":817,"x_min":28,"x_max":713,"o":"m 581 476 q 681 372 650 424 q 713 257 713 319 q 707 201 713 240 q 613 44 689 106 q 429 -17 538 -17 q 280 32 335 -17 q 225 169 225 81 q 229 224 225 194 l 257 224 q 253 172 253 197 q 297 53 253 97 q 433 8 342 8 q 556 36 503 8 q 640 108 608 64 q 679 201 671 153 q 683 251 683 229 q 657 352 683 306 q 569 447 631 399 l 368 601 l 372 625 l 440 656 q 539 724 504 683 q 585 826 574 765 q 589 865 589 847 q 545 976 589 935 q 426 1017 501 1017 q 276 963 336 1017 q 200 817 215 910 l 56 0 l 28 0 l 172 817 q 259 983 192 924 q 431 1042 326 1042 q 564 997 511 1042 q 617 872 617 951 q 613 826 617 850 q 447 633 589 697 l 401 613 l 581 476 z "},"à":{"ha":932,"x_min":74,"x_max":879,"o":"m 515 760 q 722 690 644 760 q 810 508 799 621 l 853 750 l 879 750 l 746 0 l 719 0 l 763 242 q 611 60 713 129 q 379 -10 510 -10 q 156 69 238 -10 q 74 286 74 149 q 82 375 74 329 q 164 580 103 493 q 317 713 225 667 q 515 760 408 760 m 511 735 q 247 638 356 735 q 110 375 139 542 q 101 289 101 329 q 176 88 101 160 q 383 15 250 15 q 566 60 481 15 q 709 187 651 106 q 786 375 767 268 q 793 454 793 410 q 717 659 793 583 q 511 735 640 735 m 508 842 l 503 814 l 275 994 l 282 1028 l 508 842 z "},"á":{"ha":932,"x_min":74,"x_max":879,"o":"m 515 760 q 722 690 644 760 q 810 508 799 621 l 853 750 l 879 750 l 746 0 l 719 0 l 763 242 q 611 60 713 129 q 379 -10 510 -10 q 156 69 238 -10 q 74 286 74 149 q 82 375 74 329 q 164 580 103 493 q 317 713 225 667 q 515 760 408 760 m 511 735 q 247 638 356 735 q 110 375 139 542 q 101 289 101 329 q 176 88 101 160 q 383 15 250 15 q 566 60 481 15 q 709 187 651 106 q 786 375 767 268 q 793 454 793 410 q 717 659 793 583 q 511 735 640 735 m 799 994 l 507 814 l 513 842 l 806 1028 l 799 994 z "},"â":{"ha":932,"x_min":76,"x_max":882,"o":"m 518 760 q 724 690 647 760 q 813 508 801 621 l 856 750 l 882 750 l 749 0 l 722 0 l 765 242 q 614 60 715 129 q 382 -10 513 -10 q 158 69 240 -10 q 76 286 76 149 q 85 375 76 329 q 167 580 106 493 q 319 713 228 667 q 518 760 411 760 m 514 735 q 250 638 358 735 q 113 375 142 542 q 104 289 104 329 q 178 88 104 160 q 386 15 253 15 q 569 60 483 15 q 712 187 654 106 q 789 375 769 268 q 796 454 796 410 q 719 659 796 583 q 514 735 643 735 m 542 974 l 350 861 l 356 889 l 547 1001 l 699 889 l 693 861 l 542 974 z "},"ã":{"ha":932,"x_min":83,"x_max":889,"o":"m 525 760 q 731 690 654 760 q 819 508 808 621 l 863 750 l 889 750 l 756 0 l 729 0 l 772 242 q 621 60 722 129 q 389 -10 519 -10 q 165 69 247 -10 q 83 286 83 149 q 92 375 83 329 q 174 580 113 493 q 326 713 235 667 q 525 760 418 760 m 521 735 q 257 638 365 735 q 119 375 149 542 q 111 289 111 329 q 185 88 111 160 q 393 15 260 15 q 576 60 490 15 q 719 187 661 106 q 796 375 776 268 q 803 454 803 410 q 726 659 803 583 q 521 735 650 735 m 472 931 q 510 922 496 931 q 543 894 525 913 q 575 869 561 878 q 610 861 589 861 q 653 878 633 861 q 682 926 674 896 l 707 926 q 669 863 699 889 q 606 836 640 836 q 564 846 581 836 q 529 874 547 856 q 499 898 511 890 q 468 906 486 906 q 397 839 418 906 l 372 839 q 411 906 385 882 q 472 931 438 931 z "},"ä":{"ha":932,"x_min":81,"x_max":886,"o":"m 522 760 q 728 690 651 760 q 817 508 806 621 l 860 750 l 886 750 l 753 0 l 726 0 l 769 242 q 618 60 719 129 q 386 -10 517 -10 q 163 69 244 -10 q 81 286 81 149 q 89 375 81 329 q 171 580 110 493 q 324 713 232 667 q 522 760 415 760 m 518 735 q 254 638 363 735 q 117 375 146 542 q 108 289 108 329 q 183 88 108 160 q 390 15 257 15 q 573 60 488 15 q 716 187 658 106 q 793 375 774 268 q 800 454 800 410 q 724 659 800 583 q 518 735 647 735 m 404 906 q 419 940 404 925 q 453 954 433 954 q 478 944 468 954 q 488 919 488 935 q 473 886 488 901 q 439 871 458 871 q 414 881 424 871 q 404 906 404 890 m 590 906 q 605 940 590 925 q 639 954 619 954 q 663 944 653 954 q 672 919 672 935 q 658 885 672 900 q 625 871 643 871 q 600 881 610 871 q 590 906 590 890 z "},"å":{"ha":932,"x_min":68,"x_max":874,"o":"m 510 760 q 716 690 639 760 q 804 508 793 621 l 847 750 l 874 750 l 740 0 l 714 0 l 757 242 q 606 60 707 129 q 374 -10 504 -10 q 150 69 232 -10 q 68 286 68 149 q 76 375 68 329 q 158 580 97 493 q 311 713 219 667 q 510 760 403 760 m 506 735 q 242 638 350 735 q 104 375 133 542 q 96 289 96 329 q 170 88 96 160 q 378 15 244 15 q 560 60 475 15 q 703 187 646 106 q 781 375 761 268 q 788 454 788 410 q 711 659 788 583 q 506 735 635 735 m 547 1104 q 623 1077 593 1104 q 653 1006 653 1050 q 608 897 653 939 q 503 854 563 854 q 427 881 457 854 q 397 953 397 908 q 442 1062 397 1019 q 547 1104 488 1104 m 543 1079 q 460 1046 494 1079 q 426 957 426 1013 q 449 900 426 921 q 507 879 471 879 q 590 913 556 879 q 624 1001 624 946 q 601 1058 624 1038 q 543 1079 579 1079 z "},"æ":{"ha":1576,"x_min":75,"x_max":1510,"o":"m 1217 760 q 1378 723 1313 760 q 1477 626 1444 686 q 1510 494 1510 567 q 1504 438 1510 476 q 1485 363 1494 388 l 813 363 q 806 286 806 318 q 885 84 806 153 q 1085 15 964 15 q 1309 80 1211 15 q 1444 254 1407 144 l 1472 254 q 1328 63 1432 136 q 1081 -10 1224 -10 q 877 56 957 -10 q 790 243 797 121 l 747 0 l 721 0 l 764 242 q 613 60 714 129 q 381 -10 511 -10 q 157 69 239 -10 q 75 286 75 149 q 83 375 75 329 q 165 580 104 493 q 318 713 226 667 q 517 760 410 760 q 723 690 646 760 q 811 508 800 621 l 854 750 l 881 750 l 838 507 q 987 695 888 631 q 1217 760 1086 760 m 788 375 q 794 454 794 410 q 718 659 794 583 q 513 735 642 735 q 249 638 357 735 q 111 375 140 542 q 103 289 103 329 q 177 88 103 160 q 385 15 251 15 q 567 60 482 15 q 710 187 653 106 q 788 375 768 268 m 1471 388 q 1483 485 1483 442 q 1406 672 1483 608 q 1213 735 1328 735 q 958 647 1067 735 q 818 388 850 560 l 1471 388 z "},"ç":{"ha":872,"x_min":81,"x_max":818,"o":"m 518 760 q 740 687 661 760 q 815 496 818 614 l 788 496 q 715 671 789 607 q 514 735 640 735 q 341 695 424 735 q 198 575 258 656 q 117 375 138 494 q 108 288 108 328 q 187 85 108 154 q 386 15 265 15 q 610 80 513 15 q 746 254 708 144 l 774 254 q 629 63 733 136 q 382 -10 525 -10 q 163 69 244 -10 q 81 286 81 147 q 89 375 81 328 q 172 581 110 493 q 324 714 233 668 q 518 760 414 760 m 379 -124 q 497 -145 456 -119 q 538 -222 538 -171 q 494 -318 538 -283 q 369 -353 450 -353 l 279 -353 l 285 -325 l 368 -325 q 508 -225 508 -325 q 482 -169 508 -190 q 399 -149 456 -149 l 347 -149 l 375 10 l 403 10 l 379 -124 z "},"è":{"ha":872,"x_min":74,"x_max":804,"o":"m 511 760 q 673 723 607 760 q 772 626 739 686 q 804 494 804 567 q 799 438 804 476 q 779 363 789 388 l 107 363 q 100 286 100 317 q 179 84 100 153 q 379 15 258 15 q 603 80 506 15 q 739 254 701 144 l 767 254 q 622 63 726 136 q 375 -10 518 -10 q 156 69 238 -10 q 74 286 74 147 q 82 375 74 328 q 165 581 103 493 q 317 714 226 668 q 511 760 407 760 m 765 388 q 778 485 778 442 q 700 672 778 608 q 507 735 622 735 q 336 697 418 735 q 194 581 254 658 q 113 388 133 503 l 765 388 m 496 842 l 490 814 l 263 994 l 269 1028 l 496 842 z "},"é":{"ha":872,"x_min":74,"x_max":804,"o":"m 511 760 q 673 723 607 760 q 772 626 739 686 q 804 494 804 567 q 799 438 804 476 q 779 363 789 388 l 107 363 q 100 286 100 317 q 179 84 100 153 q 379 15 258 15 q 603 80 506 15 q 739 254 701 144 l 767 254 q 622 63 726 136 q 375 -10 518 -10 q 156 69 238 -10 q 74 286 74 147 q 82 375 74 328 q 165 581 103 493 q 317 714 226 668 q 511 760 407 760 m 765 388 q 778 485 778 442 q 700 672 778 608 q 507 735 622 735 q 336 697 418 735 q 194 581 254 658 q 113 388 133 503 l 765 388 m 786 994 l 494 814 l 500 842 l 793 1028 l 786 994 z "},"ê":{"ha":872,"x_min":76,"x_max":807,"o":"m 514 760 q 676 723 610 760 q 774 626 742 686 q 807 494 807 567 q 801 438 807 476 q 782 363 792 388 l 110 363 q 103 286 103 317 q 182 84 103 153 q 382 15 261 15 q 606 80 508 15 q 742 254 704 144 l 769 254 q 625 63 729 136 q 378 -10 521 -10 q 158 69 240 -10 q 76 286 76 147 q 85 375 76 328 q 167 581 106 493 q 319 714 229 668 q 514 760 410 760 m 768 388 q 781 485 781 442 q 703 672 781 608 q 510 735 625 735 q 339 697 421 735 q 197 581 257 658 q 115 388 136 503 l 768 388 m 529 974 l 338 861 l 343 889 l 535 1001 l 686 889 l 681 861 l 529 974 z "},"ë":{"ha":872,"x_min":81,"x_max":811,"o":"m 518 760 q 680 723 614 760 q 778 626 746 686 q 811 494 811 567 q 806 438 811 476 q 786 363 796 388 l 114 363 q 107 286 107 317 q 186 84 107 153 q 386 15 265 15 q 610 80 513 15 q 746 254 708 144 l 774 254 q 629 63 733 136 q 382 -10 525 -10 q 163 69 244 -10 q 81 286 81 147 q 89 375 81 328 q 172 581 110 493 q 324 714 233 668 q 518 760 414 760 m 772 388 q 785 485 785 442 q 707 672 785 608 q 514 735 629 735 q 343 697 425 735 q 201 581 261 658 q 119 388 140 503 l 772 388 m 392 906 q 406 940 392 925 q 440 954 421 954 q 465 944 456 954 q 475 919 475 935 q 460 886 475 901 q 426 871 446 871 q 401 881 411 871 q 392 906 392 890 m 578 906 q 592 940 578 925 q 626 954 607 954 q 650 944 640 954 q 660 919 660 935 q 645 885 660 900 q 613 871 631 871 q 588 881 597 871 q 578 906 578 890 z "},"ì":{"ha":264,"x_min":-42,"x_max":211,"o":"m 211 750 l 78 0 l 50 0 l 183 750 l 211 750 m 192 842 l 186 814 l -42 994 l -35 1028 l 192 842 z "},"í":{"ha":264,"x_min":50,"x_max":489,"o":"m 211 750 l 78 0 l 50 0 l 183 750 l 211 750 m 482 994 l 190 814 l 196 842 l 489 1028 l 482 994 z "},"î":{"ha":264,"x_min":32,"x_max":381,"o":"m 213 750 l 79 0 l 51 0 l 185 750 l 213 750 m 224 974 l 32 861 l 38 889 l 229 1001 l 381 889 l 375 861 l 224 974 z "},"ï":{"ha":264,"x_min":56,"x_max":354,"o":"m 217 750 l 83 0 l 56 0 l 189 750 l 217 750 m 86 906 q 101 940 86 925 q 135 954 115 954 q 160 944 150 954 q 169 919 169 935 q 155 886 169 901 q 121 871 140 871 q 96 881 106 871 q 86 906 86 890 m 272 906 q 287 940 272 925 q 321 954 301 954 q 344 944 335 954 q 354 919 354 935 q 340 885 354 900 q 307 871 325 871 q 282 881 292 871 q 272 906 272 890 z "},"ð":{"ha":896,"x_min":54,"x_max":865,"o":"m 861 1004 l 661 936 q 774 756 738 849 q 810 558 810 664 q 797 426 810 496 q 642 101 760 213 q 357 -10 524 -10 q 133 73 213 -10 q 54 297 54 156 q 64 397 54 349 q 143 591 83 507 q 294 721 203 675 q 494 767 385 767 q 698 697 617 767 q 789 488 779 626 q 760 722 794 621 q 638 928 726 824 l 410 850 l 414 875 l 621 946 q 539 1028 585 986 l 569 1028 q 646 954 615 986 l 865 1029 l 861 1004 m 761 375 q 769 460 769 421 q 691 667 769 593 q 489 742 613 742 q 308 701 392 742 q 168 583 225 661 q 92 397 111 506 q 83 301 83 347 q 158 91 83 167 q 361 15 233 15 q 541 58 457 15 q 683 183 625 101 q 761 375 742 264 z "},"ñ":{"ha":853,"x_min":57,"x_max":767,"o":"m 515 767 q 697 706 628 767 q 767 522 767 644 q 758 438 767 483 l 681 0 l 654 0 l 732 440 q 740 521 740 485 q 679 685 740 629 q 510 742 618 742 q 283 657 378 742 q 157 406 188 572 l 85 0 l 57 0 l 190 750 l 218 750 l 181 539 q 318 710 226 653 q 515 767 410 767 m 451 931 q 490 922 475 931 q 522 894 504 913 q 554 869 540 878 q 589 861 568 861 q 633 878 613 861 q 661 926 653 896 l 686 926 q 649 863 678 889 q 585 836 619 836 q 543 846 560 836 q 508 874 526 856 q 478 898 490 890 q 447 906 465 906 q 376 839 397 906 l 351 839 q 390 906 364 882 q 451 931 417 931 z "},"ò":{"ha":899,"x_min":74,"x_max":822,"o":"m 517 760 q 739 681 656 760 q 822 463 822 601 q 814 375 822 421 q 731 170 793 257 q 576 37 668 83 q 381 -10 485 -10 q 158 69 242 -10 q 74 288 74 149 q 82 375 74 329 q 166 580 103 493 q 321 713 229 667 q 517 760 413 760 m 513 735 q 338 695 422 735 q 192 574 254 656 q 110 375 131 493 q 101 290 101 329 q 182 85 101 156 q 385 15 263 15 q 558 55 475 15 q 703 175 642 94 q 786 375 765 256 q 794 461 794 421 q 715 665 794 596 q 513 735 635 735 m 508 842 l 503 814 l 275 994 l 282 1028 l 508 842 z "},"ó":{"ha":899,"x_min":74,"x_max":822,"o":"m 517 760 q 739 681 656 760 q 822 463 822 601 q 814 375 822 421 q 731 170 793 257 q 576 37 668 83 q 381 -10 485 -10 q 158 69 242 -10 q 74 288 74 149 q 82 375 74 329 q 166 580 103 493 q 321 713 229 667 q 517 760 413 760 m 513 735 q 338 695 422 735 q 192 574 254 656 q 110 375 131 493 q 101 290 101 329 q 182 85 101 156 q 385 15 263 15 q 558 55 475 15 q 703 175 642 94 q 786 375 765 256 q 794 461 794 421 q 715 665 794 596 q 513 735 635 735 m 799 994 l 507 814 l 513 842 l 806 1028 l 799 994 z "},"ô":{"ha":899,"x_min":76,"x_max":825,"o":"m 519 760 q 742 681 658 760 q 825 463 825 601 q 817 375 825 421 q 733 170 796 257 q 579 37 671 83 q 383 -10 488 -10 q 160 69 244 -10 q 76 288 76 149 q 85 375 76 329 q 169 580 106 493 q 324 713 232 667 q 519 760 415 760 m 515 735 q 341 695 425 735 q 195 574 257 656 q 113 375 133 493 q 104 290 104 329 q 185 85 104 156 q 388 15 265 15 q 561 55 478 15 q 706 175 644 94 q 789 375 768 256 q 797 461 797 421 q 717 665 797 596 q 515 735 638 735 m 542 974 l 350 861 l 356 889 l 547 1001 l 699 889 l 693 861 l 542 974 z "},"õ":{"ha":899,"x_min":83,"x_max":832,"o":"m 526 760 q 749 681 665 760 q 832 463 832 601 q 824 375 832 421 q 740 170 803 257 q 586 37 678 83 q 390 -10 494 -10 q 167 69 251 -10 q 83 288 83 149 q 92 375 83 329 q 176 580 113 493 q 331 713 239 667 q 526 760 422 760 m 522 735 q 348 695 432 735 q 202 574 264 656 q 119 375 140 493 q 111 290 111 329 q 192 85 111 156 q 394 15 272 15 q 568 55 485 15 q 713 175 651 94 q 796 375 775 256 q 804 461 804 421 q 724 665 804 596 q 522 735 644 735 m 472 931 q 510 922 496 931 q 543 894 525 913 q 575 869 561 878 q 610 861 589 861 q 653 878 633 861 q 682 926 674 896 l 707 926 q 669 863 699 889 q 606 836 640 836 q 564 846 581 836 q 529 874 547 856 q 499 898 511 890 q 468 906 486 906 q 397 839 418 906 l 372 839 q 411 906 385 882 q 472 931 438 931 z "},"ö":{"ha":899,"x_min":81,"x_max":829,"o":"m 524 760 q 746 681 663 760 q 829 463 829 601 q 821 375 829 421 q 738 170 800 257 q 583 37 675 83 q 388 -10 492 -10 q 165 69 249 -10 q 81 288 81 149 q 89 375 81 329 q 173 580 110 493 q 328 713 236 667 q 524 760 419 760 m 519 735 q 345 695 429 735 q 199 574 261 656 q 117 375 138 493 q 108 290 108 329 q 189 85 108 156 q 392 15 269 15 q 565 55 482 15 q 710 175 649 94 q 793 375 772 256 q 801 461 801 421 q 722 665 801 596 q 519 735 642 735 m 404 906 q 419 940 404 925 q 453 954 433 954 q 478 944 468 954 q 488 919 488 935 q 473 886 488 901 q 439 871 458 871 q 414 881 424 871 q 404 906 404 890 m 590 906 q 605 940 590 925 q 639 954 619 954 q 663 944 653 954 q 672 919 672 935 q 658 885 672 900 q 625 871 643 871 q 600 881 610 871 q 590 906 590 890 z "},"÷":{"ha":818,"x_min":53,"x_max":764,"o":"m 503 858 l 490 790 l 421 790 l 433 858 l 503 858 m 764 540 l 760 515 l 53 515 l 57 540 l 764 540 m 399 269 l 386 201 l 317 201 l 329 269 l 399 269 z "},"ø":{"ha":899,"x_min":19,"x_max":864,"o":"m 757 651 q 815 461 815 576 q 807 375 815 421 q 724 170 786 257 q 569 37 661 83 q 374 -10 478 -10 q 240 14 300 -10 q 139 82 179 38 l 50 0 l 19 0 l 125 97 q 67 288 67 175 q 75 375 67 329 q 159 580 96 493 q 314 713 222 667 q 510 760 406 760 q 644 736 583 760 q 744 668 704 713 l 833 750 l 864 750 l 757 651 m 103 375 q 94 290 94 329 q 147 117 94 188 l 724 649 q 628 713 685 692 q 506 735 572 735 q 331 695 415 735 q 185 574 247 656 q 103 375 124 493 m 779 375 q 788 461 788 421 q 736 632 788 563 l 160 101 q 255 37 199 58 q 378 15 311 15 q 551 55 468 15 q 697 175 635 94 q 779 375 758 256 z "},"ù":{"ha":832,"x_min":72,"x_max":782,"o":"m 782 750 l 649 0 l 621 0 l 658 211 q 521 40 613 97 q 324 -17 429 -17 q 142 44 211 -17 q 72 228 72 106 q 81 313 72 267 l 158 750 l 185 750 l 107 310 q 99 229 99 267 q 160 65 99 121 q 329 8 221 8 q 556 93 461 8 q 682 344 651 178 l 754 750 l 782 750 m 463 842 l 457 814 l 229 994 l 236 1028 l 463 842 z "},"ú":{"ha":832,"x_min":72,"x_max":782,"o":"m 782 750 l 649 0 l 621 0 l 658 211 q 521 40 613 97 q 324 -17 429 -17 q 142 44 211 -17 q 72 228 72 106 q 81 313 72 267 l 158 750 l 185 750 l 107 310 q 99 229 99 267 q 160 65 99 121 q 329 8 221 8 q 556 93 461 8 q 682 344 651 178 l 754 750 l 782 750 m 753 994 l 461 814 l 467 842 l 760 1028 l 753 994 z "},"û":{"ha":832,"x_min":74,"x_max":783,"o":"m 783 750 l 650 0 l 622 0 l 660 211 q 522 40 614 97 q 325 -17 431 -17 q 143 44 213 -17 q 74 228 74 106 q 82 313 74 267 l 160 750 l 186 750 l 108 310 q 100 229 100 267 q 161 65 100 121 q 331 8 222 8 q 558 93 463 8 q 683 344 653 178 l 756 750 l 783 750 m 494 974 l 303 861 l 308 889 l 500 1001 l 651 889 l 646 861 l 494 974 z "},"ü":{"ha":832,"x_min":78,"x_max":788,"o":"m 788 750 l 654 0 l 626 0 l 664 211 q 526 40 618 97 q 329 -17 435 -17 q 147 44 217 -17 q 78 228 78 106 q 86 313 78 267 l 164 750 l 190 750 l 113 310 q 104 229 104 267 q 165 65 104 121 q 335 8 226 8 q 562 93 467 8 q 688 344 657 178 l 760 750 l 788 750 m 357 906 q 372 940 357 925 q 406 954 386 954 q 431 944 421 954 q 440 919 440 935 q 426 886 440 901 q 392 871 411 871 q 367 881 376 871 q 357 906 357 890 m 543 906 q 558 940 543 925 q 592 954 572 954 q 615 944 606 954 q 625 919 625 935 q 610 885 625 900 q 578 871 596 871 q 553 881 563 871 q 543 906 543 890 z "},"ý":{"ha":699,"x_min":29,"x_max":686,"o":"m 74 750 l 251 40 l 656 750 l 686 750 l 64 -353 l 29 -353 l 229 -1 l 43 750 l 74 750 m 660 994 l 368 814 l 374 842 l 667 1028 l 660 994 z "},"þ":{"ha":932,"x_min":-4,"x_max":864,"o":"m 558 760 q 782 681 700 760 q 864 464 864 601 q 856 375 864 421 q 773 170 835 257 q 620 37 711 83 q 422 -10 529 -10 q 215 60 292 -10 q 128 242 138 129 l 22 -353 l -4 -353 l 240 1028 l 267 1028 l 175 508 q 326 690 225 621 q 558 760 428 760 m 426 15 q 689 112 581 15 q 828 375 797 208 q 836 461 836 421 q 761 663 836 590 q 553 735 686 735 q 371 690 456 735 q 228 563 286 644 q 151 375 169 482 q 144 296 144 340 q 221 91 144 167 q 426 15 297 15 z "},"ÿ":{"ha":699,"x_min":64,"x_max":721,"o":"m 108 750 l 286 40 l 690 750 l 721 750 l 99 -353 l 64 -353 l 264 -1 l 78 750 l 108 750 m 293 906 q 308 940 293 925 q 342 954 322 954 q 367 944 357 954 q 376 919 376 935 q 362 886 376 901 q 328 871 347 871 q 303 881 313 871 q 293 906 293 890 m 479 906 q 494 940 479 925 q 528 954 508 954 q 551 944 542 954 q 561 919 561 935 q 547 885 561 900 q 514 871 532 871 q 489 881 499 871 q 479 906 479 890 z "},"Ā":{"ha":835,"x_min":-33,"x_max":767,"o":"m 632 269 l 149 269 l -1 0 l -33 0 l 496 949 l 524 949 l 718 0 l 686 0 l 632 269 m 626 294 l 503 904 l 163 294 l 626 294 m 767 1168 l 761 1143 l 332 1143 l 338 1168 l 767 1168 z "},"ā":{"ha":932,"x_min":82,"x_max":888,"o":"m 524 760 q 730 690 653 760 q 818 508 807 621 l 861 750 l 888 750 l 754 0 l 728 0 l 771 242 q 619 60 721 129 q 388 -10 518 -10 q 164 69 246 -10 q 82 286 82 149 q 90 375 82 329 q 172 580 111 493 q 325 713 233 667 q 524 760 417 760 m 519 735 q 256 638 364 735 q 118 375 147 542 q 110 289 110 329 q 184 88 110 160 q 392 15 258 15 q 574 60 489 15 q 717 187 660 106 q 794 375 775 268 q 801 454 801 410 q 725 659 801 583 q 519 735 649 735 m 757 940 l 751 915 l 322 915 l 328 940 l 757 940 z "},"Ă":{"ha":835,"x_min":-39,"x_max":721,"o":"m 626 269 l 143 269 l -7 0 l -39 0 l 490 949 l 518 949 l 713 0 l 681 0 l 626 269 m 621 294 l 497 904 l 157 294 l 621 294 m 529 1083 q 423 1117 457 1083 q 389 1201 389 1151 q 392 1228 389 1211 l 393 1233 l 421 1233 q 418 1204 418 1211 q 449 1133 418 1158 q 535 1108 479 1108 q 640 1141 599 1108 q 693 1233 682 1174 l 721 1233 l 719 1228 q 660 1127 708 1171 q 529 1083 611 1083 z "},"ă":{"ha":932,"x_min":76,"x_max":882,"o":"m 518 760 q 724 690 647 760 q 813 508 801 621 l 856 750 l 882 750 l 749 0 l 722 0 l 765 242 q 614 60 715 129 q 382 -10 513 -10 q 158 69 240 -10 q 76 286 76 149 q 85 375 76 329 q 167 580 106 493 q 319 713 228 667 q 518 760 411 760 m 514 735 q 250 638 358 735 q 113 375 142 542 q 104 289 104 329 q 178 88 104 160 q 386 15 253 15 q 569 60 483 15 q 712 187 654 106 q 789 375 769 268 q 796 454 796 410 q 719 659 796 583 q 514 735 643 735 m 519 856 q 413 890 447 856 q 379 974 379 924 q 382 1000 379 983 l 383 1006 l 411 1006 q 408 976 408 983 q 439 906 408 931 q 525 881 469 881 q 631 913 589 881 q 683 1006 672 946 l 711 1006 l 710 1000 q 650 899 699 943 q 519 856 601 856 z "},"Ą":{"ha":835,"x_min":-26,"x_max":739,"o":"m 739 -236 l 733 -264 l 639 -264 q 535 -235 571 -264 q 500 -158 500 -206 q 549 -47 500 -92 q 693 0 599 -3 l 638 269 l 156 269 l 6 0 l -26 0 l 503 949 l 531 949 l 725 0 l 719 -28 l 681 -28 q 570 -62 613 -28 q 528 -153 528 -96 q 559 -214 528 -192 q 644 -236 590 -236 l 739 -236 m 632 294 l 508 901 l 169 294 l 632 294 z "},"ą":{"ha":932,"x_min":78,"x_max":883,"o":"m 519 760 q 726 690 649 760 q 814 508 803 621 l 857 750 l 883 750 l 750 0 l 724 0 l 767 242 q 615 60 717 129 q 383 -10 514 -10 q 160 69 242 -10 q 78 286 78 149 q 86 375 78 329 q 168 580 107 493 q 321 713 229 667 q 519 760 413 760 m 515 735 q 251 638 360 735 q 114 375 143 542 q 106 289 106 329 q 180 88 106 160 q 388 15 254 15 q 570 60 485 15 q 713 187 656 106 q 790 375 771 268 q 797 454 797 410 q 721 659 797 583 q 515 735 644 735 m 751 8 l 746 -19 l 707 -19 q 596 -51 638 -19 q 554 -136 554 -82 q 585 -203 554 -179 q 671 -228 617 -228 l 765 -228 l 760 -256 l 665 -256 q 562 -224 597 -256 q 526 -142 526 -193 q 573 -34 526 -76 q 713 8 619 8 l 751 8 z "},"Ć":{"ha":1068,"x_min":75,"x_max":1021,"o":"m 628 988 q 896 908 799 988 q 1021 689 993 829 l 993 689 q 876 888 969 813 q 624 963 783 963 q 397 905 504 963 q 215 740 290 847 q 114 488 139 632 q 104 381 104 435 q 149 185 104 268 q 274 59 194 103 q 457 15 354 15 q 737 90 617 15 q 922 288 857 164 l 950 288 q 749 69 874 147 q 453 -10 624 -10 q 253 39 339 -10 q 122 176 168 88 q 75 379 75 264 q 85 488 75 435 q 188 747 110 633 q 381 924 267 860 q 628 988 496 988 m 926 1222 l 635 1042 l 640 1069 l 933 1256 l 926 1222 z "},"ć":{"ha":872,"x_min":74,"x_max":811,"o":"m 511 760 q 733 687 654 760 q 808 496 811 614 l 781 496 q 708 671 782 607 q 507 735 633 735 q 334 695 417 735 q 191 575 251 656 q 110 375 131 494 q 101 288 101 328 q 180 85 101 154 q 379 15 258 15 q 603 80 506 15 q 739 254 701 144 l 767 254 q 622 63 726 136 q 375 -10 518 -10 q 156 69 238 -10 q 74 286 74 147 q 82 375 74 328 q 165 581 103 493 q 317 714 226 668 q 511 760 407 760 m 786 994 l 494 814 l 500 842 l 793 1028 l 786 994 z "},"Ċ":{"ha":1068,"x_min":82,"x_max":1028,"o":"m 635 988 q 903 908 806 988 q 1028 689 1000 829 l 1000 689 q 883 888 976 813 q 631 963 790 963 q 404 905 511 963 q 222 740 297 847 q 121 488 146 632 q 111 381 111 435 q 156 185 111 268 q 281 59 201 103 q 464 15 361 15 q 744 90 624 15 q 929 288 864 164 l 957 288 q 756 69 881 147 q 460 -10 631 -10 q 260 39 346 -10 q 128 176 175 88 q 82 379 82 264 q 92 488 82 435 q 195 747 117 633 q 388 924 274 860 q 635 988 503 988 m 624 1133 q 639 1167 624 1153 q 672 1182 654 1182 q 697 1172 688 1182 q 707 1147 707 1163 q 692 1114 707 1129 q 658 1099 678 1099 q 634 1109 644 1099 q 624 1133 624 1119 z "},"ċ":{"ha":872,"x_min":81,"x_max":818,"o":"m 518 760 q 740 687 661 760 q 815 496 818 614 l 788 496 q 715 671 789 607 q 514 735 640 735 q 341 695 424 735 q 198 575 258 656 q 117 375 138 494 q 108 288 108 328 q 187 85 108 154 q 386 15 265 15 q 610 80 513 15 q 746 254 708 144 l 774 254 q 629 63 733 136 q 382 -10 525 -10 q 163 69 244 -10 q 81 286 81 147 q 89 375 81 328 q 172 581 110 493 q 324 714 233 668 q 518 760 414 760 m 483 906 q 499 940 483 925 q 532 954 514 954 q 557 944 547 954 q 567 919 567 935 q 552 886 567 901 q 518 871 538 871 q 494 881 504 871 q 483 906 483 892 z "},"Č":{"ha":1068,"x_min":78,"x_max":1024,"o":"m 631 988 q 899 908 801 988 q 1024 689 996 829 l 996 689 q 879 888 972 813 q 626 963 786 963 q 400 905 507 963 q 217 740 293 847 q 117 488 142 632 q 107 381 107 435 q 152 185 107 268 q 277 59 197 103 q 460 15 357 15 q 740 90 619 15 q 925 288 860 164 l 953 288 q 751 69 876 147 q 456 -10 626 -10 q 256 39 342 -10 q 124 176 171 88 q 78 379 78 264 q 88 488 78 435 q 191 747 113 633 q 384 924 269 860 q 631 988 499 988 m 840 1197 l 650 1085 l 497 1197 l 503 1225 l 656 1113 l 846 1225 l 840 1197 z "},"č":{"ha":872,"x_min":76,"x_max":814,"o":"m 514 760 q 735 687 657 760 q 811 496 814 614 l 783 496 q 710 671 785 607 q 510 735 636 735 q 337 695 419 735 q 194 575 254 656 q 113 375 133 494 q 104 288 104 328 q 183 85 104 154 q 382 15 261 15 q 606 80 508 15 q 742 254 704 144 l 769 254 q 625 63 729 136 q 378 -10 521 -10 q 158 69 240 -10 q 76 286 76 147 q 85 375 76 328 q 167 581 106 493 q 319 714 229 668 q 514 760 410 760 m 700 969 l 510 857 l 357 969 l 363 997 l 515 885 l 706 997 l 700 969 z "},"Ď":{"ha":975,"x_min":35,"x_max":906,"o":"m 894 489 q 699 128 853 256 q 292 0 544 0 l 35 0 l 207 978 l 464 978 q 794 882 682 978 q 906 608 906 786 q 894 489 906 556 m 296 25 q 683 147 538 25 q 867 489 828 269 q 876 601 876 546 q 772 861 876 769 q 460 953 667 953 l 231 953 l 67 25 l 296 25 m 810 1197 l 619 1085 l 467 1197 l 472 1225 l 625 1113 l 815 1225 l 810 1197 z "},"ď":{"ha":932,"x_min":50,"x_max":1067,"o":"m 904 1028 l 722 0 l 696 0 l 739 242 q 588 60 689 129 q 356 -10 486 -10 q 132 69 214 -10 q 50 286 50 149 q 58 375 50 329 q 140 580 79 493 q 293 713 201 667 q 492 760 385 760 q 698 690 621 760 q 786 508 775 621 l 878 1028 l 904 1028 m 1067 1028 q 1056 932 1064 978 q 1017 847 1044 871 q 943 824 989 824 l 947 851 q 999 867 982 851 q 1021 914 1015 882 l 1029 954 l 976 954 l 989 1028 l 1067 1028 m 488 735 q 224 638 332 735 q 86 375 115 542 q 78 289 78 329 q 152 88 78 160 q 360 15 226 15 q 542 60 457 15 q 685 187 628 106 q 763 375 743 268 q 769 453 769 421 q 692 658 769 582 q 488 735 615 735 z "},"Đ":{"ha":1031,"x_min":36,"x_max":983,"o":"m 542 978 q 872 882 760 978 q 983 608 983 786 q 972 489 983 556 q 776 128 931 256 q 369 0 622 0 l 113 0 l 196 476 l 36 476 l 42 501 l 201 501 l 285 978 l 542 978 m 944 489 q 954 601 954 546 q 849 861 954 769 q 538 953 744 953 l 308 953 l 229 501 l 553 501 l 547 476 l 224 476 l 144 25 l 374 25 q 760 147 615 25 q 944 489 906 269 z "},"đ":{"ha":922,"x_min":50,"x_max":982,"o":"m 978 903 l 882 903 l 722 0 l 696 0 l 739 242 q 588 60 689 129 q 356 -10 486 -10 q 132 69 214 -10 q 50 286 50 149 q 58 375 50 329 q 140 580 79 493 q 293 713 201 667 q 492 760 385 760 q 698 690 621 760 q 786 508 775 621 l 856 903 l 572 903 l 576 928 l 860 928 l 878 1028 l 904 1028 l 886 928 l 982 928 l 978 903 m 763 375 q 769 453 769 421 q 692 658 769 582 q 488 735 615 735 q 224 638 332 735 q 86 375 115 542 q 78 289 78 329 q 152 88 78 160 q 360 15 226 15 q 542 60 457 15 q 685 187 628 106 q 763 375 743 268 z "},"Ē":{"ha":665,"x_min":40,"x_max":707,"o":"m 236 953 l 157 501 l 565 501 l 560 476 l 151 476 l 72 25 l 522 25 l 518 0 l 40 0 l 213 978 l 690 978 l 686 953 l 236 953 m 707 1168 l 701 1143 l 272 1143 l 278 1168 l 707 1168 z "},"ē":{"ha":872,"x_min":82,"x_max":813,"o":"m 519 760 q 681 723 615 760 q 780 626 747 686 q 813 494 813 567 q 807 438 813 476 q 788 363 797 388 l 115 363 q 108 286 108 317 q 188 84 108 153 q 388 15 267 15 q 612 80 514 15 q 747 254 710 144 l 775 254 q 631 63 735 136 q 383 -10 526 -10 q 164 69 246 -10 q 82 286 82 147 q 90 375 82 328 q 173 581 111 493 q 325 714 235 668 q 519 760 415 760 m 774 388 q 786 485 786 442 q 708 672 786 608 q 515 735 631 735 q 344 697 426 735 q 202 581 263 658 q 121 388 142 503 l 774 388 m 744 940 l 739 915 l 310 915 l 315 940 l 744 940 z "},"Ĕ":{"ha":665,"x_min":35,"x_max":685,"o":"m 231 953 l 151 501 l 560 501 l 554 476 l 146 476 l 67 25 l 517 25 l 513 0 l 35 0 l 207 978 l 685 978 l 681 953 l 231 953 m 469 1083 q 363 1117 397 1083 q 329 1201 329 1151 q 332 1228 329 1211 l 333 1233 l 361 1233 q 358 1204 358 1211 q 389 1133 358 1158 q 475 1108 419 1108 q 581 1141 539 1108 q 633 1233 622 1174 l 661 1233 l 660 1228 q 600 1127 649 1171 q 469 1083 551 1083 z "},"ĕ":{"ha":872,"x_min":76,"x_max":807,"o":"m 514 760 q 676 723 610 760 q 774 626 742 686 q 807 494 807 567 q 801 438 807 476 q 782 363 792 388 l 110 363 q 103 286 103 317 q 182 84 103 153 q 382 15 261 15 q 606 80 508 15 q 742 254 704 144 l 769 254 q 625 63 729 136 q 378 -10 521 -10 q 158 69 240 -10 q 76 286 76 147 q 85 375 76 328 q 167 581 106 493 q 319 714 229 668 q 514 760 410 760 m 768 388 q 781 485 781 442 q 703 672 781 608 q 510 735 625 735 q 339 697 421 735 q 197 581 257 658 q 115 388 136 503 l 768 388 m 507 856 q 401 890 435 856 q 367 974 367 924 q 369 1000 367 983 l 371 1006 l 399 1006 q 396 976 396 983 q 426 906 396 931 q 513 881 457 881 q 618 913 576 881 q 671 1006 660 946 l 699 1006 l 697 1000 q 638 899 686 943 q 507 856 589 856 z "},"Ė":{"ha":665,"x_min":39,"x_max":689,"o":"m 235 953 l 156 501 l 564 501 l 558 476 l 150 476 l 71 25 l 521 25 l 517 0 l 39 0 l 211 978 l 689 978 l 685 953 l 235 953 m 446 1133 q 461 1167 446 1153 q 494 1182 476 1182 q 519 1172 510 1182 q 529 1147 529 1163 q 515 1114 529 1129 q 481 1099 500 1099 q 456 1109 467 1099 q 446 1133 446 1119 z "},"ė":{"ha":872,"x_min":81,"x_max":811,"o":"m 518 760 q 680 723 614 760 q 778 626 746 686 q 811 494 811 567 q 806 438 811 476 q 786 363 796 388 l 114 363 q 107 286 107 317 q 186 84 107 153 q 386 15 265 15 q 610 80 513 15 q 746 254 708 144 l 774 254 q 629 63 733 136 q 382 -10 525 -10 q 163 69 244 -10 q 81 286 81 147 q 89 375 81 328 q 172 581 110 493 q 324 714 233 668 q 518 760 414 760 m 772 388 q 785 485 785 442 q 707 672 785 608 q 514 735 629 735 q 343 697 425 735 q 201 581 261 658 q 119 388 140 503 l 772 388 m 483 906 q 499 940 483 925 q 532 954 514 954 q 557 944 547 954 q 567 919 567 935 q 552 886 567 901 q 518 871 538 871 q 494 881 504 871 q 483 906 483 892 z "},"Ę":{"ha":665,"x_min":29,"x_max":679,"o":"m 225 953 l 146 501 l 554 501 l 549 476 l 140 476 l 61 25 l 511 25 l 507 0 l 29 0 l 201 978 l 679 978 l 675 953 l 225 953 m 508 8 l 503 -19 l 464 -19 q 353 -51 394 -19 q 311 -136 311 -82 q 342 -203 311 -179 q 428 -228 374 -228 l 522 -228 l 517 -256 l 422 -256 q 319 -224 354 -256 q 283 -142 283 -193 q 330 -34 283 -76 q 469 8 376 8 l 508 8 z "},"ę":{"ha":872,"x_min":89,"x_max":819,"o":"m 526 760 q 688 723 622 760 q 787 626 754 686 q 819 494 819 567 q 814 438 819 476 q 794 363 807 399 l 122 363 q 115 286 115 317 q 194 84 115 153 q 394 15 274 15 q 618 79 521 15 q 753 254 715 143 l 781 254 q 655 76 746 147 q 440 -7 564 6 q 412 -17 421 -8 q 400 -44 403 -26 l 399 -57 q 430 -113 399 -92 q 517 -135 461 -135 l 611 -135 l 606 -162 l 511 -162 q 408 -133 443 -162 q 372 -56 372 -104 q 375 -31 372 -47 l 379 -10 q 167 72 246 -7 q 89 286 89 150 q 97 375 89 328 q 180 580 118 493 q 332 713 242 667 q 526 760 422 760 m 779 388 q 792 486 792 442 q 714 672 792 608 q 521 735 636 735 q 351 697 432 735 q 209 581 269 658 q 128 388 149 503 l 779 388 z "},"Ě":{"ha":665,"x_min":35,"x_max":685,"o":"m 231 953 l 151 501 l 560 501 l 554 476 l 146 476 l 67 25 l 517 25 l 513 0 l 35 0 l 207 978 l 685 978 l 681 953 l 231 953 m 663 1197 l 472 1085 l 319 1197 l 325 1225 l 478 1113 l 668 1225 l 663 1197 z "},"ě":{"ha":872,"x_min":76,"x_max":807,"o":"m 514 760 q 676 723 610 760 q 774 626 742 686 q 807 494 807 567 q 801 438 807 476 q 782 363 792 388 l 110 363 q 103 286 103 317 q 182 84 103 153 q 382 15 261 15 q 606 80 508 15 q 742 254 704 144 l 769 254 q 625 63 729 136 q 378 -10 521 -10 q 158 69 240 -10 q 76 286 76 147 q 85 375 76 328 q 167 581 106 493 q 319 714 229 668 q 514 760 410 760 m 768 388 q 781 485 781 442 q 703 672 781 608 q 510 735 625 735 q 339 697 421 735 q 197 581 257 658 q 115 388 136 503 l 768 388 m 700 969 l 510 857 l 357 969 l 363 997 l 515 885 l 706 997 l 700 969 z "},"Ğ":{"ha":1100,"x_min":76,"x_max":1022,"o":"m 640 986 q 897 906 799 986 q 1022 688 996 825 l 994 688 q 878 885 972 810 q 636 961 783 961 q 404 903 514 961 q 217 738 294 846 q 115 488 140 631 q 106 382 106 438 q 152 186 106 269 q 281 58 199 103 q 469 14 363 14 q 698 69 589 14 q 885 230 807 125 q 990 474 963 335 l 529 474 l 533 499 l 1021 499 l 1019 488 q 915 229 994 343 q 717 52 835 115 q 465 -11 600 -11 q 260 38 349 -11 q 124 175 172 86 q 76 381 76 264 q 86 488 76 435 q 191 746 111 632 q 388 923 271 860 q 640 986 506 986 m 663 1083 q 556 1117 590 1083 q 522 1201 522 1151 q 525 1228 522 1211 l 526 1233 l 554 1233 q 551 1204 551 1211 q 582 1133 551 1158 q 668 1108 613 1108 q 774 1141 732 1108 q 826 1233 815 1174 l 854 1233 l 853 1228 q 793 1127 842 1171 q 663 1083 744 1083 z "},"ğ":{"ha":932,"x_min":33,"x_max":868,"o":"m 371 -11 q 147 68 229 -11 q 64 285 64 147 q 72 375 64 328 q 154 580 93 493 q 307 714 215 667 q 507 761 399 761 q 714 692 638 761 q 800 508 790 622 l 843 750 l 868 750 l 731 -28 q 653 -209 713 -132 q 511 -326 594 -286 q 340 -367 428 -367 q 127 -301 206 -367 q 33 -122 49 -235 l 61 -122 q 148 -283 76 -225 q 346 -342 219 -342 q 507 -303 431 -342 q 636 -194 583 -265 q 706 -28 689 -122 l 754 242 q 601 59 703 129 q 371 -11 500 -11 m 501 736 q 238 640 346 736 q 100 375 129 543 q 92 289 92 329 q 167 89 92 161 q 375 17 242 17 q 557 61 472 17 q 700 187 642 106 q 778 375 758 268 q 785 451 785 419 q 708 659 785 582 q 501 736 631 736 m 503 856 q 397 890 431 856 q 363 974 363 924 q 365 1000 363 983 l 367 1006 l 394 1006 q 392 976 392 983 q 422 906 392 931 q 508 881 453 881 q 614 913 572 881 q 667 1006 656 946 l 694 1006 l 693 1000 q 633 899 682 943 q 503 856 585 856 z "},"Ġ":{"ha":1100,"x_min":82,"x_max":1028,"o":"m 646 986 q 903 906 804 986 q 1028 688 1001 825 l 1000 688 q 883 885 978 810 q 642 961 789 961 q 410 903 519 961 q 223 738 300 846 q 121 488 146 631 q 111 382 111 438 q 158 186 111 269 q 286 58 204 103 q 475 14 368 14 q 703 69 594 14 q 890 230 813 125 q 996 474 968 335 l 535 474 l 539 499 l 1026 499 l 1025 488 q 920 229 1000 343 q 723 52 840 115 q 471 -11 606 -11 q 266 38 354 -11 q 130 175 178 86 q 82 381 82 264 q 92 488 82 435 q 197 746 117 632 q 394 923 276 860 q 646 986 511 986 m 640 1133 q 656 1167 640 1153 q 689 1182 671 1182 q 714 1172 704 1182 q 724 1147 724 1163 q 709 1114 724 1129 q 675 1099 694 1099 q 651 1109 661 1099 q 640 1133 640 1119 z "},"ġ":{"ha":932,"x_min":39,"x_max":874,"o":"m 376 -11 q 152 68 235 -11 q 69 285 69 147 q 78 375 69 328 q 160 580 99 493 q 313 714 221 667 q 513 761 404 761 q 719 692 643 761 q 806 508 796 622 l 849 750 l 874 750 l 736 -28 q 659 -209 718 -132 q 517 -326 600 -286 q 346 -367 433 -367 q 133 -301 211 -367 q 39 -122 54 -235 l 67 -122 q 153 -283 82 -225 q 351 -342 225 -342 q 513 -303 436 -342 q 642 -194 589 -265 q 711 -28 694 -122 l 760 242 q 607 59 708 129 q 376 -11 506 -11 m 507 736 q 243 640 351 736 q 106 375 135 543 q 97 289 97 329 q 172 89 97 161 q 381 17 247 17 q 563 61 478 17 q 706 187 647 106 q 783 375 764 268 q 790 451 790 419 q 713 659 790 582 q 507 736 636 736 m 481 906 q 496 940 481 925 q 529 954 511 954 q 554 944 544 954 q 564 919 564 935 q 549 886 564 901 q 515 871 535 871 q 491 881 501 871 q 481 906 481 892 z "},"Ģ":{"ha":1100,"x_min":78,"x_max":1024,"o":"m 642 986 q 899 906 800 986 q 1024 688 997 825 l 996 688 q 879 885 974 810 q 638 961 785 961 q 406 903 515 961 q 219 738 296 846 q 117 488 142 631 q 107 382 107 438 q 153 186 107 269 q 282 58 200 103 q 471 14 364 14 q 699 69 590 14 q 886 230 808 125 q 992 474 964 335 l 531 474 l 535 499 l 1022 499 l 1021 488 q 916 229 996 343 q 719 52 836 115 q 467 -11 601 -11 q 262 38 350 -11 q 126 175 174 86 q 78 381 78 264 q 88 488 78 435 q 192 746 113 632 q 390 923 272 860 q 642 986 507 986 m 515 -82 q 510 -125 511 -118 q 470 -219 499 -193 q 399 -244 442 -244 l 403 -219 q 476 -144 463 -219 l 478 -135 l 435 -135 l 444 -82 l 515 -82 z "},"ģ":{"ha":932,"x_min":32,"x_max":867,"o":"m 496 824 q 507 919 499 874 q 546 1004 518 981 q 619 1028 574 1028 l 614 1000 q 563 985 579 1000 q 540 938 546 969 l 533 897 l 586 897 l 574 824 l 496 824 m 369 -11 q 145 68 228 -11 q 63 285 63 147 q 71 375 63 328 q 153 580 92 493 q 306 714 214 667 q 506 761 397 761 q 713 692 636 761 q 799 508 789 622 l 842 750 l 867 750 l 729 -28 q 652 -209 711 -132 q 510 -326 593 -286 q 339 -367 426 -367 q 126 -301 204 -367 q 32 -122 47 -235 l 60 -122 q 147 -283 75 -225 q 344 -342 218 -342 q 506 -303 429 -342 q 635 -194 582 -265 q 704 -28 688 -122 l 753 242 q 600 59 701 129 q 369 -11 499 -11 m 500 736 q 236 640 344 736 q 99 375 128 543 q 90 289 90 329 q 165 89 90 161 q 374 17 240 17 q 556 61 471 17 q 699 187 640 106 q 776 375 757 268 q 783 451 783 419 q 706 659 783 582 q 500 736 629 736 z "},"Ĩ":{"ha":264,"x_min":40,"x_max":431,"o":"m 240 978 l 68 0 l 40 0 l 213 978 l 240 978 m 196 1158 q 234 1149 219 1158 q 267 1122 249 1140 q 299 1097 285 1106 q 333 1089 313 1089 q 377 1106 357 1089 q 406 1154 397 1124 l 431 1154 q 393 1090 422 1117 q 329 1064 364 1064 q 288 1074 304 1064 q 253 1101 271 1083 q 222 1126 235 1118 q 192 1133 210 1133 q 121 1067 142 1133 l 96 1067 q 135 1134 108 1110 q 196 1158 161 1158 z "},"ĩ":{"ha":264,"x_min":54,"x_max":389,"o":"m 219 750 l 86 0 l 58 0 l 192 750 l 219 750 m 154 931 q 192 922 178 931 q 225 894 207 913 q 257 869 243 878 q 292 861 271 861 q 335 878 315 861 q 364 926 356 896 l 389 926 q 351 863 381 889 q 288 836 322 836 q 246 846 263 836 q 211 874 229 856 q 181 898 193 890 q 150 906 168 906 q 79 839 100 906 l 54 839 q 93 906 67 882 q 154 931 119 931 z "},"Ī":{"ha":264,"x_min":40,"x_max":482,"o":"m 240 978 l 68 0 l 40 0 l 213 978 l 240 978 m 482 1168 l 476 1143 l 47 1143 l 53 1168 l 482 1168 z "},"ī":{"ha":264,"x_min":4,"x_max":439,"o":"m 218 750 l 85 0 l 57 0 l 190 750 l 218 750 m 439 940 l 433 915 l 4 915 l 10 940 l 439 940 z "},"Ĭ":{"ha":264,"x_min":35,"x_max":436,"o":"m 235 978 l 63 0 l 35 0 l 207 978 l 235 978 m 244 1083 q 138 1117 172 1083 q 104 1201 104 1151 q 107 1228 104 1211 l 108 1233 l 136 1233 q 133 1204 133 1211 q 164 1133 133 1158 q 250 1108 194 1108 q 356 1141 314 1108 q 408 1233 397 1174 l 436 1233 l 435 1228 q 375 1127 424 1171 q 244 1083 326 1083 z "},"ĭ":{"ha":264,"x_min":51,"x_max":393,"o":"m 213 750 l 79 0 l 51 0 l 185 750 l 213 750 m 201 856 q 95 890 129 856 q 61 974 61 924 q 64 1000 61 983 l 65 1006 l 93 1006 q 90 976 90 983 q 121 906 90 931 q 207 881 151 881 q 313 913 271 881 q 365 1006 354 946 l 393 1006 l 392 1000 q 332 899 381 943 q 201 856 283 856 z "},"Į":{"ha":264,"x_min":-167,"x_max":229,"o":"m 229 978 l 57 0 l 29 0 l 201 978 l 229 978 m 58 8 l 53 -19 l 14 -19 q -97 -51 -56 -19 q -139 -136 -139 -82 q -108 -203 -139 -179 q -22 -228 -76 -228 l 72 -228 l 67 -256 l -28 -256 q -131 -224 -96 -256 q -167 -142 -167 -193 q -120 -34 -167 -76 q 19 8 -74 8 l 58 8 z "},"į":{"ha":264,"x_min":-149,"x_max":272,"o":"m 197 971 q 210 1004 197 992 q 242 1017 224 1017 q 263 1008 254 1017 q 272 988 272 1000 q 259 954 272 967 q 228 942 246 942 q 206 950 215 942 q 197 971 197 958 m 208 750 l 75 0 l 47 0 l 181 750 l 208 750 m 76 8 l 71 -19 l 32 -19 q -79 -51 -37 -19 q -121 -136 -121 -82 q -90 -203 -121 -179 q -4 -228 -58 -228 l 90 -228 l 85 -256 l -10 -256 q -113 -224 -78 -256 q -149 -142 -149 -193 q -102 -34 -149 -76 q 38 8 -56 8 l 76 8 z "},"İ":{"ha":264,"x_min":39,"x_max":304,"o":"m 239 978 l 67 0 l 39 0 l 211 978 l 239 978 m 221 1133 q 236 1167 221 1153 q 269 1182 251 1182 q 294 1172 285 1182 q 304 1147 304 1163 q 290 1114 304 1129 q 256 1099 275 1099 q 231 1109 242 1099 q 221 1133 221 1119 z "},"ı":{"ha":264,"x_min":51,"x_max":213,"o":"m 213 750 l 79 0 l 51 0 l 185 750 l 213 750 z "},"Ķ":{"ha":686,"x_min":22,"x_max":735,"o":"m 153 489 l 563 0 l 525 0 l 132 467 l 50 0 l 22 0 l 194 978 l 222 978 l 139 508 l 697 978 l 735 978 l 153 489 m 222 -82 l 293 -82 l 289 -125 q 248 -219 276 -193 q 176 -244 219 -244 l 182 -219 q 231 -200 214 -219 q 254 -144 247 -181 l 256 -135 l 213 -135 l 222 -82 z "},"ķ":{"ha":549,"x_min":47,"x_max":586,"o":"m 154 381 l 464 0 l 421 0 l 136 351 l 75 0 l 47 0 l 228 1028 l 256 1028 l 147 407 l 544 750 l 586 750 l 154 381 m 163 -82 l 233 -82 q 228 -125 229 -118 q 188 -219 217 -193 q 117 -244 160 -244 l 121 -219 q 194 -144 181 -219 l 196 -135 l 153 -135 l 163 -82 z "},"Ĺ":{"ha":549,"x_min":32,"x_max":521,"o":"m 64 25 l 439 25 l 435 0 l 32 0 l 204 978 l 232 978 l 64 25 m 514 1222 l 222 1042 l 228 1069 l 521 1256 l 514 1222 z "},"ĺ":{"ha":290,"x_min":56,"x_max":529,"o":"m 264 1028 l 83 0 l 56 0 l 236 1028 l 264 1028 m 522 1272 l 231 1092 l 236 1119 l 529 1306 l 522 1272 z "},"Ļ":{"ha":549,"x_min":22,"x_max":429,"o":"m 54 25 l 429 25 l 425 0 l 22 0 l 194 978 l 222 978 l 54 25 m 275 -125 q 234 -219 263 -193 q 163 -244 206 -244 l 168 -219 q 217 -200 200 -219 q 240 -144 233 -181 l 242 -135 l 199 -135 l 208 -82 l 279 -82 l 275 -125 z "},"ļ":{"ha":264,"x_min":-36,"x_max":256,"o":"m 256 1028 l 75 0 l 47 0 l 228 1028 l 256 1028 m 81 -82 q 75 -125 76 -118 q 35 -219 64 -193 q -36 -244 7 -244 l -32 -219 q 42 -144 28 -219 l 43 -135 l 0 -135 l 10 -82 l 81 -82 z "},"Ľ":{"ha":549,"x_min":29,"x_max":486,"o":"m 61 25 l 436 25 l 432 0 l 29 0 l 201 978 l 229 978 l 61 25 m 486 978 q 475 882 483 928 q 436 797 464 821 q 363 774 408 774 l 368 801 q 419 817 403 801 q 442 864 435 832 l 449 904 l 396 904 l 408 978 l 486 978 z "},"ľ":{"ha":264,"x_min":54,"x_max":421,"o":"m 263 1028 l 82 0 l 54 0 l 235 1028 l 263 1028 m 421 1028 q 410 932 418 978 q 371 847 399 871 q 297 824 343 824 l 303 851 q 354 867 338 851 q 376 914 371 882 l 383 954 l 331 954 l 343 1028 l 421 1028 z "},"Ŀ":{"ha":549,"x_min":29,"x_max":443,"o":"m 61 25 l 436 25 l 432 0 l 29 0 l 201 978 l 229 978 l 61 25 m 360 482 q 375 516 360 501 q 408 531 390 531 q 433 521 424 531 q 443 496 443 511 q 428 463 443 478 q 394 447 414 447 q 370 458 381 447 q 360 482 360 468 z "},"ŀ":{"ha":272,"x_min":38,"x_max":328,"o":"m 246 1028 l 65 0 l 38 0 l 218 1028 l 246 1028 m 244 507 q 260 541 244 526 q 293 556 275 556 q 318 546 308 556 q 328 521 328 536 q 313 488 328 503 q 279 472 299 472 q 255 483 265 472 q 244 507 244 493 z "},"Ł":{"ha":576,"x_min":4,"x_max":467,"o":"m 467 25 l 463 0 l 60 0 l 147 496 l 4 433 l 10 464 l 153 526 l 232 978 l 260 978 l 182 539 l 425 644 l 419 614 l 176 508 l 92 25 l 467 25 z "},"ł":{"ha":292,"x_min":26,"x_max":322,"o":"m 317 738 l 188 669 l 69 0 l 42 0 l 157 654 l 26 586 l 32 613 l 161 679 l 222 1028 l 250 1028 l 192 696 l 322 764 l 317 738 z "},"Ń":{"ha":899,"x_min":32,"x_max":867,"o":"m 694 0 l 667 0 l 224 926 l 60 0 l 32 0 l 204 976 l 232 976 l 676 51 l 839 976 l 867 976 l 694 0 m 840 1222 l 549 1042 l 554 1069 l 847 1256 l 840 1222 z "},"ń":{"ha":853,"x_min":49,"x_max":786,"o":"m 507 767 q 689 706 619 767 q 758 522 758 644 q 750 438 758 483 l 672 0 l 646 0 l 724 440 q 732 521 732 485 q 671 685 732 629 q 501 742 610 742 q 274 657 369 742 q 149 406 179 572 l 76 0 l 49 0 l 182 750 l 210 750 l 172 539 q 310 710 218 653 q 507 767 401 767 m 779 994 l 488 814 l 493 842 l 786 1028 l 779 994 z "},"Ņ":{"ha":899,"x_min":24,"x_max":858,"o":"m 686 0 l 658 0 l 215 926 l 51 0 l 24 0 l 196 976 l 224 976 l 668 51 l 831 976 l 858 976 l 686 0 m 404 -82 q 400 -125 404 -87 q 360 -219 388 -193 q 289 -244 332 -244 l 293 -219 q 342 -200 325 -219 q 365 -144 358 -181 l 367 -135 l 324 -135 l 333 -82 l 404 -82 z "},"ņ":{"ha":853,"x_min":46,"x_max":756,"o":"m 504 767 q 686 706 617 767 q 756 522 756 644 q 747 438 756 483 l 669 0 l 643 0 l 721 440 q 729 521 729 485 q 668 685 729 629 q 499 742 607 742 q 272 657 367 742 q 146 406 176 572 l 74 0 l 46 0 l 179 750 l 207 750 l 169 539 q 307 710 215 653 q 504 767 399 767 m 338 -82 l 408 -82 q 404 -125 408 -107 q 364 -219 392 -193 q 293 -244 336 -244 l 297 -219 q 371 -144 357 -219 l 372 -135 l 329 -135 l 338 -82 z "},"Ň":{"ha":899,"x_min":35,"x_max":869,"o":"m 697 0 l 669 0 l 226 926 l 63 0 l 35 0 l 207 976 l 235 976 l 679 51 l 842 976 l 869 976 l 697 0 m 754 1197 l 564 1085 l 411 1197 l 417 1225 l 569 1113 l 760 1225 l 754 1197 z "},"ň":{"ha":853,"x_min":51,"x_max":761,"o":"m 510 767 q 692 706 622 767 q 761 522 761 644 q 753 438 761 483 l 675 0 l 649 0 l 726 440 q 735 521 735 485 q 674 685 735 629 q 504 742 613 742 q 277 657 372 742 q 151 406 182 572 l 79 0 l 51 0 l 185 750 l 213 750 l 175 539 q 313 710 221 653 q 510 767 404 767 m 693 969 l 503 857 l 350 969 l 356 997 l 508 885 l 699 997 l 693 969 z "},"Ō":{"ha":1100,"x_min":83,"x_max":1036,"o":"m 647 986 q 852 938 764 986 q 988 800 940 889 q 1036 594 1036 711 q 1026 488 1036 540 q 922 229 1001 343 q 724 52 842 115 q 472 -11 607 -11 q 267 38 356 -11 q 131 175 179 86 q 83 381 83 264 q 93 488 83 435 q 198 746 118 632 q 395 923 278 860 q 647 986 513 986 m 643 961 q 411 903 521 961 q 224 738 301 846 q 122 488 147 631 q 113 382 113 438 q 159 186 113 269 q 288 58 206 103 q 476 14 369 14 q 708 72 599 14 q 895 237 818 129 q 997 488 972 344 q 1007 593 1007 540 q 960 789 1007 706 q 832 917 914 872 q 643 961 750 961 m 900 1168 l 894 1143 l 465 1143 l 471 1168 l 900 1168 z "},"ō":{"ha":899,"x_min":82,"x_max":831,"o":"m 525 760 q 747 681 664 760 q 831 463 831 601 q 822 375 831 421 q 739 170 801 257 q 585 37 676 83 q 389 -10 493 -10 q 166 69 250 -10 q 82 288 82 149 q 90 375 82 329 q 174 580 111 493 q 329 713 238 667 q 525 760 421 760 m 521 735 q 347 695 431 735 q 201 574 263 656 q 118 375 139 493 q 110 290 110 329 q 190 85 110 156 q 393 15 271 15 q 567 55 483 15 q 712 175 650 94 q 794 375 774 256 q 803 461 803 421 q 723 665 803 596 q 521 735 643 735 m 757 940 l 751 915 l 322 915 l 328 940 l 757 940 z "},"Ŏ":{"ha":1100,"x_min":76,"x_max":1029,"o":"m 640 986 q 845 938 757 986 q 981 800 933 889 q 1029 594 1029 711 q 1019 488 1029 540 q 915 229 994 343 q 717 52 835 115 q 465 -11 600 -11 q 260 38 349 -11 q 124 175 172 86 q 76 381 76 264 q 86 488 76 435 q 191 746 111 632 q 388 923 271 860 q 640 986 506 986 m 636 961 q 404 903 514 961 q 217 738 294 846 q 115 488 140 631 q 106 382 106 438 q 152 186 106 269 q 281 58 199 103 q 469 14 363 14 q 701 72 592 14 q 888 237 811 129 q 990 488 965 344 q 1000 593 1000 540 q 953 789 1000 706 q 825 917 907 872 q 636 961 743 961 m 663 1083 q 556 1117 590 1083 q 522 1201 522 1151 q 525 1228 522 1211 l 526 1233 l 554 1233 q 551 1204 551 1211 q 582 1133 551 1158 q 668 1108 613 1108 q 774 1141 732 1108 q 826 1233 815 1174 l 854 1233 l 853 1228 q 793 1127 842 1171 q 663 1083 744 1083 z "},"ŏ":{"ha":899,"x_min":76,"x_max":825,"o":"m 519 760 q 742 681 658 760 q 825 463 825 601 q 817 375 825 421 q 733 170 796 257 q 579 37 671 83 q 383 -10 488 -10 q 160 69 244 -10 q 76 288 76 149 q 85 375 76 329 q 169 580 106 493 q 324 713 232 667 q 519 760 415 760 m 515 735 q 341 695 425 735 q 195 574 257 656 q 113 375 133 493 q 104 290 104 329 q 185 85 104 156 q 388 15 265 15 q 561 55 478 15 q 706 175 644 94 q 789 375 768 256 q 797 461 797 421 q 717 665 797 596 q 515 735 638 735 m 519 856 q 413 890 447 856 q 379 974 379 924 q 382 1000 379 983 l 383 1006 l 411 1006 q 408 976 408 983 q 439 906 408 931 q 525 881 469 881 q 631 913 589 881 q 683 1006 672 946 l 711 1006 l 710 1000 q 650 899 699 943 q 519 856 601 856 z "},"Ő":{"ha":1100,"x_min":79,"x_max":1032,"o":"m 643 986 q 848 938 760 986 q 984 800 936 889 q 1032 594 1032 711 q 1022 488 1032 540 q 917 229 997 343 q 720 52 838 115 q 468 -11 603 -11 q 263 38 351 -11 q 127 175 175 86 q 79 381 79 264 q 89 488 79 435 q 194 746 114 632 q 391 923 274 860 q 643 986 508 986 m 639 961 q 407 903 517 961 q 220 738 297 846 q 118 488 143 631 q 108 382 108 438 q 155 186 108 269 q 283 58 201 103 q 472 14 365 14 q 704 72 594 14 q 891 237 814 129 q 993 488 968 344 q 1003 593 1003 540 q 956 789 1003 706 q 828 917 910 872 q 639 961 746 961 m 597 1063 l 569 1063 l 678 1207 l 710 1207 l 597 1063 m 753 1063 l 725 1063 l 840 1207 l 872 1207 l 753 1063 z "},"ő":{"ha":899,"x_min":78,"x_max":826,"o":"m 521 760 q 743 681 660 760 q 826 463 826 601 q 818 375 826 421 q 735 170 797 257 q 581 37 672 83 q 385 -10 489 -10 q 162 69 246 -10 q 78 288 78 149 q 86 375 78 329 q 170 580 107 493 q 325 713 233 667 q 521 760 417 760 m 517 735 q 342 695 426 735 q 197 574 258 656 q 114 375 135 493 q 106 290 106 329 q 186 85 106 156 q 389 15 267 15 q 563 55 479 15 q 708 175 646 94 q 790 375 769 256 q 799 461 799 421 q 719 665 799 596 q 517 735 639 735 m 453 835 l 425 835 l 533 979 l 565 979 l 453 835 m 608 835 l 581 835 l 696 979 l 728 979 l 608 835 z "},"Œ":{"ha":1536,"x_min":74,"x_max":1553,"o":"m 1019 501 l 1428 501 l 1424 476 l 1015 476 l 935 25 l 1385 25 l 1381 0 l 903 0 l 961 333 q 844 153 921 231 q 669 32 768 75 q 463 -11 569 -11 q 258 38 346 -11 q 122 175 169 86 q 74 381 74 264 q 83 488 74 435 q 188 746 108 632 q 385 923 268 860 q 638 986 503 986 q 829 943 744 986 q 963 822 914 900 q 1017 642 1013 744 l 1075 978 l 1553 978 l 1549 953 l 1099 953 l 1019 501 m 467 14 q 699 72 589 14 q 885 237 808 129 q 988 488 963 344 q 997 593 997 540 q 951 789 997 706 q 822 917 904 872 q 633 961 740 961 q 401 903 511 961 q 215 738 292 846 q 113 488 138 631 q 103 382 103 438 q 149 186 103 269 q 278 58 196 103 q 467 14 360 14 z "},"œ":{"ha":1576,"x_min":75,"x_max":1510,"o":"m 1217 760 q 1378 723 1313 760 q 1477 626 1444 686 q 1510 494 1510 567 q 1504 438 1510 476 q 1485 363 1494 388 l 813 363 q 806 286 806 317 q 885 84 806 153 q 1085 15 964 15 q 1309 80 1211 15 q 1444 254 1407 144 l 1472 254 q 1328 63 1432 136 q 1081 -10 1224 -10 q 870 60 950 -10 q 781 257 790 131 q 619 61 726 132 q 382 -10 513 -10 q 159 69 243 -10 q 75 288 75 149 q 83 375 75 329 q 167 580 104 493 q 322 713 231 667 q 518 760 414 760 q 731 689 649 760 q 822 493 813 618 q 981 690 876 619 q 1217 760 1086 760 m 788 375 q 796 461 796 421 q 716 665 796 596 q 514 735 636 735 q 340 695 424 735 q 194 574 256 656 q 111 375 132 493 q 103 290 103 329 q 183 85 103 156 q 386 15 264 15 q 560 55 476 15 q 705 175 643 94 q 788 375 767 256 m 1471 388 q 1483 485 1483 442 q 1406 672 1483 608 q 1213 735 1328 735 q 1042 697 1124 735 q 899 581 960 658 q 818 388 839 503 l 1471 388 z "},"Ŕ":{"ha":743,"x_min":32,"x_max":801,"o":"m 451 978 q 655 922 589 978 q 721 767 721 865 q 715 701 721 731 q 606 502 693 572 q 375 426 518 432 l 601 0 l 567 0 l 342 426 l 135 426 l 60 0 l 32 0 l 204 978 l 451 978 m 688 701 q 693 765 693 731 q 447 950 693 950 l 228 950 l 140 456 l 360 456 q 688 701 644 456 m 794 1222 l 503 1042 l 508 1069 l 801 1256 l 794 1222 z "},"ŕ":{"ha":469,"x_min":49,"x_max":636,"o":"m 178 569 q 508 767 261 767 l 503 736 l 490 736 q 281 670 375 736 q 157 457 186 604 l 76 0 l 49 0 l 182 750 l 210 750 l 178 569 m 629 994 l 338 814 l 343 842 l 636 1028 l 629 994 z "},"Ŗ":{"ha":743,"x_min":22,"x_max":711,"o":"m 442 978 q 645 922 579 978 q 711 767 711 865 q 706 701 711 731 q 596 502 683 572 q 365 426 508 432 l 592 0 l 557 0 l 332 426 l 125 426 l 50 0 l 22 0 l 194 978 l 442 978 m 678 701 q 683 765 683 731 q 438 950 683 950 l 218 950 l 131 456 l 350 456 q 678 701 635 456 m 250 -82 l 321 -82 l 317 -125 q 276 -219 304 -193 q 204 -244 247 -244 l 210 -219 q 258 -200 242 -219 q 282 -144 275 -181 l 283 -135 l 240 -135 l 250 -82 z "},"ŗ":{"ha":469,"x_min":-12,"x_max":525,"o":"m 194 569 q 525 767 278 767 l 519 736 l 507 736 q 297 670 392 736 q 174 457 203 604 l 93 0 l 65 0 l 199 750 l 226 750 l 194 569 m 32 -82 l 103 -82 q 99 -125 103 -107 q 58 -219 86 -193 q -12 -244 31 -244 l -8 -219 q 65 -144 51 -219 l 67 -135 l 24 -135 l 32 -82 z "},"Ř":{"ha":743,"x_min":35,"x_max":724,"o":"m 454 978 q 658 922 592 978 q 724 767 724 865 q 718 701 724 731 q 608 502 696 572 q 378 426 521 432 l 604 0 l 569 0 l 344 426 l 138 426 l 63 0 l 35 0 l 207 978 l 454 978 m 690 701 q 696 765 696 731 q 450 950 696 950 l 231 950 l 143 456 l 363 456 q 690 701 647 456 m 708 1197 l 518 1085 l 365 1197 l 371 1225 l 524 1113 l 714 1225 l 708 1197 z "},"ř":{"ha":469,"x_min":51,"x_max":549,"o":"m 181 569 q 511 767 264 767 l 506 736 l 493 736 q 283 670 378 736 q 160 457 189 604 l 79 0 l 51 0 l 185 750 l 213 750 l 181 569 m 543 969 l 353 857 l 200 969 l 206 997 l 358 885 l 549 997 l 543 969 z "},"Ś":{"ha":744,"x_min":42,"x_max":772,"o":"m 618 221 q 573 110 608 163 q 474 24 538 58 q 324 -10 411 -10 q 168 26 232 -10 q 73 119 104 63 q 44 235 42 175 l 72 235 q 94 137 71 188 q 176 51 118 86 q 328 15 233 15 q 506 74 438 15 q 590 221 575 132 q 596 276 596 260 q 564 386 596 344 q 486 450 532 428 q 363 499 440 472 q 238 546 285 524 q 158 611 190 568 q 126 722 126 654 q 132 782 126 753 q 224 929 147 871 q 422 988 301 988 q 568 956 508 988 q 658 876 628 924 q 690 776 688 828 l 663 776 q 635 860 660 818 q 557 933 611 903 q 418 963 503 963 q 245 915 315 963 q 160 782 175 868 q 156 731 156 753 q 186 628 156 668 q 260 568 217 589 q 381 521 304 547 q 509 471 461 494 q 590 403 557 447 q 624 285 624 358 q 618 221 624 253 m 765 1222 l 474 1042 l 479 1069 l 772 1256 l 765 1222 z "},"ś":{"ha":671,"x_min":33,"x_max":692,"o":"m 344 760 q 535 699 469 760 q 594 531 601 638 l 567 531 q 517 676 572 618 q 340 735 461 735 q 190 684 247 735 q 133 556 133 633 q 159 477 133 507 q 223 431 185 447 q 326 396 261 415 q 442 356 399 375 q 515 301 485 338 q 544 203 544 264 q 539 151 544 190 q 466 35 526 79 q 314 -10 406 -10 q 108 52 182 -10 q 40 219 33 114 l 68 219 q 125 74 61 132 q 319 15 189 15 q 449 53 397 15 q 511 151 500 92 q 515 193 515 175 q 488 283 515 249 q 419 334 460 317 q 310 371 378 351 q 201 409 240 392 q 133 460 161 426 q 106 549 106 493 q 110 593 106 568 q 186 715 124 671 q 344 760 249 760 m 685 994 l 393 814 l 399 842 l 692 1028 l 685 994 z "},"Ş":{"ha":744,"x_min":40,"x_max":689,"o":"m 617 221 q 572 110 607 163 q 473 24 536 58 q 322 -10 410 -10 q 167 26 231 -10 q 72 119 103 63 q 43 235 40 175 l 71 235 q 93 137 69 188 q 174 51 117 86 q 326 15 232 15 q 505 74 436 15 q 589 221 574 132 q 594 276 594 260 q 563 386 594 344 q 485 450 531 428 q 361 499 439 472 q 236 546 283 524 q 157 611 189 568 q 125 722 125 654 q 131 782 125 753 q 223 929 146 871 q 421 988 300 988 q 567 956 507 988 q 656 876 626 924 q 689 776 686 828 l 661 776 q 634 860 658 818 q 556 933 610 903 q 417 963 501 963 q 244 915 314 963 q 158 782 174 868 q 154 731 154 753 q 185 628 154 668 q 259 568 215 589 q 379 521 303 547 q 508 471 460 494 q 589 403 556 447 q 622 285 622 358 q 617 221 622 253 m 296 -124 q 413 -145 372 -119 q 454 -222 454 -171 q 410 -318 454 -283 q 286 -353 367 -353 l 196 -353 l 201 -325 l 285 -325 q 425 -225 425 -325 q 399 -169 425 -190 q 315 -149 372 -149 l 264 -149 l 292 10 l 319 10 l 296 -124 z "},"ş":{"ha":671,"x_min":40,"x_max":608,"o":"m 351 760 q 542 699 476 760 q 601 531 608 638 l 574 531 q 524 676 579 618 q 347 735 468 735 q 197 684 254 735 q 140 556 140 633 q 166 477 140 507 q 230 431 192 447 q 333 396 268 415 q 449 356 406 375 q 522 301 492 338 q 551 203 551 264 q 546 151 551 190 q 473 35 533 79 q 321 -10 413 -10 q 115 52 189 -10 q 47 219 40 114 l 75 219 q 132 74 68 132 q 326 15 196 15 q 456 53 404 15 q 518 151 507 92 q 522 193 522 175 q 494 283 522 249 q 426 334 467 317 q 317 371 385 351 q 208 409 247 392 q 140 460 168 426 q 113 549 113 493 q 117 593 113 568 q 193 715 131 671 q 351 760 256 760 m 292 -124 q 409 -145 368 -119 q 450 -222 450 -171 q 406 -318 450 -283 q 282 -353 363 -353 l 192 -353 l 197 -325 l 281 -325 q 421 -225 421 -325 q 394 -169 421 -190 q 311 -149 368 -149 l 260 -149 l 288 10 l 315 10 l 292 -124 z "},"Š":{"ha":744,"x_min":44,"x_max":693,"o":"m 621 221 q 576 110 611 163 q 477 24 540 58 q 326 -10 414 -10 q 171 26 235 -10 q 76 119 107 63 q 47 235 44 175 l 75 235 q 97 137 74 188 q 178 51 121 86 q 331 15 236 15 q 509 74 440 15 q 593 221 578 132 q 599 276 599 260 q 567 386 599 344 q 489 450 535 428 q 365 499 443 472 q 240 546 288 524 q 161 611 193 568 q 129 722 129 654 q 135 782 129 753 q 227 929 150 871 q 425 988 304 988 q 571 956 511 988 q 660 876 631 924 q 693 776 690 828 l 665 776 q 638 860 663 818 q 560 933 614 903 q 421 963 506 963 q 248 915 318 963 q 163 782 178 868 q 158 731 158 753 q 189 628 158 668 q 263 568 219 589 q 383 521 307 547 q 512 471 464 494 q 593 403 560 447 q 626 285 626 358 q 621 221 626 253 m 679 1197 l 489 1085 l 336 1197 l 342 1225 l 494 1113 l 685 1225 l 679 1197 z "},"š":{"ha":671,"x_min":36,"x_max":604,"o":"m 347 760 q 538 699 472 760 q 597 531 604 638 l 569 531 q 519 676 575 618 q 343 735 464 735 q 193 684 250 735 q 136 556 136 633 q 162 477 136 507 q 226 431 188 447 q 329 396 264 415 q 444 356 401 375 q 517 301 488 338 q 547 203 547 264 q 542 151 547 190 q 469 35 529 79 q 317 -10 408 -10 q 110 52 185 -10 q 43 219 36 114 l 71 219 q 128 74 64 132 q 322 15 192 15 q 451 53 400 15 q 514 151 503 92 q 518 193 518 175 q 490 283 518 249 q 422 334 463 317 q 313 371 381 351 q 203 409 243 392 q 136 460 164 426 q 108 549 108 493 q 113 593 108 568 q 189 715 126 671 q 347 760 251 760 m 599 969 l 408 857 l 256 969 l 261 997 l 414 885 l 604 997 l 599 969 z "},"Ţ":{"ha":653,"x_min":108,"x_max":711,"o":"m 711 978 l 706 953 l 421 953 l 254 0 q 373 -21 335 3 q 411 -87 411 -44 q 410 -110 411 -103 q 356 -197 400 -164 q 240 -229 311 -229 l 153 -229 l 158 -201 l 242 -201 q 382 -110 365 -201 q 383 -96 383 -104 q 272 -25 383 -25 l 221 -25 l 393 953 l 108 953 l 114 978 l 711 978 z "},"ţ":{"ha":469,"x_min":75,"x_max":467,"o":"m 133 197 q 126 131 126 153 q 158 50 126 72 q 260 28 189 28 l 339 28 l 335 0 l 253 0 l 231 0 l 208 -124 q 326 -142 286 -119 q 367 -211 367 -165 q 364 -233 367 -217 q 310 -320 354 -287 q 196 -353 267 -353 l 108 -353 l 113 -325 l 196 -325 q 336 -233 319 -325 q 338 -217 338 -228 q 312 -167 338 -186 q 228 -149 286 -149 l 176 -149 l 203 3 q 124 41 149 11 q 99 128 99 71 q 106 197 99 153 l 197 722 l 75 722 l 81 750 l 203 750 l 236 942 l 264 942 l 231 750 l 467 750 l 461 722 l 225 722 l 133 197 z "},"Ť":{"ha":653,"x_min":113,"x_max":714,"o":"m 714 978 l 710 953 l 425 953 l 257 0 l 229 0 l 397 953 l 113 953 l 117 978 l 714 978 m 632 1197 l 442 1085 l 289 1197 l 294 1225 l 447 1113 l 638 1225 l 632 1197 z "},"ť":{"ha":469,"x_min":71,"x_max":463,"o":"m 451 932 q 413 847 440 871 q 339 824 385 824 l 344 851 q 396 867 379 851 q 418 914 413 882 l 425 954 l 372 954 l 385 1028 l 463 1028 q 451 932 460 978 m 226 750 l 461 750 l 457 722 l 221 722 l 128 197 q 121 131 121 156 q 152 50 121 72 q 256 28 183 28 l 335 28 l 329 0 l 247 0 q 130 30 167 0 q 93 128 93 60 q 100 197 93 153 l 193 722 l 71 722 l 75 750 l 199 750 l 232 942 l 260 942 l 226 750 z "},"Ũ":{"ha":874,"x_min":90,"x_max":860,"o":"m 236 978 l 129 371 q 118 261 118 307 q 184 74 118 133 q 367 15 250 15 q 597 100 503 15 q 725 371 692 185 l 832 978 l 860 978 l 753 371 q 616 83 718 176 q 363 -10 514 -10 q 163 56 235 -10 q 90 258 90 122 q 101 371 90 304 l 208 978 l 236 978 m 501 1158 q 540 1149 525 1158 q 572 1122 554 1140 q 604 1097 590 1106 q 639 1089 618 1089 q 683 1106 663 1089 q 711 1154 703 1124 l 736 1154 q 699 1090 728 1117 q 635 1064 669 1064 q 593 1074 610 1064 q 558 1101 576 1083 q 528 1126 540 1118 q 497 1133 515 1133 q 426 1067 447 1133 l 401 1067 q 440 1134 414 1110 q 501 1158 467 1158 z "},"ũ":{"ha":832,"x_min":81,"x_max":790,"o":"m 790 750 l 657 0 l 629 0 l 667 211 q 529 40 621 97 q 332 -17 438 -17 q 150 44 219 -17 q 81 228 81 106 q 89 313 81 267 l 167 750 l 193 750 l 115 310 q 107 229 107 267 q 168 65 107 121 q 338 8 229 8 q 565 93 469 8 q 690 344 660 178 l 763 750 l 790 750 m 425 931 q 463 922 449 931 q 496 894 478 913 q 528 869 514 878 q 563 861 542 861 q 606 878 586 861 q 635 926 626 896 l 660 926 q 622 863 651 889 q 558 836 593 836 q 517 846 533 836 q 482 874 500 856 q 451 898 464 890 q 421 906 439 906 q 350 839 371 906 l 325 839 q 364 906 338 882 q 425 931 390 931 z "},"Ū":{"ha":874,"x_min":89,"x_max":858,"o":"m 235 978 l 128 371 q 117 261 117 307 q 183 74 117 133 q 365 15 249 15 q 596 100 501 15 q 724 371 690 185 l 831 978 l 858 978 l 751 371 q 615 83 717 176 q 361 -10 513 -10 q 161 56 233 -10 q 89 258 89 122 q 100 371 89 304 l 207 978 l 235 978 m 786 1168 l 781 1143 l 351 1143 l 357 1168 l 786 1168 z "},"ū":{"ha":832,"x_min":79,"x_max":789,"o":"m 789 750 l 656 0 l 628 0 l 665 211 q 528 40 619 97 q 331 -17 436 -17 q 149 44 218 -17 q 79 228 79 106 q 88 313 79 267 l 165 750 l 192 750 l 114 310 q 106 229 106 267 q 167 65 106 121 q 336 8 228 8 q 563 93 468 8 q 689 344 658 178 l 761 750 l 789 750 m 710 940 l 704 915 l 275 915 l 281 940 l 710 940 z "},"Ŭ":{"ha":874,"x_min":83,"x_max":853,"o":"m 229 978 l 122 371 q 111 261 111 307 q 177 74 111 133 q 360 15 243 15 q 590 100 496 15 q 718 371 685 185 l 825 978 l 853 978 l 746 371 q 609 83 711 176 q 356 -10 507 -10 q 156 56 228 -10 q 83 258 83 122 q 94 371 83 304 l 201 978 l 229 978 m 549 1083 q 442 1117 476 1083 q 408 1201 408 1151 q 411 1228 408 1211 l 413 1233 l 440 1233 q 438 1204 438 1211 q 468 1133 438 1158 q 554 1108 499 1108 q 660 1141 618 1108 q 713 1233 701 1174 l 740 1233 l 739 1228 q 679 1127 728 1171 q 549 1083 631 1083 z "},"ŭ":{"ha":832,"x_min":74,"x_max":783,"o":"m 783 750 l 650 0 l 622 0 l 660 211 q 522 40 614 97 q 325 -17 431 -17 q 143 44 213 -17 q 74 228 74 106 q 82 313 74 267 l 160 750 l 186 750 l 108 310 q 100 229 100 267 q 161 65 100 121 q 331 8 222 8 q 558 93 463 8 q 683 344 653 178 l 756 750 l 783 750 m 472 856 q 366 890 400 856 q 332 974 332 924 q 335 1000 332 983 l 336 1006 l 364 1006 q 361 976 361 983 q 392 906 361 931 q 478 881 422 881 q 583 913 542 881 q 636 1006 625 946 l 664 1006 l 663 1000 q 603 899 651 943 q 472 856 554 856 z "},"Ů":{"ha":874,"x_min":75,"x_max":844,"o":"m 221 978 l 114 371 q 103 261 103 307 q 169 74 103 133 q 351 15 235 15 q 582 100 488 15 q 710 371 676 185 l 817 978 l 844 978 l 738 371 q 601 83 703 176 q 347 -10 499 -10 q 147 56 219 -10 q 75 258 75 122 q 86 371 75 304 l 193 978 l 221 978 m 576 1332 q 652 1305 622 1332 q 682 1233 682 1278 q 637 1124 682 1167 q 532 1082 592 1082 q 456 1109 486 1082 q 426 1181 426 1136 q 472 1290 426 1247 q 576 1332 517 1332 m 572 1307 q 490 1274 524 1307 q 456 1185 456 1240 q 478 1128 456 1149 q 536 1107 500 1107 q 619 1140 585 1107 q 653 1229 653 1174 q 631 1286 653 1265 q 572 1307 608 1307 z "},"ů":{"ha":832,"x_min":65,"x_max":775,"o":"m 775 750 l 642 0 l 614 0 l 651 211 q 514 40 606 97 q 317 -17 422 -17 q 135 44 204 -17 q 65 228 65 106 q 74 313 65 267 l 151 750 l 178 750 l 100 310 q 92 229 92 267 q 153 65 92 121 q 322 8 214 8 q 549 93 454 8 q 675 344 644 178 l 747 750 l 775 750 m 500 1104 q 576 1077 546 1104 q 606 1006 606 1050 q 560 897 606 939 q 456 854 515 854 q 380 881 410 854 q 350 953 350 908 q 395 1062 350 1019 q 500 1104 440 1104 m 496 1079 q 413 1046 447 1079 q 379 957 379 1013 q 401 900 379 921 q 460 879 424 879 q 542 913 508 879 q 576 1001 576 946 q 554 1058 576 1038 q 496 1079 532 1079 z "},"Ű":{"ha":874,"x_min":86,"x_max":856,"o":"m 232 978 l 125 371 q 114 261 114 307 q 180 74 114 133 q 363 15 246 15 q 593 100 499 15 q 721 371 688 185 l 828 978 l 856 978 l 749 371 q 612 83 714 176 q 358 -10 510 -10 q 158 56 231 -10 q 86 258 86 122 q 97 371 86 304 l 204 978 l 232 978 m 483 1063 l 456 1063 l 564 1207 l 596 1207 l 483 1063 m 639 1063 l 611 1063 l 726 1207 l 758 1207 l 639 1063 z "},"ű":{"ha":832,"x_min":76,"x_max":786,"o":"m 786 750 l 653 0 l 625 0 l 663 211 q 525 40 617 97 q 328 -17 433 -17 q 146 44 215 -17 q 76 228 76 106 q 85 313 76 267 l 163 750 l 189 750 l 111 310 q 103 229 103 267 q 164 65 103 121 q 333 8 225 8 q 560 93 465 8 q 686 344 656 178 l 758 750 l 786 750 m 407 835 l 379 835 l 488 979 l 519 979 l 407 835 m 563 835 l 535 835 l 650 979 l 682 979 l 563 835 z "},"Ų":{"ha":874,"x_min":89,"x_max":857,"o":"m 233 978 l 126 371 q 115 261 115 307 q 181 74 115 133 q 364 15 247 15 q 722 371 658 15 l 829 978 l 857 978 l 750 371 q 622 92 717 185 q 382 -10 526 0 q 295 -42 329 -14 q 253 -114 261 -69 q 251 -133 251 -121 q 281 -196 251 -174 q 367 -218 311 -218 l 461 -218 l 456 -246 l 361 -246 q 258 -217 293 -246 q 222 -139 222 -187 q 250 -57 222 -96 q 318 -7 278 -18 q 151 76 213 7 q 89 268 89 144 q 99 371 89 318 l 206 978 l 233 978 z "},"ų":{"ha":832,"x_min":64,"x_max":774,"o":"m 774 750 l 640 0 l 613 0 l 650 211 q 513 40 604 97 q 315 -17 421 -17 q 133 44 203 -17 q 64 228 64 106 q 72 313 64 267 l 150 750 l 176 750 l 99 310 q 90 229 90 267 q 151 65 90 121 q 321 8 213 8 q 548 93 453 8 q 674 344 643 178 l 746 750 l 774 750 m 642 8 l 636 -19 l 597 -19 q 486 -51 528 -19 q 444 -136 444 -82 q 476 -203 444 -179 q 561 -228 507 -228 l 656 -228 l 650 -256 l 556 -256 q 452 -224 488 -256 q 417 -142 417 -193 q 463 -34 417 -76 q 603 8 510 8 l 642 8 z "},"Ŵ":{"ha":1256,"x_min":138,"x_max":1296,"o":"m 1296 978 l 861 0 l 833 0 l 708 928 l 256 0 l 228 0 l 138 978 l 171 978 l 254 60 l 700 978 l 733 978 l 857 60 l 1263 978 l 1296 978 m 763 1201 l 571 1089 l 576 1117 l 768 1229 l 919 1117 l 914 1089 l 763 1201 z "},"ŵ":{"ha":1115,"x_min":94,"x_max":1154,"o":"m 1154 750 l 785 0 l 764 0 l 615 700 l 218 0 l 197 0 l 94 750 l 125 750 l 221 57 l 613 750 l 636 750 l 783 57 l 1124 750 l 1154 750 m 649 974 l 457 861 l 463 889 l 654 1001 l 806 889 l 800 861 l 649 974 z "},"Ŷ":{"ha":719,"x_min":131,"x_max":767,"o":"m 767 978 l 364 410 l 292 0 l 264 0 l 336 410 l 131 978 l 164 978 l 354 440 l 733 978 l 767 978 m 494 1201 l 303 1089 l 308 1117 l 500 1229 l 651 1117 l 646 1089 l 494 1201 z "},"ŷ":{"ha":699,"x_min":57,"x_max":714,"o":"m 101 750 l 279 40 l 683 750 l 714 750 l 92 -353 l 57 -353 l 257 -1 l 71 750 l 101 750 m 428 974 l 236 861 l 242 889 l 433 1001 l 585 889 l 579 861 l 428 974 z "},"Ÿ":{"ha":719,"x_min":135,"x_max":771,"o":"m 771 978 l 368 410 l 296 0 l 268 0 l 340 410 l 135 978 l 168 978 l 358 440 l 738 978 l 771 978 m 357 1133 q 372 1167 357 1153 q 406 1182 386 1182 q 431 1172 421 1182 q 440 1147 440 1163 q 426 1114 440 1129 q 392 1099 411 1099 q 367 1108 376 1099 q 357 1133 357 1118 m 543 1133 q 558 1167 543 1153 q 592 1182 572 1182 q 615 1172 606 1182 q 625 1147 625 1163 q 610 1113 625 1128 q 578 1099 596 1099 q 553 1108 563 1099 q 543 1133 543 1118 z "},"Ź":{"ha":676,"x_min":-37,"x_max":736,"o":"m -3 26 l 546 26 l 542 0 l -37 0 l -33 26 l 667 950 l 149 950 l 153 978 l 700 978 l 696 950 l -3 26 m 729 1222 l 438 1042 l 443 1069 l 736 1256 l 729 1222 z "},"ź":{"ha":565,"x_min":-26,"x_max":639,"o":"m 8 25 l 461 25 l 456 0 l -26 0 l -21 25 l 539 725 l 115 725 l 121 750 l 575 750 l 569 725 l 8 25 m 632 994 l 340 814 l 346 842 l 639 1028 l 632 994 z "},"Ż":{"ha":676,"x_min":-31,"x_max":707,"o":"m 4 26 l 553 26 l 549 0 l -31 0 l -26 26 l 674 950 l 156 950 l 160 978 l 707 978 l 703 950 l 4 26 m 426 1133 q 442 1167 426 1153 q 475 1182 457 1182 q 500 1172 490 1182 q 510 1147 510 1163 q 495 1114 510 1129 q 461 1099 481 1099 q 437 1109 447 1099 q 426 1133 426 1119 z "},"ż":{"ha":565,"x_min":-21,"x_max":581,"o":"m 14 25 l 467 25 l 461 0 l -21 0 l -15 25 l 544 725 l 121 725 l 126 750 l 581 750 l 575 725 l 14 25 m 328 906 q 343 940 328 925 q 376 954 358 954 q 401 944 392 954 q 411 919 411 935 q 397 886 411 901 q 363 871 382 871 q 338 881 349 871 q 328 906 328 892 z "},"Ž":{"ha":676,"x_min":-35,"x_max":703,"o":"m 0 26 l 549 26 l 544 0 l -35 0 l -31 26 l 669 950 l 151 950 l 156 978 l 703 978 l 699 950 l 0 26 m 643 1197 l 453 1085 l 300 1197 l 306 1225 l 458 1113 l 649 1225 l 643 1197 z "},"ž":{"ha":565,"x_min":-24,"x_max":578,"o":"m 11 25 l 464 25 l 458 0 l -24 0 l -18 25 l 542 725 l 118 725 l 124 750 l 578 750 l 572 725 l 11 25 m 546 969 l 356 857 l 203 969 l 208 997 l 361 885 l 551 997 l 546 969 z "},"ƒ":{"ha":460,"x_min":-143,"x_max":582,"o":"m 576 1021 q 410 978 474 1021 q 322 846 347 936 l 296 750 l 511 750 l 506 725 l 289 725 l 71 -47 q 13 -154 50 -119 q -101 -189 -25 -189 l -143 -189 l -137 -164 l -100 -164 q -9 -140 -40 -164 q 43 -47 22 -117 l 261 725 l 142 725 l 146 750 l 268 750 l 296 846 q 396 998 324 950 q 582 1046 468 1046 l 576 1021 z "},"Ǽ":{"ha":1163,"x_min":-72,"x_max":1179,"o":"m 725 953 l 646 501 l 1054 501 l 1049 476 l 640 476 l 561 25 l 1011 25 l 1007 0 l 529 0 l 576 269 l 174 269 l -40 0 l -72 0 l 701 978 l 1179 978 l 1175 953 l 725 953 m 693 926 l 193 294 l 582 294 l 693 926 m 1029 1222 l 738 1042 l 743 1069 l 1036 1256 l 1029 1222 z "},"ǽ":{"ha":1576,"x_min":74,"x_max":1508,"o":"m 1215 760 q 1377 723 1311 760 q 1476 626 1443 686 q 1508 494 1508 567 q 1503 438 1508 476 q 1483 363 1493 388 l 811 363 q 804 286 804 318 q 883 84 804 153 q 1083 15 963 15 q 1308 80 1210 15 q 1443 254 1406 144 l 1471 254 q 1326 63 1431 136 q 1079 -10 1222 -10 q 876 56 956 -10 q 789 243 796 121 l 746 0 l 719 0 l 763 242 q 611 60 713 129 q 379 -10 510 -10 q 156 69 238 -10 q 74 286 74 149 q 82 375 74 329 q 164 580 103 493 q 317 713 225 667 q 515 760 408 760 q 722 690 644 760 q 810 508 799 621 l 853 750 l 879 750 l 836 507 q 985 695 886 631 q 1215 760 1085 760 m 786 375 q 793 454 793 410 q 717 659 793 583 q 511 735 640 735 q 247 638 356 735 q 110 375 139 542 q 101 289 101 329 q 176 88 101 160 q 383 15 250 15 q 566 60 481 15 q 709 187 651 106 q 786 375 767 268 m 1469 388 q 1482 485 1482 442 q 1404 672 1482 608 q 1211 735 1326 735 q 957 647 1065 735 q 817 388 849 560 l 1469 388 m 1138 994 l 846 814 l 851 842 l 1144 1028 l 1138 994 z "},"Ș":{"ha":744,"x_min":31,"x_max":679,"o":"m 607 221 q 562 110 597 163 q 463 24 526 58 q 313 -10 400 -10 q 157 26 221 -10 q 62 119 93 63 q 33 235 31 175 l 61 235 q 83 137 60 188 q 165 51 107 86 q 317 15 222 15 q 495 74 426 15 q 579 221 564 132 q 585 276 585 260 q 553 386 585 344 q 475 450 521 428 q 351 499 429 472 q 226 546 274 524 q 147 611 179 568 q 115 722 115 654 q 121 782 115 753 q 213 929 136 871 q 411 988 290 988 q 557 956 497 988 q 647 876 617 924 q 679 776 676 828 l 651 776 q 624 860 649 818 q 546 933 600 903 q 407 963 492 963 q 234 915 304 963 q 149 782 164 868 q 144 731 144 753 q 175 628 144 668 q 249 568 206 589 q 369 521 293 547 q 498 471 450 494 q 579 403 546 447 q 613 285 613 358 q 607 221 613 253 m 361 -82 q 357 -125 361 -107 q 317 -219 344 -193 q 246 -244 289 -244 l 250 -219 q 322 -144 311 -219 l 325 -135 l 282 -135 l 290 -82 l 361 -82 z "},"ș":{"ha":671,"x_min":33,"x_max":601,"o":"m 344 760 q 535 699 469 760 q 594 531 601 638 l 567 531 q 517 676 572 618 q 340 735 461 735 q 190 684 247 735 q 133 556 133 633 q 159 477 133 507 q 223 431 185 447 q 326 396 261 415 q 442 356 399 375 q 515 301 485 338 q 544 203 544 264 q 539 151 544 190 q 466 35 526 79 q 314 -10 406 -10 q 108 52 182 -10 q 40 219 33 114 l 68 219 q 125 74 61 132 q 319 15 189 15 q 449 53 397 15 q 511 151 500 92 q 515 193 515 175 q 488 283 515 249 q 419 334 460 317 q 310 371 378 351 q 201 409 240 392 q 133 460 161 426 q 106 549 106 493 q 110 593 106 568 q 186 715 124 671 q 344 760 249 760 m 315 -82 q 310 -125 311 -118 q 270 -219 299 -193 q 199 -244 242 -244 l 203 -219 q 276 -144 263 -219 l 278 -135 l 235 -135 l 244 -82 l 315 -82 z "},"Ț":{"ha":653,"x_min":100,"x_max":701,"o":"m 701 978 l 697 953 l 413 953 l 244 0 l 217 0 l 385 953 l 100 953 l 104 978 l 701 978 m 247 -125 q 206 -219 235 -193 q 135 -244 178 -244 l 140 -219 q 189 -200 172 -219 q 213 -144 206 -181 l 214 -135 l 171 -135 l 181 -82 l 251 -82 l 247 -125 z "},"ț":{"ha":469,"x_min":86,"x_max":476,"o":"m 143 197 q 136 131 136 156 q 167 50 136 72 q 271 28 199 28 l 350 28 l 344 0 l 263 0 q 145 30 182 0 q 108 128 108 60 q 115 197 108 153 l 208 722 l 86 722 l 90 750 l 214 750 l 247 942 l 275 942 l 242 750 l 476 750 l 472 722 l 236 722 l 143 197 m 169 -82 l 240 -82 q 236 -125 240 -87 q 196 -219 224 -193 q 125 -244 168 -244 l 129 -219 q 201 -144 190 -219 l 204 -135 l 161 -135 l 169 -82 z "},"ʼ":{"ha":169,"x_min":17,"x_max":140,"o":"m 140 1028 q 129 932 138 978 q 90 847 118 871 q 17 824 63 824 l 22 851 q 73 867 57 851 q 96 914 89 882 l 103 954 l 50 954 l 63 1028 l 140 1028 z "},"ˆ":{"ha":454,"x_min":126,"x_max":475,"o":"m 318 974 l 126 861 l 132 889 l 324 1001 l 475 889 l 469 861 l 318 974 z "},"ˇ":{"ha":454,"x_min":146,"x_max":494,"o":"m 489 969 l 299 857 l 146 969 l 151 997 l 304 885 l 494 997 l 489 969 z "},"ˉ":{"ha":540,"x_min":136,"x_max":571,"o":"m 571 940 l 565 915 l 136 915 l 142 940 l 571 940 z "},"˘":{"ha":439,"x_min":149,"x_max":481,"o":"m 289 856 q 183 890 217 856 q 149 974 149 924 q 151 1000 149 983 l 153 1006 l 181 1006 q 178 976 178 983 q 208 906 178 931 q 294 881 239 881 q 400 913 358 881 q 453 1006 442 946 l 481 1006 l 479 1000 q 419 899 468 943 q 289 856 371 856 z "},"˙":{"ha":214,"x_min":149,"x_max":232,"o":"m 149 906 q 164 940 149 925 q 197 954 179 954 q 222 944 213 954 q 232 919 232 935 q 217 886 232 901 q 183 871 203 871 q 159 881 169 871 q 149 906 149 892 z "},"˚":{"ha":361,"x_min":136,"x_max":392,"o":"m 286 1104 q 362 1077 332 1104 q 392 1006 392 1050 q 347 897 392 939 q 242 854 301 854 q 166 881 196 854 q 136 953 136 908 q 181 1062 136 1019 q 286 1104 226 1104 m 282 1079 q 199 1046 233 1079 q 165 957 165 1013 q 188 900 165 921 q 246 879 210 879 q 328 913 294 879 q 363 1001 363 946 q 340 1058 363 1038 q 282 1079 318 1079 z "},"˛":{"ha":365,"x_min":53,"x_max":292,"o":"m 278 -50 l 272 -78 l 233 -78 q 122 -109 164 -78 q 81 -194 81 -140 q 112 -262 81 -237 q 197 -286 143 -286 l 292 -286 l 286 -314 l 192 -314 q 88 -283 124 -314 q 53 -200 53 -251 q 99 -92 53 -135 q 239 -50 146 -50 l 278 -50 z "},"˜":{"ha":431,"x_min":131,"x_max":465,"o":"m 231 931 q 269 922 254 931 q 301 894 283 913 q 333 869 319 878 q 368 861 347 861 q 412 878 392 861 q 440 926 432 896 l 465 926 q 428 863 457 889 q 364 836 399 836 q 322 846 339 836 q 288 874 306 856 q 257 898 269 890 q 226 906 244 906 q 156 839 176 906 l 131 839 q 169 906 143 882 q 231 931 196 931 z "},"˝":{"ha":389,"x_min":126,"x_max":429,"o":"m 154 835 l 126 835 l 235 979 l 267 979 l 154 835 m 310 835 l 282 835 l 397 979 l 429 979 l 310 835 z "},"π":{"ha":1001,"x_min":144,"x_max":978,"o":"m 978 750 l 972 725 l 851 725 l 724 0 l 696 0 l 824 725 l 300 725 l 172 0 l 144 0 l 272 725 l 151 725 l 157 750 l 978 750 z "},"Ẁ":{"ha":1256,"x_min":135,"x_max":1293,"o":"m 1293 978 l 858 0 l 831 0 l 706 928 l 253 0 l 225 0 l 135 978 l 168 978 l 251 60 l 697 978 l 731 978 l 854 60 l 1260 978 l 1293 978 m 729 1069 l 724 1042 l 496 1222 l 503 1256 l 729 1069 z "},"ẁ":{"ha":1115,"x_min":93,"x_max":1153,"o":"m 1153 750 l 783 0 l 763 0 l 614 700 l 217 0 l 196 0 l 93 750 l 124 750 l 219 57 l 611 750 l 635 750 l 782 57 l 1122 750 l 1153 750 m 617 842 l 611 814 l 383 994 l 390 1028 l 617 842 z "},"Ẃ":{"ha":1256,"x_min":135,"x_max":1293,"o":"m 1293 978 l 858 0 l 831 0 l 706 928 l 253 0 l 225 0 l 135 978 l 168 978 l 251 60 l 697 978 l 731 978 l 854 60 l 1260 978 l 1293 978 m 1019 1222 l 728 1042 l 733 1069 l 1026 1256 l 1019 1222 z "},"ẃ":{"ha":1115,"x_min":93,"x_max":1153,"o":"m 1153 750 l 783 0 l 763 0 l 614 700 l 217 0 l 196 0 l 93 750 l 124 750 l 219 57 l 611 750 l 635 750 l 782 57 l 1122 750 l 1153 750 m 907 994 l 615 814 l 621 842 l 914 1028 l 907 994 z "},"Ẅ":{"ha":1256,"x_min":142,"x_max":1300,"o":"m 1300 978 l 865 0 l 838 0 l 713 928 l 260 0 l 232 0 l 142 978 l 175 978 l 258 60 l 704 978 l 738 978 l 861 60 l 1267 978 l 1300 978 m 625 1133 q 640 1167 625 1153 q 674 1182 654 1182 q 699 1172 689 1182 q 708 1147 708 1163 q 694 1114 708 1129 q 660 1099 679 1099 q 635 1108 644 1099 q 625 1133 625 1118 m 811 1133 q 826 1167 811 1153 q 860 1182 840 1182 q 883 1172 874 1182 q 893 1147 893 1163 q 878 1113 893 1128 q 846 1099 864 1099 q 821 1108 831 1099 q 811 1133 811 1118 z "},"ẅ":{"ha":1115,"x_min":99,"x_max":1158,"o":"m 1158 750 l 789 0 l 768 0 l 619 700 l 222 0 l 201 0 l 99 750 l 129 750 l 225 57 l 617 750 l 640 750 l 788 57 l 1128 750 l 1158 750 m 511 906 q 526 940 511 925 q 560 954 540 954 q 585 944 575 954 q 594 919 594 935 q 580 886 594 901 q 546 871 565 871 q 521 881 531 871 q 511 906 511 890 m 697 906 q 712 940 697 925 q 746 954 726 954 q 769 944 760 954 q 779 919 779 935 q 765 885 779 900 q 732 871 750 871 q 707 881 717 871 q 697 906 697 890 z "},"Ẽ":{"ha":665,"x_min":40,"x_max":690,"o":"m 236 953 l 157 501 l 565 501 l 560 476 l 151 476 l 72 25 l 522 25 l 518 0 l 40 0 l 213 978 l 690 978 l 686 953 l 236 953 m 421 1158 q 459 1149 444 1158 q 492 1122 474 1140 q 524 1097 510 1106 q 558 1089 538 1089 q 602 1106 582 1089 q 631 1154 622 1124 l 656 1154 q 618 1090 647 1117 q 554 1064 589 1064 q 513 1074 529 1064 q 478 1101 496 1083 q 447 1126 460 1118 q 417 1133 435 1133 q 346 1067 367 1133 l 321 1067 q 360 1134 333 1110 q 421 1158 386 1158 z "},"ẽ":{"ha":872,"x_min":83,"x_max":814,"o":"m 521 760 q 683 723 617 760 q 781 626 749 686 q 814 494 814 567 q 808 438 814 476 q 789 363 799 388 l 117 363 q 110 286 110 317 q 189 84 110 153 q 389 15 268 15 q 613 80 515 15 q 749 254 711 144 l 776 254 q 632 63 736 136 q 385 -10 528 -10 q 165 69 247 -10 q 83 286 83 147 q 92 375 83 328 q 174 581 113 493 q 326 714 236 668 q 521 760 417 760 m 775 388 q 788 485 788 442 q 710 672 788 608 q 517 735 632 735 q 346 697 428 735 q 203 581 264 658 q 122 388 143 503 l 775 388 m 460 931 q 498 922 483 931 q 531 894 513 913 q 563 869 549 878 q 597 861 576 861 q 641 878 621 861 q 669 926 661 896 l 694 926 q 657 863 686 889 q 593 836 628 836 q 551 846 568 836 q 517 874 535 856 q 486 898 499 890 q 456 906 474 906 q 385 839 406 906 l 360 839 q 399 906 372 882 q 460 931 425 931 z "},"Ỳ":{"ha":719,"x_min":128,"x_max":764,"o":"m 764 978 l 361 410 l 289 0 l 261 0 l 333 410 l 128 978 l 161 978 l 351 440 l 731 978 l 764 978 m 461 1069 l 456 1042 l 228 1222 l 235 1256 l 461 1069 z "},"ỳ":{"ha":699,"x_min":54,"x_max":711,"o":"m 99 750 l 276 40 l 681 750 l 711 750 l 89 -353 l 54 -353 l 254 -1 l 68 750 l 99 750 m 394 842 l 389 814 l 161 994 l 168 1028 l 394 842 z "},"Ỹ":{"ha":719,"x_min":136,"x_max":772,"o":"m 772 978 l 369 410 l 297 0 l 269 0 l 342 410 l 136 978 l 169 978 l 360 440 l 739 978 l 772 978 m 424 1158 q 462 1149 447 1158 q 494 1122 476 1140 q 526 1097 513 1106 q 561 1089 540 1089 q 605 1106 585 1089 q 633 1154 625 1124 l 658 1154 q 621 1090 650 1117 q 557 1064 592 1064 q 515 1074 532 1064 q 481 1101 499 1083 q 450 1126 463 1118 q 419 1133 438 1133 q 349 1067 369 1133 l 324 1067 q 363 1134 336 1110 q 424 1158 389 1158 z "},"ỹ":{"ha":699,"x_min":63,"x_max":719,"o":"m 107 750 l 285 40 l 689 750 l 719 750 l 97 -353 l 63 -353 l 263 -1 l 76 750 l 107 750 m 357 931 q 395 922 381 931 q 428 894 410 913 q 460 869 446 878 q 494 861 474 861 q 538 878 518 861 q 567 926 558 896 l 592 926 q 554 863 583 889 q 490 836 525 836 q 449 846 465 836 q 414 874 432 856 q 383 898 396 890 q 353 906 371 906 q 282 839 303 906 l 257 839 q 296 906 269 882 q 357 931 322 931 z "},"–":{"ha":807,"x_min":53,"x_max":754,"o":"m 754 540 l 749 515 l 53 515 l 58 540 l 754 540 z "},"—":{"ha":1061,"x_min":53,"x_max":1008,"o":"m 1008 540 l 1003 515 l 53 515 l 58 540 l 1008 540 z "},"‘":{"ha":169,"x_min":29,"x_max":153,"o":"m 29 824 q 40 919 32 874 q 79 1004 51 981 q 153 1028 107 1028 l 147 1000 q 97 985 113 1000 q 74 938 81 969 l 67 897 l 119 897 l 107 824 l 29 824 z "},"’":{"ha":169,"x_min":17,"x_max":140,"o":"m 140 1028 q 129 932 138 978 q 90 847 118 871 q 17 824 63 824 l 22 851 q 73 867 57 851 q 96 914 89 882 l 103 954 l 50 954 l 63 1028 l 140 1028 z "},"‚":{"ha":192,"x_min":-14,"x_max":101,"o":"m 101 43 q -14 -119 93 -119 l -10 -94 q 63 -19 51 -94 l 65 -10 l 22 -10 l 31 43 l 101 43 z "},"“":{"ha":289,"x_min":29,"x_max":272,"o":"m 29 824 q 40 919 32 874 q 79 1004 51 981 q 153 1028 107 1028 l 147 1000 q 97 985 113 1000 q 74 938 81 969 l 67 897 l 119 897 l 107 824 l 29 824 m 149 824 q 160 919 151 874 q 199 1004 171 981 q 272 1028 226 1028 l 267 1000 q 216 985 232 1000 q 193 938 200 969 l 186 897 l 239 897 l 226 824 l 149 824 z "},"”":{"ha":289,"x_min":17,"x_max":260,"o":"m 140 1028 q 129 932 138 978 q 90 847 118 871 q 17 824 63 824 l 22 851 q 73 867 57 851 q 96 914 89 882 l 103 954 l 50 954 l 63 1028 l 140 1028 m 260 1028 q 249 932 257 978 q 210 847 238 871 q 136 824 182 824 l 142 851 q 192 867 176 851 q 215 914 208 882 l 222 954 l 169 954 l 182 1028 l 260 1028 z "},"„":{"ha":289,"x_min":-10,"x_max":233,"o":"m 114 74 q 103 -22 111 24 q 64 -107 92 -83 q -10 -131 36 -131 l -4 -103 q 47 -87 31 -103 q 69 -40 63 -72 l 76 0 l 24 0 l 36 74 l 114 74 m 233 74 q 222 -22 231 24 q 183 -107 211 -83 q 110 -131 156 -131 l 115 -103 q 166 -87 150 -103 q 189 -40 182 -72 l 196 0 l 143 0 l 156 74 l 233 74 z "},"†":{"ha":596,"x_min":106,"x_max":622,"o":"m 618 722 l 372 726 l 185 -353 l 160 -353 l 351 726 l 106 722 l 110 750 l 356 746 l 413 1075 l 438 1075 l 376 746 l 622 750 l 618 722 z "},"‡":{"ha":597,"x_min":-26,"x_max":624,"o":"m 374 726 l 246 -4 l 492 1 l 488 -28 l 242 -24 l 185 -353 l 160 -353 l 221 -24 l -26 -28 l -22 1 l 225 -4 l 353 726 l 106 722 l 110 750 l 357 746 l 413 1075 l 438 1075 l 378 746 l 624 750 l 619 722 l 374 726 z "},"•":{"ha":356,"x_min":39,"x_max":317,"o":"m 39 439 q 62 519 39 482 q 122 578 85 556 q 201 600 160 600 q 284 568 251 600 q 317 488 317 536 q 294 409 317 446 q 233 350 271 372 q 154 328 196 328 q 72 359 104 328 q 39 439 39 390 z "},"…":{"ha":560,"x_min":31,"x_max":514,"o":"m 313 68 l 301 0 l 232 0 l 243 68 l 313 68 m 514 68 l 503 0 l 433 0 l 444 68 l 514 68 m 111 68 l 100 0 l 31 0 l 42 68 l 111 68 z "},"‰":{"ha":1151,"x_min":-29,"x_max":1042,"o":"m 319 988 q 427 947 386 988 q 468 843 468 907 q 439 735 468 785 q 361 658 410 686 q 257 629 313 629 q 150 669 190 629 q 110 774 110 710 q 138 881 110 832 q 215 959 167 931 q 319 988 264 988 m 763 978 l 3 0 l -29 0 l 731 978 l 763 978 m 138 775 q 171 688 138 721 q 261 654 204 654 q 376 698 326 654 q 438 808 425 742 q 440 839 440 831 q 406 928 440 894 q 315 963 372 963 q 226 938 267 963 q 161 869 185 913 q 138 775 138 826 m 478 347 q 585 307 544 347 q 625 203 625 267 q 597 95 625 144 q 519 17 568 46 q 415 -11 471 -11 q 308 29 349 -11 q 267 133 267 69 q 296 241 267 192 q 374 319 325 290 q 478 347 422 347 m 894 347 q 1001 307 961 347 q 1042 203 1042 267 q 1013 95 1042 144 q 936 17 985 46 q 832 -11 888 -11 q 724 29 765 -11 q 683 133 683 69 q 713 241 683 192 q 790 319 742 290 q 894 347 839 347 m 297 168 q 294 138 294 146 q 328 48 294 82 q 419 14 363 14 q 509 39 468 14 q 574 107 550 64 q 597 201 597 150 q 564 289 597 256 q 474 322 531 322 q 359 278 408 322 q 297 168 310 235 m 714 168 q 711 138 711 146 q 745 48 711 82 q 836 14 779 14 q 926 39 885 14 q 990 107 967 64 q 1014 201 1014 150 q 981 289 1014 256 q 890 322 947 322 q 776 278 825 322 q 714 168 726 235 z "},"‹":{"ha":318,"x_min":63,"x_max":292,"o":"m 168 167 l 63 410 l 254 653 l 292 653 l 97 410 l 206 167 l 168 167 z "},"›":{"ha":318,"x_min":26,"x_max":256,"o":"m 222 410 l 113 653 l 151 653 l 256 410 l 65 167 l 26 167 l 222 410 z "},"⁄":{"ha":288,"x_min":-253,"x_max":540,"o":"m 540 978 l -219 0 l -253 0 l 507 978 l 540 978 z "},"€":{"ha":1163,"x_min":4,"x_max":1114,"o":"m 717 963 q 519 919 614 963 q 349 793 424 875 q 236 599 275 711 l 656 599 l 651 574 l 228 574 q 207 488 215 529 q 197 376 197 433 l 617 376 l 613 351 l 199 351 q 250 172 204 247 q 374 56 296 96 q 550 15 451 15 q 830 90 710 15 q 1015 288 950 164 l 1043 288 q 842 69 967 147 q 546 -10 717 -10 q 353 35 436 -10 q 222 161 269 79 q 168 351 174 243 l 4 351 l 8 376 l 168 376 q 178 488 168 433 q 199 574 186 533 l 43 574 l 47 599 l 207 599 q 325 802 247 714 q 505 939 403 890 q 721 988 607 988 q 989 908 892 988 q 1114 689 1086 829 l 1086 689 q 969 888 1063 813 q 717 963 876 963 z "},"₺":{"ha":1068,"x_min":56,"x_max":988,"o":"m 988 529 q 794 110 939 256 q 404 -36 649 -36 q 274 -19 336 -36 l 339 356 l 56 278 l 61 306 l 344 383 l 381 589 l 97 508 l 101 536 l 385 617 l 449 978 l 476 978 l 414 625 l 736 717 l 732 689 l 410 597 l 374 392 l 694 481 l 690 453 l 368 364 l 304 0 q 408 -11 357 -11 q 773 124 633 -11 q 960 529 913 258 l 988 529 z "},"₽":{"ha":817,"x_min":43,"x_max":806,"o":"m 535 978 q 806 771 806 978 q 800 708 806 738 q 685 507 776 574 q 440 440 594 440 l 221 440 l 188 249 l 567 249 l 563 224 l 182 224 l 143 0 l 115 0 l 154 224 l 43 224 l 47 249 l 160 249 l 193 440 l 82 440 l 88 469 l 199 469 l 288 978 l 535 978 m 772 708 q 778 771 778 738 q 719 905 778 860 q 531 950 661 950 l 311 950 l 226 469 l 446 469 q 674 532 596 469 q 772 708 753 594 z "},"ℓ":{"ha":236,"x_min":21,"x_max":229,"o":"m 229 1028 l 49 0 l 21 0 l 201 1028 l 229 1028 z "},"™":{"ha":957,"x_min":81,"x_max":944,"o":"m 400 950 l 256 950 l 174 489 l 146 489 l 228 950 l 81 950 l 85 978 l 404 978 l 400 950 m 944 978 l 858 489 l 831 489 l 904 910 l 638 489 l 610 489 l 490 910 l 417 489 l 389 489 l 475 978 l 503 978 l 631 526 l 917 978 l 944 978 z "},"Ω":{"ha":1103,"x_min":8,"x_max":1042,"o":"m 639 988 q 847 938 756 988 q 990 799 939 889 q 1042 590 1042 708 q 1032 489 1042 550 q 899 196 1003 321 q 649 35 794 71 l 646 25 l 922 25 l 918 0 l 531 0 l 536 31 q 750 99 651 40 q 915 259 849 158 q 1004 489 982 360 q 1013 586 1013 539 q 965 784 1013 699 q 831 916 917 869 q 635 963 744 963 q 392 901 507 963 q 197 732 276 840 q 94 489 118 624 q 86 390 86 438 q 172 140 86 236 q 401 31 257 43 l 396 0 l 8 0 l 13 25 l 289 25 l 292 35 q 120 159 182 64 q 58 386 58 254 q 68 489 58 426 q 178 747 94 633 q 384 924 263 861 q 639 988 506 988 z "},"℮":{"ha":1072,"x_min":67,"x_max":1007,"o":"m 464 -10 q 175 84 283 -10 q 67 350 67 178 q 76 453 67 403 q 175 709 101 594 q 363 890 249 824 q 621 957 478 957 q 833 908 746 957 q 963 778 919 860 q 1007 596 1007 696 q 1000 514 1007 549 l 986 431 l 192 431 l 153 211 q 271 72 197 117 q 469 26 344 26 q 663 74 574 26 q 876 225 753 122 l 904 193 q 464 -10 681 -10 m 901 747 q 793 874 867 829 q 614 918 719 918 q 410 871 506 918 q 243 728 314 824 l 201 490 l 856 490 l 901 747 z "}}}
